<svg xmlns="http://www.w3.org/2000/svg" xmlns:xlink="http://www.w3.org/1999/xlink" version="1.1" id="Layer_1" x="0px" y="0px" width="100px" height="100px" viewBox="0 0 100 100" enable-background="new 0 0 100 100" xml:space="preserve">
<polygon fill="none" points="86.917,69.535 87,69.587 87,30.881 86.917,30.941 "/>
<path d="M7,22v3.013v0.002V78h3h80h3V25.015v-0.002V22H7z M86.917,72h-74V28.001h74V72z"/>
<path d="M80.114,38.545c0-1.104,0.896-2,2-2v-1.333c-1.104,0-2-0.896-2-2h-1.333c0,1.104-0.896,2-2,2s-2-0.896-2-2h-1.334  c0,1.104-0.896,2-2,2s-2-0.896-2-2h-1.333c0,1.104-0.896,2-2,2v1.333c1.104,0,2,0.896,2,2s-0.896,2-2,2v1.334c1.104,0,2,0.896,2,2  s-0.896,2-2,2v1.333c1.104,0,2,0.896,2,2h1.333c0-1.104,0.896-2,2-2s2,0.896,2,2h1.334c0-1.104,0.896-2,2-2s2,0.896,2,2h1.333  c0-1.104,0.896-2,2-2v-1.333c-1.104,0-2-0.896-2-2s0.896-2,2-2v-1.334C81.01,40.545,80.114,39.649,80.114,38.545z M78.114,45.212h-8  v-8h8V45.212z"/>
<g>
	<path d="M52.609,65.5H21.057c-0.828,0-1.5-0.672-1.5-1.5s0.672-1.5,1.5-1.5h31.553c0.828,0,1.5,0.672,1.5,1.5   S53.438,65.5,52.609,65.5z"/>
</g>
<g>
	<path d="M52.609,59.5H21.057c-0.828,0-1.5-0.672-1.5-1.5s0.672-1.5,1.5-1.5h31.553c0.828,0,1.5,0.672,1.5,1.5   S53.438,59.5,52.609,59.5z"/>
</g>
<g>
	<path d="M52.756,53.5H20.91c-0.828,0-1.5-0.672-1.5-1.5s0.672-1.5,1.5-1.5h31.846c0.828,0,1.5,0.672,1.5,1.5   S53.584,53.5,52.756,53.5z"/>
</g>
</svg>
