<svg xmlns="http://www.w3.org/2000/svg" xmlns:xlink="http://www.w3.org/1999/xlink" version="1.1" id="Layer_1" x="0px" y="0px" width="100px" height="80px" viewBox="-17.283 10 100 80" enable-background="new -17.283 10 100 80" xml:space="preserve">
<g>
	<g>
	</g>
	<g>
		<path d="M62.832,26.509c-4.601-0.361-9.748,0.38-14.739-0.144c0.476-5.415-1.018-8.883-5.054-9.821c-8.038,0-16.087,0-24.13,0    c-4.106,0.898-5.563,4.457-5.059,9.965c-0.563,0-1.112,0-1.68,0c-0.262-3.108-3.982-4.828-7.574-3.79    c-1.541,0.435-2.693,2.011-2.667,3.79c-7.071,0.464-10.697,4.367-12.061,10.528c0,9.348,0,18.715,0,28.063    c1.043,5.633,5.049,9.923,10.509,10.534c5.158,0.573,12.475,0,18.103,0c2.139,0,4.703-0.444,6.19,0    c1.141,0.326,2.173,2.353,3.503,3.497c3.996,3.499,8.764,5.525,14.866,6.325c1.453,0,2.91,0,4.362,0    c5.989-0.879,10.687-2.757,14.585-6.167c1.518-1.333,2.564-3.369,4.072-4.366c0.982-0.643,1.941-0.93,2.806-1.542    c2.645-1.878,4.595-4.388,5.197-8.281c0-9.348,0-18.715,0-28.063C72.738,31.297,69.304,26.998,62.832,26.509z M19.61,62.581    c-1.374-2.322-2.416-4.851-2.52-8.142c-0.41-10.939,7.437-17.748,17.678-18.528c0.099,0,0.183,0,0.276,0    C25.97,40.783,18.676,48.164,19.61,62.581z M66.059,68.046C62.56,76.8,52.654,84.637,39.823,81.524    c-9.595-2.332-18.331-11.265-16.986-24.003c0.667-6.254,3.36-10.573,6.729-13.893c3.247-3.162,8.162-5.801,14.601-6.176    c10.775-0.633,18.448,5.781,21.62,13.34C67.946,55.94,68.252,62.591,66.059,68.046z M70.001,45.881    c-0.673,0.208-1.452-0.781-2.401-1.265c-0.73-0.375-1.582-0.692-2.382-0.84c-4.544-5.672-11.856-10.435-22.179-9.684    c-0.968,0.069-2.011,0.563-3.077,0.554c-1.216-0.02-2.456-0.612-3.52-0.702c-9.011-0.692-14.713,4.101-18.516,9.269    c-5.243,0.247-11.528-0.336-16.567,0c-3.325,0.227-5.529,1.67-7.426,2.806c-0.653-8.113,0.227-14.723,7.158-15.435    c4.749-0.494,11.072,0.366,16.701,0c0.924-2.821-1.369-9.229,1.674-9.97c1.63-0.396,4.195,0,6.309,0c4.255,0,7.758,0,12.348,0    c1.853,0,4.853-0.232,5.47,0.702c1.339,1.996-0.4,6.344,0.296,9.12c6.019,0.643,13.384-0.36,18.8,0.148    C69.582,31.218,70.688,37.552,70.001,45.881z"/>
		<path d="M36.027,30.437c-1.54,0.514-8.72,0.543-10.252,0c-2.342-0.83-2.48-5,0.436-5.75c1.562-0.405,7.954-0.613,9.816,0    C38.593,25.526,38.727,29.542,36.027,30.437z"/>
		<path d="M58.197,45.309c-3.354-2.974-8.469-5.435-14.604-4.901c-6.804,0.573-11.576,4.021-14.586,8.547    c-2.81,4.258-4.658,11.828-1.966,18.251c2.693,6.413,8.934,12.084,18.112,12.084c9.98,0,18.8-7.519,19.497-18.261    C65.134,53.787,61.858,48.56,58.197,45.309z M45.013,53.161c-6.896,0-12.209,2.691-15.976,5.254    c0.93-7.782,6.026-14.968,16.077-14.968c0.494,0,0.996,0.018,1.511,0.054c8.247,0.601,13.939,6.66,14.704,15.348    C58.853,56.918,53.018,53.173,45.013,53.161z"/>
		<path d="M36.027,24.686c-1.862-0.613-8.255-0.405-9.816,0c-2.916,0.751-2.777,4.921-0.436,5.75c1.532,0.543,8.712,0.514,10.252,0    C38.727,29.542,38.593,25.526,36.027,24.686z"/>
	</g>
</g>
</svg>
