<svg xmlns="http://www.w3.org/2000/svg" xmlns:xlink="http://www.w3.org/1999/xlink" version="1.1" x="0px" y="0px" width="100px" height="100px" viewBox="0 0 100 100" enable-background="new 0 0 100 100" xml:space="preserve">
<g id="Captions">
</g>
<g id="Your_Icon">
	<path d="M100,50c0-27.569-22.429-50-50-50C22.43,0,0,22.431,0,50c0,27.572,22.43,50,50,50c3.007,0,5.446-2.438,5.446-5.446   c0-3.007-2.439-5.444-5.446-5.444c-21.565,0-39.109-17.544-39.109-39.11c0-21.564,17.544-39.108,39.109-39.108   S89.109,28.435,89.109,50c0,6.124-1.374,11.973-4.078,17.399c-0.033,0.053-0.074,0.102-0.108,0.157   c-1.178,1.871-3.197,2.988-5.403,2.988c-3.517,0-6.379-2.861-6.379-6.382l-0.028-34.344c-0.002-3.006-2.44-5.441-5.445-5.441   c-0.001,0-0.003,0-0.003,0c-2.78,0.004-5.067,2.088-5.396,4.779c-4.213-3.002-9.359-4.775-14.915-4.775   c-14.208,0-25.767,11.558-25.767,25.766c0,14.207,11.559,25.766,25.767,25.766c6.055,0,11.625-2.104,16.027-5.612   c2.479,6.501,8.776,11.134,16.14,11.134c5.687,0,10.91-2.742,14.145-7.373c0.293-0.33,0.554-0.694,0.766-1.104   C98.074,65.914,100,57.976,100,50z M47.353,65.022c-8.202,0-14.876-6.673-14.876-14.876c0-8.203,6.674-14.875,14.876-14.875   s14.876,6.673,14.876,14.875C62.229,58.35,55.555,65.022,47.353,65.022z"/>
</g>
</svg>
