<svg xmlns="http://www.w3.org/2000/svg" xmlns:xlink="http://www.w3.org/1999/xlink" version="1.1" id="Layer_1" x="0px" y="0px" width="100px" height="51.039px" viewBox="0 0 100 51.039" enable-background="new 0 0 100 51.039" xml:space="preserve">
<pattern x="-238" y="313.691" width="69" height="69" patternUnits="userSpaceOnUse" id="Polka_Dot_Pattern" viewBox="2.125 -70.896 69 69" overflow="visible">
	<g>
		<polygon fill="none" points="71.125,-1.896 2.125,-1.896 2.125,-70.896 71.125,-70.896   "/>
		<polygon fill="#000000" points="71.125,-1.896 2.125,-1.896 2.125,-70.896 71.125,-70.896   "/>
		<g>
			<path fill="#000000" d="M61.772-71.653c0.018,0.072,0.007,0.127-0.026,0.19c-0.053,0.101-0.112,0.063-0.165,0.128     c-0.05,0.063-0.099,0.276-0.079,0.362c-0.169,0.058-0.01,0.227-0.015,0.35c-0.002,0.05-0.041,0.105-0.045,0.161     c-0.01,0.119,0.017,0.266,0.068,0.37c0.097,0.198,0.268,0.413,0.435,0.544c0.19,0.148,0.365,0.572,0.608,0.631     c0.177,0.042,0.384-0.104,0.543-0.143c0.18-0.043,0.397,0.01,0.571-0.053c0.222-0.079,0.127-0.337,0.288-0.45     c0.104-0.074,0.287-0.01,0.406-0.051c0.2-0.069,0.339-0.263,0.376-0.46c0.016-0.082,0.01-0.145,0.039-0.221     c0.039-0.103,0.111-0.16,0.09-0.293c-0.01-0.062-0.052-0.12-0.064-0.187c-0.022-0.114,0.002-0.224,0-0.337     c-0.003-0.2,0.017-0.379-0.078-0.55c-0.38-0.688-1.236-0.929-1.975-0.789c-0.18,0.034-0.287,0.126-0.442,0.207     c-0.17,0.088-0.139,0.166-0.318,0.224c-0.081,0.026-0.216,0.124-0.215,0.224c0.001,0.115,0.005,0.051,0.012,0.169     c-0.021,0.011-0.021-0.005-0.03-0.025"/>
			<path fill="#000000" d="M54.105-71.653c0.018,0.072,0.007,0.127-0.026,0.19c-0.053,0.101-0.112,0.063-0.165,0.128     c-0.05,0.063-0.099,0.276-0.079,0.362c-0.169,0.058-0.01,0.227-0.015,0.35c-0.002,0.05-0.041,0.105-0.045,0.161     c-0.01,0.119,0.017,0.266,0.068,0.37c0.097,0.198,0.268,0.413,0.435,0.544c0.19,0.148,0.365,0.572,0.608,0.631     c0.177,0.042,0.384-0.104,0.543-0.143c0.18-0.043,0.397,0.01,0.571-0.053c0.222-0.079,0.127-0.337,0.288-0.45     c0.104-0.074,0.287-0.01,0.406-0.051c0.2-0.069,0.339-0.263,0.376-0.46c0.016-0.082,0.01-0.145,0.039-0.221     c0.039-0.103,0.111-0.16,0.09-0.293c-0.01-0.062-0.052-0.12-0.064-0.187c-0.022-0.114,0.002-0.224,0-0.337     c-0.003-0.2,0.017-0.379-0.078-0.55c-0.38-0.688-1.236-0.929-1.975-0.789c-0.18,0.034-0.287,0.126-0.442,0.207     c-0.17,0.088-0.139,0.166-0.318,0.224c-0.081,0.026-0.216,0.124-0.215,0.224c0.001,0.115,0.005,0.051,0.012,0.169     c-0.021,0.011-0.021-0.005-0.03-0.025"/>
			<path fill="#000000" d="M46.439-71.653c0.018,0.072,0.007,0.127-0.026,0.19c-0.053,0.101-0.112,0.063-0.165,0.128     c-0.05,0.063-0.099,0.276-0.079,0.362c-0.169,0.058-0.01,0.227-0.015,0.35c-0.002,0.05-0.041,0.105-0.045,0.161     c-0.01,0.119,0.017,0.266,0.068,0.37c0.097,0.198,0.268,0.413,0.435,0.544c0.19,0.148,0.365,0.572,0.608,0.631     c0.177,0.042,0.384-0.104,0.543-0.143c0.18-0.043,0.397,0.01,0.571-0.053c0.222-0.079,0.127-0.337,0.288-0.45     c0.104-0.074,0.287-0.01,0.406-0.051c0.2-0.069,0.339-0.263,0.376-0.46c0.016-0.082,0.01-0.145,0.039-0.221     c0.039-0.103,0.111-0.16,0.09-0.293c-0.01-0.062-0.052-0.12-0.064-0.187c-0.022-0.114,0.002-0.224,0-0.337     c-0.003-0.2,0.017-0.379-0.078-0.55c-0.38-0.688-1.236-0.929-1.975-0.789c-0.18,0.034-0.287,0.126-0.442,0.207     c-0.17,0.088-0.139,0.166-0.318,0.224c-0.081,0.026-0.216,0.124-0.215,0.224c0.001,0.115,0.005,0.051,0.012,0.169     c-0.021,0.011-0.021-0.005-0.03-0.025"/>
			<path fill="#000000" d="M38.772-71.653c0.018,0.072,0.007,0.127-0.026,0.19c-0.053,0.101-0.112,0.063-0.165,0.128     c-0.05,0.063-0.099,0.276-0.079,0.362c-0.169,0.058-0.01,0.227-0.015,0.35c-0.002,0.05-0.041,0.105-0.045,0.161     c-0.01,0.119,0.017,0.266,0.068,0.37c0.097,0.198,0.268,0.413,0.435,0.544c0.19,0.148,0.365,0.572,0.608,0.631     c0.177,0.042,0.384-0.104,0.543-0.143c0.18-0.043,0.397,0.01,0.571-0.053c0.222-0.079,0.127-0.337,0.288-0.45     c0.104-0.074,0.287-0.01,0.406-0.051c0.2-0.069,0.339-0.263,0.376-0.46c0.016-0.082,0.01-0.145,0.039-0.221     c0.039-0.103,0.111-0.16,0.09-0.293c-0.01-0.062-0.052-0.12-0.064-0.187c-0.022-0.114,0.002-0.224,0-0.337     c-0.003-0.2,0.017-0.379-0.078-0.55c-0.38-0.688-1.236-0.929-1.975-0.789c-0.18,0.034-0.287,0.126-0.442,0.207     c-0.17,0.088-0.139,0.166-0.318,0.224c-0.081,0.026-0.216,0.124-0.215,0.224c0.001,0.115,0.005,0.051,0.012,0.169     c-0.021,0.011-0.021-0.005-0.03-0.025"/>
			<path fill="#000000" d="M31.105-71.653c0.018,0.072,0.007,0.127-0.026,0.19c-0.053,0.101-0.112,0.063-0.165,0.128     c-0.05,0.063-0.099,0.276-0.079,0.362c-0.169,0.058-0.01,0.227-0.015,0.35c-0.002,0.05-0.041,0.105-0.045,0.161     c-0.01,0.119,0.017,0.266,0.068,0.37c0.097,0.198,0.268,0.413,0.435,0.544c0.19,0.148,0.365,0.572,0.608,0.631     c0.177,0.042,0.384-0.104,0.543-0.143c0.18-0.043,0.397,0.01,0.571-0.053c0.222-0.079,0.127-0.337,0.288-0.45     c0.104-0.074,0.287-0.01,0.406-0.051c0.2-0.069,0.339-0.263,0.376-0.46c0.016-0.082,0.01-0.145,0.039-0.221     c0.039-0.103,0.111-0.16,0.09-0.293c-0.01-0.062-0.052-0.12-0.064-0.187c-0.022-0.114,0.002-0.224,0-0.337     c-0.003-0.2,0.017-0.379-0.078-0.55c-0.38-0.688-1.236-0.929-1.975-0.789c-0.18,0.034-0.287,0.126-0.442,0.207     c-0.17,0.088-0.139,0.166-0.318,0.224c-0.081,0.026-0.216,0.124-0.215,0.224c0.001,0.115,0.005,0.051,0.012,0.169     c-0.021,0.011-0.021-0.005-0.03-0.025"/>
			<path fill="#000000" d="M23.439-71.653c0.018,0.072,0.007,0.127-0.026,0.19c-0.053,0.101-0.112,0.063-0.165,0.128     c-0.05,0.063-0.099,0.276-0.079,0.362c-0.169,0.058-0.01,0.227-0.015,0.35c-0.002,0.05-0.041,0.105-0.045,0.161     c-0.01,0.119,0.017,0.266,0.068,0.37c0.097,0.198,0.268,0.413,0.435,0.544c0.19,0.148,0.365,0.572,0.608,0.631     c0.177,0.042,0.384-0.104,0.543-0.143c0.18-0.043,0.397,0.01,0.571-0.053c0.222-0.079,0.127-0.337,0.288-0.45     c0.104-0.074,0.287-0.01,0.406-0.051c0.2-0.069,0.339-0.263,0.376-0.46c0.016-0.082,0.01-0.145,0.039-0.221     c0.039-0.103,0.111-0.16,0.09-0.293c-0.01-0.062-0.052-0.12-0.064-0.187c-0.022-0.114,0.002-0.224,0-0.337     c-0.003-0.2,0.017-0.379-0.078-0.55c-0.38-0.688-1.236-0.929-1.975-0.789c-0.18,0.034-0.287,0.126-0.442,0.207     c-0.17,0.088-0.139,0.166-0.318,0.224c-0.081,0.026-0.216,0.124-0.215,0.224c0.001,0.115,0.005,0.051,0.012,0.169     c-0.021,0.011-0.021-0.005-0.03-0.025"/>
			<path fill="#000000" d="M15.772-71.653c0.018,0.072,0.007,0.127-0.026,0.19c-0.053,0.101-0.112,0.063-0.165,0.128     c-0.05,0.063-0.099,0.276-0.079,0.362c-0.169,0.058-0.01,0.227-0.015,0.35c-0.002,0.05-0.041,0.105-0.045,0.161     c-0.01,0.119,0.017,0.266,0.068,0.37c0.097,0.198,0.268,0.413,0.435,0.544c0.19,0.148,0.365,0.572,0.608,0.631     c0.177,0.042,0.384-0.104,0.543-0.143c0.18-0.043,0.397,0.01,0.571-0.053c0.222-0.079,0.127-0.337,0.288-0.45     c0.104-0.074,0.287-0.01,0.406-0.051c0.2-0.069,0.339-0.263,0.376-0.46c0.016-0.082,0.01-0.145,0.039-0.221     c0.039-0.103,0.111-0.16,0.09-0.293c-0.01-0.062-0.052-0.12-0.064-0.187c-0.022-0.114,0.002-0.224,0-0.337     c-0.003-0.2,0.017-0.379-0.078-0.55c-0.38-0.688-1.236-0.929-1.975-0.789c-0.18,0.034-0.287,0.126-0.442,0.207     c-0.17,0.088-0.139,0.166-0.318,0.224c-0.081,0.026-0.216,0.124-0.215,0.224c0.001,0.115,0.005,0.051,0.012,0.169     c-0.021,0.011-0.021-0.005-0.03-0.025"/>
			<path fill="#000000" d="M8.105-71.653c0.018,0.072,0.007,0.127-0.026,0.19c-0.053,0.101-0.112,0.063-0.165,0.128     c-0.05,0.063-0.099,0.276-0.079,0.362c-0.169,0.058-0.01,0.227-0.015,0.35c-0.002,0.05-0.041,0.105-0.045,0.161     c-0.01,0.119,0.017,0.266,0.068,0.37c0.097,0.198,0.268,0.413,0.435,0.544c0.19,0.148,0.365,0.572,0.608,0.631     c0.177,0.042,0.384-0.104,0.543-0.143c0.18-0.043,0.397,0.01,0.571-0.053c0.222-0.079,0.127-0.337,0.288-0.45     c0.104-0.074,0.287-0.01,0.406-0.051c0.2-0.069,0.339-0.263,0.376-0.46c0.016-0.082,0.01-0.145,0.039-0.221     c0.039-0.103,0.111-0.16,0.09-0.293c-0.01-0.062-0.052-0.12-0.064-0.187c-0.022-0.114,0.002-0.224,0-0.337     c-0.003-0.2,0.017-0.379-0.078-0.55c-0.38-0.688-1.236-0.929-1.975-0.789c-0.18,0.034-0.287,0.126-0.442,0.207     c-0.17,0.088-0.139,0.166-0.318,0.224c-0.081,0.026-0.216,0.124-0.215,0.224c0.001,0.115,0.005,0.051,0.012,0.169     c-0.021,0.011-0.021-0.005-0.03-0.025"/>
			<path fill="#000000" d="M0.439-71.653c0.018,0.072,0.008,0.127-0.026,0.19C0.361-71.362,0.3-71.4,0.248-71.335     c-0.051,0.063-0.099,0.276-0.079,0.362c-0.169,0.058-0.01,0.227-0.015,0.35c-0.002,0.05-0.041,0.105-0.045,0.161     c-0.01,0.119,0.017,0.266,0.068,0.37c0.097,0.198,0.268,0.413,0.435,0.544c0.19,0.148,0.365,0.572,0.608,0.631     c0.177,0.042,0.384-0.104,0.543-0.143c0.18-0.043,0.397,0.01,0.571-0.053c0.222-0.079,0.127-0.337,0.288-0.45     c0.104-0.074,0.287-0.01,0.406-0.051c0.2-0.07,0.339-0.263,0.376-0.46c0.016-0.082,0.01-0.145,0.039-0.221     c0.038-0.103,0.111-0.16,0.09-0.293c-0.01-0.062-0.051-0.12-0.064-0.187c-0.021-0.114,0.002-0.224,0-0.337     c-0.003-0.2,0.017-0.379-0.078-0.55c-0.38-0.688-1.236-0.929-1.975-0.789c-0.18,0.034-0.287,0.126-0.442,0.207     c-0.17,0.088-0.139,0.166-0.318,0.224c-0.081,0.026-0.215,0.124-0.215,0.224c0.002,0.115,0.005,0.051,0.012,0.169     c-0.021,0.011-0.021-0.005-0.03-0.025"/>
		</g>
		<g>
			<path fill="#000000" d="M69.439-71.653c0.018,0.072,0.008,0.127-0.026,0.19c-0.052,0.101-0.113,0.063-0.165,0.128     c-0.051,0.063-0.099,0.276-0.079,0.362c-0.169,0.058-0.01,0.227-0.015,0.35c-0.002,0.05-0.041,0.105-0.045,0.161     c-0.01,0.119,0.017,0.266,0.068,0.37c0.097,0.198,0.268,0.413,0.435,0.544c0.19,0.148,0.365,0.572,0.608,0.631     c0.177,0.042,0.384-0.104,0.543-0.143c0.18-0.043,0.397,0.01,0.571-0.053c0.222-0.079,0.127-0.337,0.288-0.45     c0.104-0.074,0.287-0.01,0.406-0.051c0.2-0.07,0.339-0.263,0.376-0.46c0.016-0.082,0.01-0.145,0.039-0.221     c0.038-0.103,0.111-0.16,0.09-0.293c-0.01-0.062-0.051-0.12-0.064-0.187c-0.021-0.114,0.002-0.224,0-0.337     c-0.003-0.2,0.017-0.379-0.078-0.55c-0.38-0.688-1.236-0.929-1.975-0.789c-0.18,0.034-0.287,0.126-0.442,0.207     c-0.17,0.088-0.139,0.166-0.318,0.224c-0.081,0.026-0.215,0.124-0.215,0.224c0.002,0.115,0.005,0.051,0.012,0.169     c-0.021,0.011-0.021-0.005-0.03-0.025"/>
		</g>
		<path fill="#000000" d="M0.495-71.653c0.018,0.072,0.008,0.127-0.026,0.19c-0.052,0.101-0.113,0.063-0.165,0.128    c-0.051,0.063-0.099,0.276-0.079,0.362c-0.169,0.058-0.01,0.227-0.015,0.35c-0.002,0.05-0.041,0.105-0.045,0.161    c-0.01,0.119,0.017,0.266,0.068,0.37c0.097,0.198,0.268,0.413,0.435,0.544c0.19,0.148,0.365,0.572,0.608,0.631    c0.177,0.042,0.384-0.104,0.543-0.143c0.18-0.043,0.397,0.01,0.571-0.053c0.222-0.079,0.127-0.337,0.288-0.45    c0.104-0.074,0.287-0.01,0.406-0.051c0.2-0.07,0.339-0.263,0.376-0.46c0.016-0.082,0.01-0.145,0.039-0.221    c0.038-0.103,0.111-0.16,0.09-0.293c-0.01-0.062-0.051-0.12-0.064-0.187c-0.021-0.114,0.002-0.224,0-0.337    c-0.003-0.2,0.017-0.379-0.078-0.55c-0.38-0.688-1.236-0.929-1.975-0.789c-0.18,0.034-0.287,0.126-0.442,0.207    c-0.17,0.088-0.139,0.166-0.318,0.224c-0.081,0.026-0.215,0.124-0.215,0.224C0.5-71.68,0.503-71.744,0.51-71.626    c-0.021,0.011-0.021-0.005-0.03-0.025"/>
		<g>
			<g>
				<path fill="#000000" d="M69.439-64.001c0.018,0.072,0.007,0.127-0.026,0.19c-0.053,0.101-0.112,0.063-0.165,0.128      c-0.05,0.063-0.099,0.276-0.079,0.362c-0.169,0.058-0.01,0.227-0.015,0.35c-0.002,0.05-0.041,0.105-0.045,0.161      c-0.01,0.119,0.017,0.266,0.068,0.37c0.097,0.198,0.268,0.413,0.435,0.544c0.19,0.148,0.365,0.572,0.608,0.631      c0.177,0.042,0.384-0.104,0.543-0.143c0.18-0.043,0.397,0.01,0.571-0.053c0.222-0.079,0.127-0.337,0.288-0.45      c0.104-0.074,0.287-0.01,0.406-0.051c0.2-0.069,0.339-0.263,0.376-0.46c0.016-0.082,0.01-0.145,0.039-0.221      c0.039-0.103,0.111-0.16,0.09-0.293c-0.01-0.062-0.052-0.12-0.064-0.187c-0.022-0.114,0.002-0.224,0-0.337      c-0.003-0.2,0.017-0.379-0.078-0.55c-0.38-0.688-1.236-0.929-1.975-0.789c-0.18,0.034-0.287,0.126-0.442,0.207      c-0.17,0.088-0.139,0.166-0.318,0.224c-0.081,0.026-0.216,0.124-0.215,0.224c0.001,0.115,0.005,0.051,0.012,0.169      c-0.021,0.011-0.021-0.005-0.03-0.025"/>
				<path fill="#000000" d="M61.778-64.001c0.018,0.072,0.007,0.127-0.026,0.19c-0.053,0.101-0.112,0.063-0.165,0.128      c-0.05,0.063-0.099,0.276-0.079,0.362c-0.169,0.058-0.009,0.227-0.015,0.35c-0.002,0.05-0.041,0.105-0.045,0.161      c-0.01,0.119,0.017,0.266,0.068,0.37c0.097,0.198,0.268,0.413,0.435,0.544c0.19,0.148,0.365,0.572,0.608,0.631      c0.177,0.042,0.384-0.104,0.543-0.143c0.18-0.043,0.397,0.01,0.571-0.053c0.222-0.079,0.127-0.337,0.288-0.45      c0.104-0.074,0.287-0.01,0.406-0.051c0.2-0.069,0.339-0.263,0.376-0.46c0.016-0.082,0.01-0.145,0.039-0.221      c0.039-0.103,0.111-0.16,0.09-0.293c-0.01-0.062-0.052-0.12-0.064-0.187c-0.022-0.114,0.002-0.224,0-0.337      c-0.003-0.2,0.017-0.379-0.078-0.55c-0.38-0.688-1.236-0.929-1.975-0.789c-0.18,0.034-0.287,0.126-0.442,0.207      c-0.17,0.088-0.139,0.166-0.318,0.224c-0.081,0.026-0.216,0.124-0.215,0.224c0.001,0.115,0.005,0.051,0.012,0.169      c-0.021,0.011-0.021-0.005-0.03-0.025"/>
				<path fill="#000000" d="M54.118-64.001c0.018,0.072,0.007,0.127-0.026,0.19c-0.053,0.101-0.112,0.063-0.165,0.128      c-0.05,0.063-0.099,0.276-0.079,0.362c-0.169,0.058-0.009,0.227-0.015,0.35c-0.002,0.05-0.041,0.105-0.045,0.161      c-0.01,0.119,0.017,0.266,0.068,0.37c0.097,0.198,0.268,0.413,0.435,0.544c0.19,0.148,0.365,0.572,0.608,0.631      c0.177,0.042,0.384-0.104,0.543-0.143c0.18-0.043,0.397,0.01,0.571-0.053c0.222-0.079,0.127-0.337,0.288-0.45      c0.104-0.074,0.287-0.01,0.406-0.051c0.2-0.069,0.339-0.263,0.376-0.46c0.016-0.082,0.01-0.145,0.039-0.221      c0.039-0.103,0.111-0.16,0.09-0.293c-0.01-0.062-0.052-0.12-0.064-0.187c-0.022-0.114,0.002-0.224,0-0.337      c-0.003-0.2,0.017-0.379-0.078-0.55c-0.38-0.688-1.236-0.929-1.975-0.789c-0.18,0.034-0.287,0.126-0.442,0.207      c-0.17,0.088-0.139,0.166-0.318,0.224c-0.081,0.026-0.216,0.124-0.215,0.224c0.001,0.115,0.005,0.051,0.012,0.169      c-0.021,0.011-0.021-0.005-0.03-0.025"/>
				<path fill="#000000" d="M46.458-64.001c0.018,0.072,0.007,0.127-0.026,0.19c-0.053,0.101-0.112,0.063-0.165,0.128      c-0.05,0.063-0.099,0.276-0.079,0.362c-0.169,0.058-0.009,0.227-0.015,0.35c-0.002,0.05-0.041,0.105-0.045,0.161      c-0.01,0.119,0.017,0.266,0.068,0.37c0.097,0.198,0.268,0.413,0.435,0.544c0.19,0.148,0.365,0.572,0.608,0.631      c0.177,0.042,0.384-0.104,0.543-0.143c0.18-0.043,0.397,0.01,0.571-0.053c0.222-0.079,0.127-0.337,0.288-0.45      c0.104-0.074,0.287-0.01,0.406-0.051c0.2-0.069,0.339-0.263,0.376-0.46c0.016-0.082,0.01-0.145,0.039-0.221      c0.039-0.103,0.111-0.16,0.09-0.293c-0.01-0.062-0.052-0.12-0.064-0.187c-0.022-0.114,0.002-0.224,0-0.337      c-0.003-0.2,0.017-0.379-0.078-0.55c-0.38-0.688-1.236-0.929-1.975-0.789c-0.18,0.034-0.287,0.126-0.442,0.207      c-0.17,0.088-0.139,0.166-0.318,0.224c-0.081,0.026-0.216,0.124-0.215,0.224c0.001,0.115,0.005,0.051,0.012,0.169      c-0.021,0.011-0.021-0.005-0.03-0.025"/>
				<path fill="#000000" d="M38.797-64.001c0.018,0.072,0.007,0.127-0.026,0.19c-0.053,0.101-0.112,0.063-0.165,0.128      c-0.05,0.063-0.099,0.276-0.079,0.362c-0.169,0.058-0.009,0.227-0.015,0.35c-0.002,0.05-0.041,0.105-0.045,0.161      c-0.01,0.119,0.017,0.266,0.068,0.37c0.097,0.198,0.268,0.413,0.435,0.544c0.19,0.148,0.365,0.572,0.608,0.631      c0.177,0.042,0.384-0.104,0.543-0.143c0.18-0.043,0.397,0.01,0.571-0.053c0.222-0.079,0.127-0.337,0.288-0.45      c0.104-0.074,0.287-0.01,0.406-0.051c0.2-0.069,0.339-0.263,0.376-0.46c0.016-0.082,0.01-0.145,0.039-0.221      c0.039-0.103,0.111-0.16,0.09-0.293c-0.01-0.062-0.052-0.12-0.064-0.187c-0.022-0.114,0.002-0.224,0-0.337      c-0.003-0.2,0.017-0.379-0.078-0.55c-0.38-0.688-1.236-0.929-1.975-0.789c-0.18,0.034-0.287,0.126-0.442,0.207      c-0.17,0.088-0.139,0.166-0.318,0.224c-0.081,0.026-0.216,0.124-0.215,0.224c0.001,0.115,0.005,0.051,0.012,0.169      c-0.021,0.011-0.021-0.005-0.03-0.025"/>
				<path fill="#000000" d="M31.137-64.001c0.018,0.072,0.007,0.127-0.026,0.19c-0.053,0.101-0.112,0.063-0.165,0.128      c-0.05,0.063-0.099,0.276-0.079,0.362c-0.169,0.058-0.009,0.227-0.015,0.35c-0.002,0.05-0.041,0.105-0.045,0.161      c-0.01,0.119,0.017,0.266,0.068,0.37c0.097,0.198,0.268,0.413,0.435,0.544c0.19,0.148,0.365,0.572,0.608,0.631      c0.177,0.042,0.384-0.104,0.543-0.143c0.18-0.043,0.397,0.01,0.571-0.053c0.222-0.079,0.127-0.337,0.288-0.45      c0.104-0.074,0.287-0.01,0.406-0.051c0.2-0.069,0.339-0.263,0.376-0.46c0.016-0.082,0.01-0.145,0.039-0.221      c0.039-0.103,0.111-0.16,0.09-0.293c-0.01-0.062-0.052-0.12-0.064-0.187c-0.022-0.114,0.002-0.224,0-0.337      c-0.003-0.2,0.017-0.379-0.078-0.55c-0.38-0.688-1.236-0.929-1.975-0.789c-0.18,0.034-0.287,0.126-0.442,0.207      c-0.17,0.088-0.139,0.166-0.318,0.224c-0.081,0.026-0.216,0.124-0.215,0.224c0.001,0.115,0.005,0.051,0.012,0.169      c-0.021,0.011-0.021-0.005-0.03-0.025"/>
				<path fill="#000000" d="M23.477-64.001c0.018,0.072,0.007,0.127-0.026,0.19c-0.053,0.101-0.112,0.063-0.165,0.128      c-0.05,0.063-0.099,0.276-0.079,0.362c-0.169,0.058-0.009,0.227-0.015,0.35c-0.002,0.05-0.041,0.105-0.045,0.161      c-0.01,0.119,0.017,0.266,0.068,0.37c0.097,0.198,0.268,0.413,0.435,0.544c0.19,0.148,0.365,0.572,0.608,0.631      c0.177,0.042,0.384-0.104,0.543-0.143c0.18-0.043,0.397,0.01,0.571-0.053c0.222-0.079,0.127-0.337,0.288-0.45      c0.104-0.074,0.287-0.01,0.406-0.051c0.2-0.069,0.339-0.263,0.376-0.46c0.016-0.082,0.01-0.145,0.039-0.221      c0.039-0.103,0.111-0.16,0.09-0.293c-0.01-0.062-0.052-0.12-0.064-0.187c-0.022-0.114,0.002-0.224,0-0.337      c-0.003-0.2,0.017-0.379-0.078-0.55c-0.38-0.688-1.236-0.929-1.975-0.789c-0.18,0.034-0.287,0.126-0.442,0.207      c-0.17,0.088-0.139,0.166-0.318,0.224c-0.081,0.026-0.216,0.124-0.215,0.224c0.001,0.115,0.005,0.051,0.012,0.169      c-0.021,0.011-0.021-0.005-0.03-0.025"/>
				<path fill="#000000" d="M15.816-64.001c0.018,0.072,0.007,0.127-0.026,0.19c-0.053,0.101-0.112,0.063-0.165,0.128      c-0.05,0.063-0.099,0.276-0.079,0.362c-0.169,0.058-0.009,0.227-0.015,0.35c-0.002,0.05-0.041,0.105-0.045,0.161      c-0.01,0.119,0.017,0.266,0.068,0.37c0.097,0.198,0.268,0.413,0.435,0.544c0.19,0.148,0.365,0.572,0.608,0.631      c0.177,0.042,0.384-0.104,0.543-0.143c0.18-0.043,0.397,0.01,0.571-0.053c0.222-0.079,0.127-0.337,0.288-0.45      c0.104-0.074,0.287-0.01,0.406-0.051c0.2-0.069,0.339-0.263,0.376-0.46c0.016-0.082,0.01-0.145,0.039-0.221      c0.039-0.103,0.111-0.16,0.09-0.293c-0.01-0.062-0.052-0.12-0.064-0.187c-0.022-0.114,0.002-0.224,0-0.337      c-0.003-0.2,0.017-0.379-0.078-0.55c-0.38-0.688-1.236-0.929-1.975-0.789c-0.18,0.034-0.287,0.126-0.442,0.207      c-0.17,0.088-0.139,0.166-0.318,0.224c-0.081,0.026-0.216,0.124-0.215,0.224c0.001,0.115,0.005,0.051,0.012,0.169      c-0.021,0.011-0.021-0.005-0.03-0.025"/>
				<path fill="#000000" d="M8.156-64.001c0.018,0.072,0.007,0.127-0.026,0.19c-0.053,0.101-0.112,0.063-0.165,0.128      c-0.05,0.063-0.099,0.276-0.079,0.362c-0.169,0.058-0.009,0.227-0.015,0.35c-0.002,0.05-0.041,0.105-0.045,0.161      c-0.01,0.119,0.017,0.266,0.068,0.37c0.097,0.198,0.268,0.413,0.435,0.544c0.19,0.148,0.365,0.572,0.608,0.631      c0.177,0.042,0.384-0.104,0.543-0.143c0.18-0.043,0.397,0.01,0.571-0.053c0.222-0.079,0.127-0.337,0.288-0.45      c0.104-0.074,0.287-0.01,0.406-0.051c0.2-0.069,0.339-0.263,0.376-0.46c0.016-0.082,0.01-0.145,0.039-0.221      c0.039-0.103,0.111-0.16,0.09-0.293c-0.01-0.062-0.052-0.12-0.064-0.187c-0.022-0.114,0.002-0.224,0-0.337      c-0.003-0.2,0.017-0.379-0.078-0.55c-0.38-0.688-1.236-0.929-1.975-0.789c-0.18,0.034-0.287,0.126-0.442,0.207      c-0.17,0.088-0.139,0.166-0.318,0.224c-0.081,0.026-0.216,0.124-0.215,0.224c0.001,0.115,0.005,0.051,0.012,0.169      c-0.021,0.011-0.021-0.005-0.03-0.025"/>
				<path fill="#000000" d="M0.495-64.001c0.018,0.072,0.007,0.127-0.026,0.19c-0.053,0.101-0.112,0.063-0.165,0.128      c-0.05,0.063-0.099,0.276-0.079,0.362c-0.169,0.058-0.01,0.227-0.015,0.35c-0.002,0.05-0.041,0.105-0.045,0.161      c-0.01,0.119,0.017,0.266,0.068,0.37c0.097,0.198,0.268,0.413,0.435,0.544c0.19,0.148,0.365,0.572,0.608,0.631      c0.177,0.042,0.384-0.104,0.543-0.143C2-61.45,2.217-61.397,2.391-61.46c0.222-0.079,0.127-0.337,0.288-0.45      c0.104-0.074,0.287-0.01,0.406-0.051c0.2-0.069,0.339-0.263,0.376-0.46c0.016-0.082,0.01-0.145,0.039-0.221      c0.039-0.103,0.111-0.16,0.09-0.293c-0.01-0.062-0.052-0.12-0.064-0.187c-0.022-0.114,0.002-0.224,0-0.337      c-0.003-0.2,0.017-0.379-0.078-0.55c-0.38-0.688-1.236-0.929-1.975-0.789c-0.18,0.034-0.287,0.126-0.442,0.207      c-0.17,0.088-0.139,0.166-0.318,0.224c-0.081,0.026-0.216,0.124-0.215,0.224c0.001,0.115,0.005,0.051,0.012,0.169      c-0.021,0.011-0.021-0.005-0.03-0.025"/>
			</g>
			<g>
				<path fill="#000000" d="M69.439-56.348c0.018,0.072,0.007,0.127-0.026,0.19c-0.053,0.101-0.112,0.063-0.165,0.128      c-0.05,0.063-0.099,0.276-0.079,0.362c-0.169,0.058-0.01,0.227-0.015,0.35c-0.002,0.05-0.041,0.105-0.045,0.161      c-0.01,0.119,0.017,0.266,0.068,0.37c0.097,0.198,0.268,0.413,0.435,0.544c0.19,0.148,0.365,0.572,0.608,0.631      c0.177,0.042,0.384-0.104,0.543-0.143c0.18-0.043,0.397,0.01,0.571-0.053c0.222-0.079,0.127-0.337,0.288-0.45      c0.104-0.074,0.287-0.01,0.406-0.051c0.2-0.069,0.339-0.263,0.376-0.46c0.016-0.082,0.01-0.145,0.039-0.221      c0.039-0.103,0.111-0.16,0.09-0.293c-0.01-0.062-0.052-0.12-0.064-0.187c-0.022-0.114,0.002-0.224,0-0.337      c-0.003-0.2,0.017-0.379-0.078-0.55c-0.38-0.688-1.236-0.929-1.975-0.789c-0.18,0.034-0.287,0.126-0.442,0.207      c-0.17,0.088-0.139,0.166-0.318,0.224c-0.081,0.026-0.216,0.124-0.215,0.224c0.001,0.115,0.005,0.051,0.012,0.169      c-0.021,0.011-0.021-0.005-0.03-0.025"/>
				<path fill="#000000" d="M61.778-56.348c0.018,0.072,0.007,0.127-0.026,0.19c-0.053,0.101-0.112,0.063-0.165,0.128      c-0.05,0.063-0.099,0.276-0.079,0.362c-0.169,0.058-0.009,0.227-0.015,0.35c-0.002,0.05-0.041,0.105-0.045,0.161      c-0.01,0.119,0.017,0.266,0.068,0.37c0.097,0.198,0.268,0.413,0.435,0.544c0.19,0.148,0.365,0.572,0.608,0.631      c0.177,0.042,0.384-0.104,0.543-0.143c0.18-0.043,0.397,0.01,0.571-0.053c0.222-0.079,0.127-0.337,0.288-0.45      c0.104-0.074,0.287-0.01,0.406-0.051c0.2-0.069,0.339-0.263,0.376-0.46c0.016-0.082,0.01-0.145,0.039-0.221      c0.039-0.103,0.111-0.16,0.09-0.293c-0.01-0.062-0.052-0.12-0.064-0.187c-0.022-0.114,0.002-0.224,0-0.337      c-0.003-0.2,0.017-0.379-0.078-0.55c-0.38-0.688-1.236-0.929-1.975-0.789c-0.18,0.034-0.287,0.126-0.442,0.207      c-0.17,0.088-0.139,0.166-0.318,0.224c-0.081,0.026-0.216,0.124-0.215,0.224c0.001,0.115,0.005,0.051,0.012,0.169      c-0.021,0.011-0.021-0.005-0.03-0.025"/>
				<path fill="#000000" d="M54.118-56.348c0.018,0.072,0.007,0.127-0.026,0.19c-0.053,0.101-0.112,0.063-0.165,0.128      c-0.05,0.063-0.099,0.276-0.079,0.362c-0.169,0.058-0.009,0.227-0.015,0.35c-0.002,0.05-0.041,0.105-0.045,0.161      c-0.01,0.119,0.017,0.266,0.068,0.37c0.097,0.198,0.268,0.413,0.435,0.544c0.19,0.148,0.365,0.572,0.608,0.631      c0.177,0.042,0.384-0.104,0.543-0.143c0.18-0.043,0.397,0.01,0.571-0.053c0.222-0.079,0.127-0.337,0.288-0.45      c0.104-0.074,0.287-0.01,0.406-0.051c0.2-0.069,0.339-0.263,0.376-0.46c0.016-0.082,0.01-0.145,0.039-0.221      c0.039-0.103,0.111-0.16,0.09-0.293c-0.01-0.062-0.052-0.12-0.064-0.187c-0.022-0.114,0.002-0.224,0-0.337      c-0.003-0.2,0.017-0.379-0.078-0.55c-0.38-0.688-1.236-0.929-1.975-0.789c-0.18,0.034-0.287,0.126-0.442,0.207      c-0.17,0.088-0.139,0.166-0.318,0.224c-0.081,0.026-0.216,0.124-0.215,0.224c0.001,0.115,0.005,0.051,0.012,0.169      c-0.021,0.011-0.021-0.005-0.03-0.025"/>
				<path fill="#000000" d="M46.458-56.348c0.018,0.072,0.007,0.127-0.026,0.19c-0.053,0.101-0.112,0.063-0.165,0.128      c-0.05,0.063-0.099,0.276-0.079,0.362c-0.169,0.058-0.009,0.227-0.015,0.35c-0.002,0.05-0.041,0.105-0.045,0.161      c-0.01,0.119,0.017,0.266,0.068,0.37c0.097,0.198,0.268,0.413,0.435,0.544c0.19,0.148,0.365,0.572,0.608,0.631      c0.177,0.042,0.384-0.104,0.543-0.143c0.18-0.043,0.397,0.01,0.571-0.053c0.222-0.079,0.127-0.337,0.288-0.45      c0.104-0.074,0.287-0.01,0.406-0.051c0.2-0.069,0.339-0.263,0.376-0.46c0.016-0.082,0.01-0.145,0.039-0.221      c0.039-0.103,0.111-0.16,0.09-0.293c-0.01-0.062-0.052-0.12-0.064-0.187c-0.022-0.114,0.002-0.224,0-0.337      c-0.003-0.2,0.017-0.379-0.078-0.55c-0.38-0.688-1.236-0.929-1.975-0.789c-0.18,0.034-0.287,0.126-0.442,0.207      c-0.17,0.088-0.139,0.166-0.318,0.224c-0.081,0.026-0.216,0.124-0.215,0.224c0.001,0.115,0.005,0.051,0.012,0.169      c-0.021,0.011-0.021-0.005-0.03-0.025"/>
				<path fill="#000000" d="M38.797-56.348c0.018,0.072,0.007,0.127-0.026,0.19c-0.053,0.101-0.112,0.063-0.165,0.128      c-0.05,0.063-0.099,0.276-0.079,0.362c-0.169,0.058-0.009,0.227-0.015,0.35c-0.002,0.05-0.041,0.105-0.045,0.161      c-0.01,0.119,0.017,0.266,0.068,0.37c0.097,0.198,0.268,0.413,0.435,0.544c0.19,0.148,0.365,0.572,0.608,0.631      c0.177,0.042,0.384-0.104,0.543-0.143c0.18-0.043,0.397,0.01,0.571-0.053c0.222-0.079,0.127-0.337,0.288-0.45      c0.104-0.074,0.287-0.01,0.406-0.051c0.2-0.069,0.339-0.263,0.376-0.46c0.016-0.082,0.01-0.145,0.039-0.221      c0.039-0.103,0.111-0.16,0.09-0.293c-0.01-0.062-0.052-0.12-0.064-0.187c-0.022-0.114,0.002-0.224,0-0.337      c-0.003-0.2,0.017-0.379-0.078-0.55c-0.38-0.688-1.236-0.929-1.975-0.789c-0.18,0.034-0.287,0.126-0.442,0.207      c-0.17,0.088-0.139,0.166-0.318,0.224c-0.081,0.026-0.216,0.124-0.215,0.224c0.001,0.115,0.005,0.051,0.012,0.169      c-0.021,0.011-0.021-0.005-0.03-0.025"/>
				<path fill="#000000" d="M31.137-56.348c0.018,0.072,0.007,0.127-0.026,0.19c-0.053,0.101-0.112,0.063-0.165,0.128      c-0.05,0.063-0.099,0.276-0.079,0.362c-0.169,0.058-0.009,0.227-0.015,0.35c-0.002,0.05-0.041,0.105-0.045,0.161      c-0.01,0.119,0.017,0.266,0.068,0.37c0.097,0.198,0.268,0.413,0.435,0.544c0.19,0.148,0.365,0.572,0.608,0.631      c0.177,0.042,0.384-0.104,0.543-0.143c0.18-0.043,0.397,0.01,0.571-0.053c0.222-0.079,0.127-0.337,0.288-0.45      c0.104-0.074,0.287-0.01,0.406-0.051c0.2-0.069,0.339-0.263,0.376-0.46c0.016-0.082,0.01-0.145,0.039-0.221      c0.039-0.103,0.111-0.16,0.09-0.293c-0.01-0.062-0.052-0.12-0.064-0.187c-0.022-0.114,0.002-0.224,0-0.337      c-0.003-0.2,0.017-0.379-0.078-0.55c-0.38-0.688-1.236-0.929-1.975-0.789c-0.18,0.034-0.287,0.126-0.442,0.207      c-0.17,0.088-0.139,0.166-0.318,0.224c-0.081,0.026-0.216,0.124-0.215,0.224c0.001,0.115,0.005,0.051,0.012,0.169      c-0.021,0.011-0.021-0.005-0.03-0.025"/>
				<path fill="#000000" d="M23.477-56.348c0.018,0.072,0.007,0.127-0.026,0.19c-0.053,0.101-0.112,0.063-0.165,0.128      c-0.05,0.063-0.099,0.276-0.079,0.362c-0.169,0.058-0.009,0.227-0.015,0.35c-0.002,0.05-0.041,0.105-0.045,0.161      c-0.01,0.119,0.017,0.266,0.068,0.37c0.097,0.198,0.268,0.413,0.435,0.544c0.19,0.148,0.365,0.572,0.608,0.631      c0.177,0.042,0.384-0.104,0.543-0.143c0.18-0.043,0.397,0.01,0.571-0.053c0.222-0.079,0.127-0.337,0.288-0.45      c0.104-0.074,0.287-0.01,0.406-0.051c0.2-0.069,0.339-0.263,0.376-0.46c0.016-0.082,0.01-0.145,0.039-0.221      c0.039-0.103,0.111-0.16,0.09-0.293c-0.01-0.062-0.052-0.12-0.064-0.187c-0.022-0.114,0.002-0.224,0-0.337      c-0.003-0.2,0.017-0.379-0.078-0.55c-0.38-0.688-1.236-0.929-1.975-0.789c-0.18,0.034-0.287,0.126-0.442,0.207      c-0.17,0.088-0.139,0.166-0.318,0.224c-0.081,0.026-0.216,0.124-0.215,0.224c0.001,0.115,0.005,0.051,0.012,0.169      c-0.021,0.011-0.021-0.005-0.03-0.025"/>
				<path fill="#000000" d="M15.816-56.348c0.018,0.072,0.007,0.127-0.026,0.19c-0.053,0.101-0.112,0.063-0.165,0.128      c-0.05,0.063-0.099,0.276-0.079,0.362c-0.169,0.058-0.009,0.227-0.015,0.35c-0.002,0.05-0.041,0.105-0.045,0.161      c-0.01,0.119,0.017,0.266,0.068,0.37c0.097,0.198,0.268,0.413,0.435,0.544c0.19,0.148,0.365,0.572,0.608,0.631      c0.177,0.042,0.384-0.104,0.543-0.143c0.18-0.043,0.397,0.01,0.571-0.053c0.222-0.079,0.127-0.337,0.288-0.45      c0.104-0.074,0.287-0.01,0.406-0.051c0.2-0.069,0.339-0.263,0.376-0.46c0.016-0.082,0.01-0.145,0.039-0.221      c0.039-0.103,0.111-0.16,0.09-0.293c-0.01-0.062-0.052-0.12-0.064-0.187c-0.022-0.114,0.002-0.224,0-0.337      c-0.003-0.2,0.017-0.379-0.078-0.55c-0.38-0.688-1.236-0.929-1.975-0.789c-0.18,0.034-0.287,0.126-0.442,0.207      c-0.17,0.088-0.139,0.166-0.318,0.224c-0.081,0.026-0.216,0.124-0.215,0.224c0.001,0.115,0.005,0.051,0.012,0.169      c-0.021,0.011-0.021-0.005-0.03-0.025"/>
				<path fill="#000000" d="M8.156-56.348c0.018,0.072,0.007,0.127-0.026,0.19c-0.053,0.101-0.112,0.063-0.165,0.128      c-0.05,0.063-0.099,0.276-0.079,0.362c-0.169,0.058-0.009,0.227-0.015,0.35c-0.002,0.05-0.041,0.105-0.045,0.161      c-0.01,0.119,0.017,0.266,0.068,0.37c0.097,0.198,0.268,0.413,0.435,0.544c0.19,0.148,0.365,0.572,0.608,0.631      c0.177,0.042,0.384-0.104,0.543-0.143c0.18-0.043,0.397,0.01,0.571-0.053c0.222-0.079,0.127-0.337,0.288-0.45      c0.104-0.074,0.287-0.01,0.406-0.051c0.2-0.069,0.339-0.263,0.376-0.46c0.016-0.082,0.01-0.145,0.039-0.221      c0.039-0.103,0.111-0.16,0.09-0.293c-0.01-0.062-0.052-0.12-0.064-0.187c-0.022-0.114,0.002-0.224,0-0.337      c-0.003-0.2,0.017-0.379-0.078-0.55c-0.38-0.688-1.236-0.929-1.975-0.789c-0.18,0.034-0.287,0.126-0.442,0.207      c-0.17,0.088-0.139,0.166-0.318,0.224c-0.081,0.026-0.216,0.124-0.215,0.224c0.001,0.115,0.005,0.051,0.012,0.169      c-0.021,0.011-0.021-0.005-0.03-0.025"/>
				<path fill="#000000" d="M0.495-56.348c0.018,0.072,0.007,0.127-0.026,0.19c-0.053,0.101-0.112,0.063-0.165,0.128      c-0.05,0.063-0.099,0.276-0.079,0.362c-0.169,0.058-0.01,0.227-0.015,0.35c-0.002,0.05-0.041,0.105-0.045,0.161      c-0.01,0.119,0.017,0.266,0.068,0.37c0.097,0.198,0.268,0.413,0.435,0.544c0.19,0.148,0.365,0.572,0.608,0.631      c0.177,0.042,0.384-0.104,0.543-0.143c0.18-0.043,0.397,0.01,0.571-0.053c0.222-0.079,0.127-0.337,0.288-0.45      c0.104-0.074,0.287-0.01,0.406-0.051c0.2-0.069,0.339-0.263,0.376-0.46c0.016-0.082,0.01-0.145,0.039-0.221      c0.039-0.103,0.111-0.16,0.09-0.293c-0.01-0.062-0.052-0.12-0.064-0.187c-0.022-0.114,0.002-0.224,0-0.337      c-0.003-0.2,0.017-0.379-0.078-0.55c-0.38-0.688-1.236-0.929-1.975-0.789c-0.18,0.034-0.287,0.126-0.442,0.207      c-0.17,0.088-0.139,0.166-0.318,0.224c-0.081,0.026-0.216,0.124-0.215,0.224C0.5-56.374,0.503-56.438,0.51-56.32      c-0.021,0.011-0.021-0.005-0.03-0.025"/>
			</g>
			<g>
				<path fill="#000000" d="M69.439-48.695c0.018,0.072,0.007,0.127-0.026,0.19c-0.053,0.101-0.112,0.063-0.165,0.128      c-0.05,0.063-0.099,0.276-0.079,0.362c-0.169,0.058-0.01,0.227-0.015,0.35c-0.002,0.05-0.041,0.105-0.045,0.161      c-0.01,0.119,0.017,0.266,0.068,0.37c0.097,0.198,0.268,0.413,0.435,0.544c0.19,0.148,0.365,0.572,0.608,0.631      c0.177,0.042,0.384-0.104,0.543-0.143c0.18-0.043,0.397,0.01,0.571-0.053c0.222-0.079,0.127-0.337,0.288-0.45      c0.104-0.074,0.287-0.01,0.406-0.051c0.2-0.069,0.339-0.263,0.376-0.46c0.016-0.082,0.01-0.145,0.039-0.221      c0.039-0.103,0.111-0.16,0.09-0.293c-0.01-0.062-0.052-0.12-0.064-0.187c-0.022-0.114,0.002-0.224,0-0.337      c-0.003-0.2,0.017-0.379-0.078-0.55c-0.38-0.688-1.236-0.929-1.975-0.789c-0.18,0.034-0.287,0.126-0.442,0.207      c-0.17,0.088-0.139,0.166-0.318,0.224c-0.081,0.026-0.216,0.124-0.215,0.224c0.001,0.115,0.005,0.051,0.012,0.169      c-0.021,0.011-0.021-0.005-0.03-0.025"/>
				<path fill="#000000" d="M61.778-48.695c0.018,0.072,0.007,0.127-0.026,0.19c-0.053,0.101-0.112,0.063-0.165,0.128      c-0.05,0.063-0.099,0.276-0.079,0.362c-0.169,0.058-0.009,0.227-0.015,0.35c-0.002,0.05-0.041,0.105-0.045,0.161      c-0.01,0.119,0.017,0.266,0.068,0.37c0.097,0.198,0.268,0.413,0.435,0.544c0.19,0.148,0.365,0.572,0.608,0.631      c0.177,0.042,0.384-0.104,0.543-0.143c0.18-0.043,0.397,0.01,0.571-0.053c0.222-0.079,0.127-0.337,0.288-0.45      c0.104-0.074,0.287-0.01,0.406-0.051c0.2-0.069,0.339-0.263,0.376-0.46c0.016-0.082,0.01-0.145,0.039-0.221      c0.039-0.103,0.111-0.16,0.09-0.293c-0.01-0.062-0.052-0.12-0.064-0.187c-0.022-0.114,0.002-0.224,0-0.337      c-0.003-0.2,0.017-0.379-0.078-0.55c-0.38-0.688-1.236-0.929-1.975-0.789c-0.18,0.034-0.287,0.126-0.442,0.207      c-0.17,0.088-0.139,0.166-0.318,0.224c-0.081,0.026-0.216,0.124-0.215,0.224c0.001,0.115,0.005,0.051,0.012,0.169      c-0.021,0.011-0.021-0.005-0.03-0.025"/>
				<path fill="#000000" d="M54.118-48.695c0.018,0.072,0.007,0.127-0.026,0.19c-0.053,0.101-0.112,0.063-0.165,0.128      c-0.05,0.063-0.099,0.276-0.079,0.362c-0.169,0.058-0.009,0.227-0.015,0.35c-0.002,0.05-0.041,0.105-0.045,0.161      c-0.01,0.119,0.017,0.266,0.068,0.37c0.097,0.198,0.268,0.413,0.435,0.544c0.19,0.148,0.365,0.572,0.608,0.631      c0.177,0.042,0.384-0.104,0.543-0.143c0.18-0.043,0.397,0.01,0.571-0.053c0.222-0.079,0.127-0.337,0.288-0.45      c0.104-0.074,0.287-0.01,0.406-0.051c0.2-0.069,0.339-0.263,0.376-0.46c0.016-0.082,0.01-0.145,0.039-0.221      c0.039-0.103,0.111-0.16,0.09-0.293c-0.01-0.062-0.052-0.12-0.064-0.187c-0.022-0.114,0.002-0.224,0-0.337      c-0.003-0.2,0.017-0.379-0.078-0.55c-0.38-0.688-1.236-0.929-1.975-0.789c-0.18,0.034-0.287,0.126-0.442,0.207      c-0.17,0.088-0.139,0.166-0.318,0.224c-0.081,0.026-0.216,0.124-0.215,0.224c0.001,0.115,0.005,0.051,0.012,0.169      c-0.021,0.011-0.021-0.005-0.03-0.025"/>
				<path fill="#000000" d="M46.458-48.695c0.018,0.072,0.007,0.127-0.026,0.19c-0.053,0.101-0.112,0.063-0.165,0.128      c-0.05,0.063-0.099,0.276-0.079,0.362c-0.169,0.058-0.009,0.227-0.015,0.35c-0.002,0.05-0.041,0.105-0.045,0.161      c-0.01,0.119,0.017,0.266,0.068,0.37c0.097,0.198,0.268,0.413,0.435,0.544c0.19,0.148,0.365,0.572,0.608,0.631      c0.177,0.042,0.384-0.104,0.543-0.143c0.18-0.043,0.397,0.01,0.571-0.053c0.222-0.079,0.127-0.337,0.288-0.45      c0.104-0.074,0.287-0.01,0.406-0.051c0.2-0.069,0.339-0.263,0.376-0.46c0.016-0.082,0.01-0.145,0.039-0.221      c0.039-0.103,0.111-0.16,0.09-0.293c-0.01-0.062-0.052-0.12-0.064-0.187c-0.022-0.114,0.002-0.224,0-0.337      c-0.003-0.2,0.017-0.379-0.078-0.55c-0.38-0.688-1.236-0.929-1.975-0.789c-0.18,0.034-0.287,0.126-0.442,0.207      c-0.17,0.088-0.139,0.166-0.318,0.224c-0.081,0.026-0.216,0.124-0.215,0.224c0.001,0.115,0.005,0.051,0.012,0.169      c-0.021,0.011-0.021-0.005-0.03-0.025"/>
				<path fill="#000000" d="M38.797-48.695c0.018,0.072,0.007,0.127-0.026,0.19c-0.053,0.101-0.112,0.063-0.165,0.128      c-0.05,0.063-0.099,0.276-0.079,0.362c-0.169,0.058-0.009,0.227-0.015,0.35c-0.002,0.05-0.041,0.105-0.045,0.161      c-0.01,0.119,0.017,0.266,0.068,0.37c0.097,0.198,0.268,0.413,0.435,0.544c0.19,0.148,0.365,0.572,0.608,0.631      c0.177,0.042,0.384-0.104,0.543-0.143c0.18-0.043,0.397,0.01,0.571-0.053c0.222-0.079,0.127-0.337,0.288-0.45      c0.104-0.074,0.287-0.01,0.406-0.051c0.2-0.069,0.339-0.263,0.376-0.46c0.016-0.082,0.01-0.145,0.039-0.221      c0.039-0.103,0.111-0.16,0.09-0.293c-0.01-0.062-0.052-0.12-0.064-0.187c-0.022-0.114,0.002-0.224,0-0.337      c-0.003-0.2,0.017-0.379-0.078-0.55c-0.38-0.688-1.236-0.929-1.975-0.789c-0.18,0.034-0.287,0.126-0.442,0.207      c-0.17,0.088-0.139,0.166-0.318,0.224c-0.081,0.026-0.216,0.124-0.215,0.224c0.001,0.115,0.005,0.051,0.012,0.169      c-0.021,0.011-0.021-0.005-0.03-0.025"/>
				<path fill="#000000" d="M31.137-48.695c0.018,0.072,0.007,0.127-0.026,0.19c-0.053,0.101-0.112,0.063-0.165,0.128      c-0.05,0.063-0.099,0.276-0.079,0.362c-0.169,0.058-0.009,0.227-0.015,0.35c-0.002,0.05-0.041,0.105-0.045,0.161      c-0.01,0.119,0.017,0.266,0.068,0.37c0.097,0.198,0.268,0.413,0.435,0.544c0.19,0.148,0.365,0.572,0.608,0.631      c0.177,0.042,0.384-0.104,0.543-0.143c0.18-0.043,0.397,0.01,0.571-0.053c0.222-0.079,0.127-0.337,0.288-0.45      c0.104-0.074,0.287-0.01,0.406-0.051c0.2-0.069,0.339-0.263,0.376-0.46c0.016-0.082,0.01-0.145,0.039-0.221      c0.039-0.103,0.111-0.16,0.09-0.293c-0.01-0.062-0.052-0.12-0.064-0.187c-0.022-0.114,0.002-0.224,0-0.337      c-0.003-0.2,0.017-0.379-0.078-0.55c-0.38-0.688-1.236-0.929-1.975-0.789c-0.18,0.034-0.287,0.126-0.442,0.207      c-0.17,0.088-0.139,0.166-0.318,0.224c-0.081,0.026-0.216,0.124-0.215,0.224c0.001,0.115,0.005,0.051,0.012,0.169      c-0.021,0.011-0.021-0.005-0.03-0.025"/>
				<path fill="#000000" d="M23.477-48.695c0.018,0.072,0.007,0.127-0.026,0.19c-0.053,0.101-0.112,0.063-0.165,0.128      c-0.05,0.063-0.099,0.276-0.079,0.362c-0.169,0.058-0.009,0.227-0.015,0.35c-0.002,0.05-0.041,0.105-0.045,0.161      c-0.01,0.119,0.017,0.266,0.068,0.37c0.097,0.198,0.268,0.413,0.435,0.544c0.19,0.148,0.365,0.572,0.608,0.631      c0.177,0.042,0.384-0.104,0.543-0.143c0.18-0.043,0.397,0.01,0.571-0.053c0.222-0.079,0.127-0.337,0.288-0.45      c0.104-0.074,0.287-0.01,0.406-0.051c0.2-0.069,0.339-0.263,0.376-0.46c0.016-0.082,0.01-0.145,0.039-0.221      c0.039-0.103,0.111-0.16,0.09-0.293c-0.01-0.062-0.052-0.12-0.064-0.187c-0.022-0.114,0.002-0.224,0-0.337      c-0.003-0.2,0.017-0.379-0.078-0.55c-0.38-0.688-1.236-0.929-1.975-0.789c-0.18,0.034-0.287,0.126-0.442,0.207      c-0.17,0.088-0.139,0.166-0.318,0.224c-0.081,0.026-0.216,0.124-0.215,0.224c0.001,0.115,0.005,0.051,0.012,0.169      c-0.021,0.011-0.021-0.005-0.03-0.025"/>
				<path fill="#000000" d="M15.816-48.695c0.018,0.072,0.007,0.127-0.026,0.19c-0.053,0.101-0.112,0.063-0.165,0.128      c-0.05,0.063-0.099,0.276-0.079,0.362c-0.169,0.058-0.009,0.227-0.015,0.35c-0.002,0.05-0.041,0.105-0.045,0.161      c-0.01,0.119,0.017,0.266,0.068,0.37c0.097,0.198,0.268,0.413,0.435,0.544c0.19,0.148,0.365,0.572,0.608,0.631      c0.177,0.042,0.384-0.104,0.543-0.143c0.18-0.043,0.397,0.01,0.571-0.053c0.222-0.079,0.127-0.337,0.288-0.45      c0.104-0.074,0.287-0.01,0.406-0.051c0.2-0.069,0.339-0.263,0.376-0.46c0.016-0.082,0.01-0.145,0.039-0.221      c0.039-0.103,0.111-0.16,0.09-0.293c-0.01-0.062-0.052-0.12-0.064-0.187c-0.022-0.114,0.002-0.224,0-0.337      c-0.003-0.2,0.017-0.379-0.078-0.55c-0.38-0.688-1.236-0.929-1.975-0.789c-0.18,0.034-0.287,0.126-0.442,0.207      c-0.17,0.088-0.139,0.166-0.318,0.224c-0.081,0.026-0.216,0.124-0.215,0.224c0.001,0.115,0.005,0.051,0.012,0.169      c-0.021,0.011-0.021-0.005-0.03-0.025"/>
				<path fill="#000000" d="M8.156-48.695c0.018,0.072,0.007,0.127-0.026,0.19c-0.053,0.101-0.112,0.063-0.165,0.128      c-0.05,0.063-0.099,0.276-0.079,0.362c-0.169,0.058-0.009,0.227-0.015,0.35c-0.002,0.05-0.041,0.105-0.045,0.161      c-0.01,0.119,0.017,0.266,0.068,0.37c0.097,0.198,0.268,0.413,0.435,0.544c0.19,0.148,0.365,0.572,0.608,0.631      c0.177,0.042,0.384-0.104,0.543-0.143c0.18-0.043,0.397,0.01,0.571-0.053c0.222-0.079,0.127-0.337,0.288-0.45      c0.104-0.074,0.287-0.01,0.406-0.051c0.2-0.069,0.339-0.263,0.376-0.46c0.016-0.082,0.01-0.145,0.039-0.221      c0.039-0.103,0.111-0.16,0.09-0.293c-0.01-0.062-0.052-0.12-0.064-0.187c-0.022-0.114,0.002-0.224,0-0.337      c-0.003-0.2,0.017-0.379-0.078-0.55c-0.38-0.688-1.236-0.929-1.975-0.789c-0.18,0.034-0.287,0.126-0.442,0.207      c-0.17,0.088-0.139,0.166-0.318,0.224c-0.081,0.026-0.216,0.124-0.215,0.224c0.001,0.115,0.005,0.051,0.012,0.169      c-0.021,0.011-0.021-0.005-0.03-0.025"/>
				<path fill="#000000" d="M0.495-48.695c0.018,0.072,0.007,0.127-0.026,0.19c-0.053,0.101-0.112,0.063-0.165,0.128      c-0.05,0.063-0.099,0.276-0.079,0.362c-0.169,0.058-0.01,0.227-0.015,0.35c-0.002,0.05-0.041,0.105-0.045,0.161      c-0.01,0.119,0.017,0.266,0.068,0.37c0.097,0.198,0.268,0.413,0.435,0.544c0.19,0.148,0.365,0.572,0.608,0.631      c0.177,0.042,0.384-0.104,0.543-0.143c0.18-0.043,0.397,0.01,0.571-0.053c0.222-0.079,0.127-0.337,0.288-0.45      c0.104-0.074,0.287-0.01,0.406-0.051c0.2-0.069,0.339-0.263,0.376-0.46c0.016-0.082,0.01-0.145,0.039-0.221      c0.039-0.103,0.111-0.16,0.09-0.293c-0.01-0.062-0.052-0.12-0.064-0.187c-0.022-0.114,0.002-0.224,0-0.337      c-0.003-0.2,0.017-0.379-0.078-0.55c-0.38-0.688-1.236-0.929-1.975-0.789c-0.18,0.034-0.287,0.126-0.442,0.207      c-0.17,0.088-0.139,0.166-0.318,0.224c-0.081,0.026-0.216,0.124-0.215,0.224c0.001,0.115,0.005,0.051,0.012,0.169      c-0.021,0.011-0.021-0.005-0.03-0.025"/>
			</g>
			<g>
				<path fill="#000000" d="M69.439-41.042c0.018,0.072,0.007,0.127-0.026,0.19c-0.053,0.101-0.112,0.063-0.165,0.128      c-0.05,0.063-0.099,0.276-0.079,0.362c-0.169,0.058-0.01,0.227-0.015,0.35c-0.002,0.05-0.041,0.105-0.045,0.161      c-0.01,0.119,0.017,0.266,0.068,0.37c0.097,0.198,0.268,0.413,0.435,0.544c0.19,0.148,0.365,0.572,0.608,0.631      c0.177,0.042,0.384-0.104,0.543-0.143c0.18-0.043,0.397,0.01,0.571-0.053c0.222-0.079,0.127-0.337,0.288-0.45      c0.104-0.074,0.287-0.01,0.406-0.051c0.2-0.069,0.339-0.263,0.376-0.46c0.016-0.082,0.01-0.145,0.039-0.221      c0.039-0.103,0.111-0.16,0.09-0.293c-0.01-0.062-0.052-0.12-0.064-0.187c-0.022-0.114,0.002-0.224,0-0.337      c-0.003-0.2,0.017-0.379-0.078-0.55c-0.38-0.688-1.236-0.929-1.975-0.789c-0.18,0.034-0.287,0.126-0.442,0.207      c-0.17,0.088-0.139,0.166-0.318,0.224c-0.081,0.026-0.216,0.124-0.215,0.224c0.001,0.115,0.005,0.051,0.012,0.169      c-0.021,0.011-0.021-0.005-0.03-0.025"/>
				<path fill="#000000" d="M61.778-41.042c0.018,0.072,0.007,0.127-0.026,0.19c-0.053,0.101-0.112,0.063-0.165,0.128      c-0.05,0.063-0.099,0.276-0.079,0.362c-0.169,0.058-0.009,0.227-0.015,0.35c-0.002,0.05-0.041,0.105-0.045,0.161      c-0.01,0.119,0.017,0.266,0.068,0.37c0.097,0.198,0.268,0.413,0.435,0.544c0.19,0.148,0.365,0.572,0.608,0.631      c0.177,0.042,0.384-0.104,0.543-0.143c0.18-0.043,0.397,0.01,0.571-0.053c0.222-0.079,0.127-0.337,0.288-0.45      c0.104-0.074,0.287-0.01,0.406-0.051c0.2-0.069,0.339-0.263,0.376-0.46c0.016-0.082,0.01-0.145,0.039-0.221      c0.039-0.103,0.111-0.16,0.09-0.293c-0.01-0.062-0.052-0.12-0.064-0.187c-0.022-0.114,0.002-0.224,0-0.337      c-0.003-0.2,0.017-0.379-0.078-0.55c-0.38-0.688-1.236-0.929-1.975-0.789c-0.18,0.034-0.287,0.126-0.442,0.207      c-0.17,0.088-0.139,0.166-0.318,0.224c-0.081,0.026-0.216,0.124-0.215,0.224c0.001,0.115,0.005,0.051,0.012,0.169      c-0.021,0.011-0.021-0.005-0.03-0.025"/>
				<path fill="#000000" d="M54.118-41.042c0.018,0.072,0.007,0.127-0.026,0.19c-0.053,0.101-0.112,0.063-0.165,0.128      c-0.05,0.063-0.099,0.276-0.079,0.362c-0.169,0.058-0.009,0.227-0.015,0.35c-0.002,0.05-0.041,0.105-0.045,0.161      c-0.01,0.119,0.017,0.266,0.068,0.37c0.097,0.198,0.268,0.413,0.435,0.544c0.19,0.148,0.365,0.572,0.608,0.631      c0.177,0.042,0.384-0.104,0.543-0.143c0.18-0.043,0.397,0.01,0.571-0.053c0.222-0.079,0.127-0.337,0.288-0.45      c0.104-0.074,0.287-0.01,0.406-0.051c0.2-0.069,0.339-0.263,0.376-0.46c0.016-0.082,0.01-0.145,0.039-0.221      c0.039-0.103,0.111-0.16,0.09-0.293c-0.01-0.062-0.052-0.12-0.064-0.187c-0.022-0.114,0.002-0.224,0-0.337      c-0.003-0.2,0.017-0.379-0.078-0.55c-0.38-0.688-1.236-0.929-1.975-0.789c-0.18,0.034-0.287,0.126-0.442,0.207      c-0.17,0.088-0.139,0.166-0.318,0.224c-0.081,0.026-0.216,0.124-0.215,0.224c0.001,0.115,0.005,0.051,0.012,0.169      c-0.021,0.011-0.021-0.005-0.03-0.025"/>
				<path fill="#000000" d="M46.458-41.042c0.018,0.072,0.007,0.127-0.026,0.19c-0.053,0.101-0.112,0.063-0.165,0.128      c-0.05,0.063-0.099,0.276-0.079,0.362c-0.169,0.058-0.009,0.227-0.015,0.35c-0.002,0.05-0.041,0.105-0.045,0.161      c-0.01,0.119,0.017,0.266,0.068,0.37c0.097,0.198,0.268,0.413,0.435,0.544c0.19,0.148,0.365,0.572,0.608,0.631      c0.177,0.042,0.384-0.104,0.543-0.143c0.18-0.043,0.397,0.01,0.571-0.053c0.222-0.079,0.127-0.337,0.288-0.45      c0.104-0.074,0.287-0.01,0.406-0.051c0.2-0.069,0.339-0.263,0.376-0.46c0.016-0.082,0.01-0.145,0.039-0.221      c0.039-0.103,0.111-0.16,0.09-0.293c-0.01-0.062-0.052-0.12-0.064-0.187c-0.022-0.114,0.002-0.224,0-0.337      c-0.003-0.2,0.017-0.379-0.078-0.55c-0.38-0.688-1.236-0.929-1.975-0.789c-0.18,0.034-0.287,0.126-0.442,0.207      c-0.17,0.088-0.139,0.166-0.318,0.224c-0.081,0.026-0.216,0.124-0.215,0.224c0.001,0.115,0.005,0.051,0.012,0.169      c-0.021,0.011-0.021-0.005-0.03-0.025"/>
				<path fill="#000000" d="M38.797-41.042c0.018,0.072,0.007,0.127-0.026,0.19c-0.053,0.101-0.112,0.063-0.165,0.128      c-0.05,0.063-0.099,0.276-0.079,0.362c-0.169,0.058-0.009,0.227-0.015,0.35c-0.002,0.05-0.041,0.105-0.045,0.161      c-0.01,0.119,0.017,0.266,0.068,0.37c0.097,0.198,0.268,0.413,0.435,0.544c0.19,0.148,0.365,0.572,0.608,0.631      c0.177,0.042,0.384-0.104,0.543-0.143c0.18-0.043,0.397,0.01,0.571-0.053c0.222-0.079,0.127-0.337,0.288-0.45      c0.104-0.074,0.287-0.01,0.406-0.051c0.2-0.069,0.339-0.263,0.376-0.46c0.016-0.082,0.01-0.145,0.039-0.221      c0.039-0.103,0.111-0.16,0.09-0.293c-0.01-0.062-0.052-0.12-0.064-0.187c-0.022-0.114,0.002-0.224,0-0.337      c-0.003-0.2,0.017-0.379-0.078-0.55c-0.38-0.688-1.236-0.929-1.975-0.789c-0.18,0.034-0.287,0.126-0.442,0.207      c-0.17,0.088-0.139,0.166-0.318,0.224c-0.081,0.026-0.216,0.124-0.215,0.224c0.001,0.115,0.005,0.051,0.012,0.169      c-0.021,0.011-0.021-0.005-0.03-0.025"/>
				<path fill="#000000" d="M31.137-41.042c0.018,0.072,0.007,0.127-0.026,0.19c-0.053,0.101-0.112,0.063-0.165,0.128      c-0.05,0.063-0.099,0.276-0.079,0.362c-0.169,0.058-0.009,0.227-0.015,0.35c-0.002,0.05-0.041,0.105-0.045,0.161      c-0.01,0.119,0.017,0.266,0.068,0.37c0.097,0.198,0.268,0.413,0.435,0.544c0.19,0.148,0.365,0.572,0.608,0.631      c0.177,0.042,0.384-0.104,0.543-0.143c0.18-0.043,0.397,0.01,0.571-0.053c0.222-0.079,0.127-0.337,0.288-0.45      c0.104-0.074,0.287-0.01,0.406-0.051c0.2-0.069,0.339-0.263,0.376-0.46c0.016-0.082,0.01-0.145,0.039-0.221      c0.039-0.103,0.111-0.16,0.09-0.293c-0.01-0.062-0.052-0.12-0.064-0.187c-0.022-0.114,0.002-0.224,0-0.337      c-0.003-0.2,0.017-0.379-0.078-0.55c-0.38-0.688-1.236-0.929-1.975-0.789c-0.18,0.034-0.287,0.126-0.442,0.207      c-0.17,0.088-0.139,0.166-0.318,0.224c-0.081,0.026-0.216,0.124-0.215,0.224c0.001,0.115,0.005,0.051,0.012,0.169      c-0.021,0.011-0.021-0.005-0.03-0.025"/>
				<path fill="#000000" d="M23.477-41.042c0.018,0.072,0.007,0.127-0.026,0.19c-0.053,0.101-0.112,0.063-0.165,0.128      c-0.05,0.063-0.099,0.276-0.079,0.362c-0.169,0.058-0.009,0.227-0.015,0.35c-0.002,0.05-0.041,0.105-0.045,0.161      c-0.01,0.119,0.017,0.266,0.068,0.37c0.097,0.198,0.268,0.413,0.435,0.544c0.19,0.148,0.365,0.572,0.608,0.631      c0.177,0.042,0.384-0.104,0.543-0.143c0.18-0.043,0.397,0.01,0.571-0.053c0.222-0.079,0.127-0.337,0.288-0.45      c0.104-0.074,0.287-0.01,0.406-0.051c0.2-0.069,0.339-0.263,0.376-0.46c0.016-0.082,0.01-0.145,0.039-0.221      c0.039-0.103,0.111-0.16,0.09-0.293c-0.01-0.062-0.052-0.12-0.064-0.187c-0.022-0.114,0.002-0.224,0-0.337      c-0.003-0.2,0.017-0.379-0.078-0.55c-0.38-0.688-1.236-0.929-1.975-0.789c-0.18,0.034-0.287,0.126-0.442,0.207      c-0.17,0.088-0.139,0.166-0.318,0.224c-0.081,0.026-0.216,0.124-0.215,0.224c0.001,0.115,0.005,0.051,0.012,0.169      c-0.021,0.011-0.021-0.005-0.03-0.025"/>
				<path fill="#000000" d="M15.816-41.042c0.018,0.072,0.007,0.127-0.026,0.19c-0.053,0.101-0.112,0.063-0.165,0.128      c-0.05,0.063-0.099,0.276-0.079,0.362c-0.169,0.058-0.009,0.227-0.015,0.35c-0.002,0.05-0.041,0.105-0.045,0.161      c-0.01,0.119,0.017,0.266,0.068,0.37c0.097,0.198,0.268,0.413,0.435,0.544c0.19,0.148,0.365,0.572,0.608,0.631      c0.177,0.042,0.384-0.104,0.543-0.143c0.18-0.043,0.397,0.01,0.571-0.053c0.222-0.079,0.127-0.337,0.288-0.45      c0.104-0.074,0.287-0.01,0.406-0.051c0.2-0.069,0.339-0.263,0.376-0.46c0.016-0.082,0.01-0.145,0.039-0.221      c0.039-0.103,0.111-0.16,0.09-0.293c-0.01-0.062-0.052-0.12-0.064-0.187c-0.022-0.114,0.002-0.224,0-0.337      c-0.003-0.2,0.017-0.379-0.078-0.55c-0.38-0.688-1.236-0.929-1.975-0.789c-0.18,0.034-0.287,0.126-0.442,0.207      c-0.17,0.088-0.139,0.166-0.318,0.224c-0.081,0.026-0.216,0.124-0.215,0.224c0.001,0.115,0.005,0.051,0.012,0.169      c-0.021,0.011-0.021-0.005-0.03-0.025"/>
				<path fill="#000000" d="M8.156-41.042c0.018,0.072,0.007,0.127-0.026,0.19c-0.053,0.101-0.112,0.063-0.165,0.128      c-0.05,0.063-0.099,0.276-0.079,0.362c-0.169,0.058-0.009,0.227-0.015,0.35c-0.002,0.05-0.041,0.105-0.045,0.161      c-0.01,0.119,0.017,0.266,0.068,0.37c0.097,0.198,0.268,0.413,0.435,0.544c0.19,0.148,0.365,0.572,0.608,0.631      c0.177,0.042,0.384-0.104,0.543-0.143c0.18-0.043,0.397,0.01,0.571-0.053c0.222-0.079,0.127-0.337,0.288-0.45      c0.104-0.074,0.287-0.01,0.406-0.051c0.2-0.069,0.339-0.263,0.376-0.46c0.016-0.082,0.01-0.145,0.039-0.221      c0.039-0.103,0.111-0.16,0.09-0.293c-0.01-0.062-0.052-0.12-0.064-0.187c-0.022-0.114,0.002-0.224,0-0.337      c-0.003-0.2,0.017-0.379-0.078-0.55c-0.38-0.688-1.236-0.929-1.975-0.789c-0.18,0.034-0.287,0.126-0.442,0.207      c-0.17,0.088-0.139,0.166-0.318,0.224c-0.081,0.026-0.216,0.124-0.215,0.224c0.001,0.115,0.005,0.051,0.012,0.169      C8.15-41.004,8.149-41.02,8.14-41.04"/>
				<path fill="#000000" d="M0.495-41.042c0.018,0.072,0.007,0.127-0.026,0.19c-0.053,0.101-0.112,0.063-0.165,0.128      c-0.05,0.063-0.099,0.276-0.079,0.362c-0.169,0.058-0.01,0.227-0.015,0.35c-0.002,0.05-0.041,0.105-0.045,0.161      c-0.01,0.119,0.017,0.266,0.068,0.37c0.097,0.198,0.268,0.413,0.435,0.544c0.19,0.148,0.365,0.572,0.608,0.631      c0.177,0.042,0.384-0.104,0.543-0.143c0.18-0.043,0.397,0.01,0.571-0.053c0.222-0.079,0.127-0.337,0.288-0.45      c0.104-0.074,0.287-0.01,0.406-0.051c0.2-0.069,0.339-0.263,0.376-0.46c0.016-0.082,0.01-0.145,0.039-0.221      c0.039-0.103,0.111-0.16,0.09-0.293c-0.01-0.062-0.052-0.12-0.064-0.187c-0.022-0.114,0.002-0.224,0-0.337      c-0.003-0.2,0.017-0.379-0.078-0.55c-0.38-0.688-1.236-0.929-1.975-0.789c-0.18,0.034-0.287,0.126-0.442,0.207      c-0.17,0.088-0.139,0.166-0.318,0.224c-0.081,0.026-0.216,0.124-0.215,0.224c0.001,0.115,0.005,0.051,0.012,0.169      c-0.021,0.011-0.021-0.005-0.03-0.025"/>
			</g>
			<g>
				<path fill="#000000" d="M69.439-33.39c0.018,0.072,0.007,0.127-0.026,0.19c-0.053,0.101-0.112,0.063-0.165,0.128      c-0.05,0.063-0.099,0.276-0.079,0.362c-0.169,0.058-0.01,0.227-0.015,0.35c-0.002,0.05-0.041,0.105-0.045,0.161      c-0.01,0.119,0.017,0.266,0.068,0.37c0.097,0.198,0.268,0.413,0.435,0.544c0.19,0.148,0.365,0.572,0.608,0.631      c0.177,0.042,0.384-0.104,0.543-0.143c0.18-0.043,0.397,0.01,0.571-0.053c0.222-0.079,0.127-0.337,0.288-0.45      c0.104-0.074,0.287-0.01,0.406-0.051c0.2-0.069,0.339-0.263,0.376-0.46c0.016-0.082,0.01-0.145,0.039-0.221      c0.039-0.103,0.111-0.16,0.09-0.293c-0.01-0.062-0.052-0.12-0.064-0.187c-0.022-0.114,0.002-0.224,0-0.337      c-0.003-0.2,0.017-0.379-0.078-0.55c-0.38-0.688-1.236-0.929-1.975-0.789c-0.18,0.034-0.287,0.126-0.442,0.207      c-0.17,0.088-0.139,0.166-0.318,0.224c-0.081,0.026-0.216,0.124-0.215,0.224c0.001,0.115,0.005,0.051,0.012,0.169      c-0.021,0.011-0.021-0.005-0.03-0.025"/>
				<path fill="#000000" d="M61.778-33.39c0.018,0.072,0.007,0.127-0.026,0.19c-0.053,0.101-0.112,0.063-0.165,0.128      c-0.05,0.063-0.099,0.276-0.079,0.362c-0.169,0.058-0.009,0.227-0.015,0.35c-0.002,0.05-0.041,0.105-0.045,0.161      c-0.01,0.119,0.017,0.266,0.068,0.37c0.097,0.198,0.268,0.413,0.435,0.544c0.19,0.148,0.365,0.572,0.608,0.631      c0.177,0.042,0.384-0.104,0.543-0.143c0.18-0.043,0.397,0.01,0.571-0.053c0.222-0.079,0.127-0.337,0.288-0.45      c0.104-0.074,0.287-0.01,0.406-0.051c0.2-0.069,0.339-0.263,0.376-0.46c0.016-0.082,0.01-0.145,0.039-0.221      c0.039-0.103,0.111-0.16,0.09-0.293c-0.01-0.062-0.052-0.12-0.064-0.187c-0.022-0.114,0.002-0.224,0-0.337      c-0.003-0.2,0.017-0.379-0.078-0.55c-0.38-0.688-1.236-0.929-1.975-0.789c-0.18,0.034-0.287,0.126-0.442,0.207      c-0.17,0.088-0.139,0.166-0.318,0.224c-0.081,0.026-0.216,0.124-0.215,0.224c0.001,0.115,0.005,0.051,0.012,0.169      c-0.021,0.011-0.021-0.005-0.03-0.025"/>
				<path fill="#000000" d="M54.118-33.39c0.018,0.072,0.007,0.127-0.026,0.19c-0.053,0.101-0.112,0.063-0.165,0.128      c-0.05,0.063-0.099,0.276-0.079,0.362c-0.169,0.058-0.009,0.227-0.015,0.35c-0.002,0.05-0.041,0.105-0.045,0.161      c-0.01,0.119,0.017,0.266,0.068,0.37c0.097,0.198,0.268,0.413,0.435,0.544c0.19,0.148,0.365,0.572,0.608,0.631      c0.177,0.042,0.384-0.104,0.543-0.143c0.18-0.043,0.397,0.01,0.571-0.053c0.222-0.079,0.127-0.337,0.288-0.45      c0.104-0.074,0.287-0.01,0.406-0.051c0.2-0.069,0.339-0.263,0.376-0.46c0.016-0.082,0.01-0.145,0.039-0.221      c0.039-0.103,0.111-0.16,0.09-0.293c-0.01-0.062-0.052-0.12-0.064-0.187c-0.022-0.114,0.002-0.224,0-0.337      c-0.003-0.2,0.017-0.379-0.078-0.55c-0.38-0.688-1.236-0.929-1.975-0.789c-0.18,0.034-0.287,0.126-0.442,0.207      c-0.17,0.088-0.139,0.166-0.318,0.224c-0.081,0.026-0.216,0.124-0.215,0.224c0.001,0.115,0.005,0.051,0.012,0.169      c-0.021,0.011-0.021-0.005-0.03-0.025"/>
				<path fill="#000000" d="M46.458-33.39c0.018,0.072,0.007,0.127-0.026,0.19c-0.053,0.101-0.112,0.063-0.165,0.128      c-0.05,0.063-0.099,0.276-0.079,0.362c-0.169,0.058-0.009,0.227-0.015,0.35c-0.002,0.05-0.041,0.105-0.045,0.161      c-0.01,0.119,0.017,0.266,0.068,0.37c0.097,0.198,0.268,0.413,0.435,0.544c0.19,0.148,0.365,0.572,0.608,0.631      c0.177,0.042,0.384-0.104,0.543-0.143c0.18-0.043,0.397,0.01,0.571-0.053c0.222-0.079,0.127-0.337,0.288-0.45      c0.104-0.074,0.287-0.01,0.406-0.051c0.2-0.069,0.339-0.263,0.376-0.46c0.016-0.082,0.01-0.145,0.039-0.221      c0.039-0.103,0.111-0.16,0.09-0.293c-0.01-0.062-0.052-0.12-0.064-0.187c-0.022-0.114,0.002-0.224,0-0.337      c-0.003-0.2,0.017-0.379-0.078-0.55c-0.38-0.688-1.236-0.929-1.975-0.789c-0.18,0.034-0.287,0.126-0.442,0.207      c-0.17,0.088-0.139,0.166-0.318,0.224c-0.081,0.026-0.216,0.124-0.215,0.224c0.001,0.115,0.005,0.051,0.012,0.169      c-0.021,0.011-0.021-0.005-0.03-0.025"/>
				<path fill="#000000" d="M38.797-33.39c0.018,0.072,0.007,0.127-0.026,0.19c-0.053,0.101-0.112,0.063-0.165,0.128      c-0.05,0.063-0.099,0.276-0.079,0.362c-0.169,0.058-0.009,0.227-0.015,0.35c-0.002,0.05-0.041,0.105-0.045,0.161      c-0.01,0.119,0.017,0.266,0.068,0.37c0.097,0.198,0.268,0.413,0.435,0.544c0.19,0.148,0.365,0.572,0.608,0.631      c0.177,0.042,0.384-0.104,0.543-0.143c0.18-0.043,0.397,0.01,0.571-0.053c0.222-0.079,0.127-0.337,0.288-0.45      c0.104-0.074,0.287-0.01,0.406-0.051c0.2-0.069,0.339-0.263,0.376-0.46c0.016-0.082,0.01-0.145,0.039-0.221      c0.039-0.103,0.111-0.16,0.09-0.293c-0.01-0.062-0.052-0.12-0.064-0.187c-0.022-0.114,0.002-0.224,0-0.337      c-0.003-0.2,0.017-0.379-0.078-0.55c-0.38-0.688-1.236-0.929-1.975-0.789c-0.18,0.034-0.287,0.126-0.442,0.207      c-0.17,0.088-0.139,0.166-0.318,0.224c-0.081,0.026-0.216,0.124-0.215,0.224c0.001,0.115,0.005,0.051,0.012,0.169      c-0.021,0.011-0.021-0.005-0.03-0.025"/>
				<path fill="#000000" d="M31.137-33.39c0.018,0.072,0.007,0.127-0.026,0.19c-0.053,0.101-0.112,0.063-0.165,0.128      c-0.05,0.063-0.099,0.276-0.079,0.362c-0.169,0.058-0.009,0.227-0.015,0.35c-0.002,0.05-0.041,0.105-0.045,0.161      c-0.01,0.119,0.017,0.266,0.068,0.37c0.097,0.198,0.268,0.413,0.435,0.544c0.19,0.148,0.365,0.572,0.608,0.631      c0.177,0.042,0.384-0.104,0.543-0.143c0.18-0.043,0.397,0.01,0.571-0.053c0.222-0.079,0.127-0.337,0.288-0.45      c0.104-0.074,0.287-0.01,0.406-0.051c0.2-0.069,0.339-0.263,0.376-0.46c0.016-0.082,0.01-0.145,0.039-0.221      c0.039-0.103,0.111-0.16,0.09-0.293c-0.01-0.062-0.052-0.12-0.064-0.187c-0.022-0.114,0.002-0.224,0-0.337      c-0.003-0.2,0.017-0.379-0.078-0.55c-0.38-0.688-1.236-0.929-1.975-0.789c-0.18,0.034-0.287,0.126-0.442,0.207      c-0.17,0.088-0.139,0.166-0.318,0.224c-0.081,0.026-0.216,0.124-0.215,0.224c0.001,0.115,0.005,0.051,0.012,0.169      c-0.021,0.011-0.021-0.005-0.03-0.025"/>
				<path fill="#000000" d="M23.477-33.39c0.018,0.072,0.007,0.127-0.026,0.19c-0.053,0.101-0.112,0.063-0.165,0.128      c-0.05,0.063-0.099,0.276-0.079,0.362c-0.169,0.058-0.009,0.227-0.015,0.35c-0.002,0.05-0.041,0.105-0.045,0.161      c-0.01,0.119,0.017,0.266,0.068,0.37c0.097,0.198,0.268,0.413,0.435,0.544c0.19,0.148,0.365,0.572,0.608,0.631      c0.177,0.042,0.384-0.104,0.543-0.143c0.18-0.043,0.397,0.01,0.571-0.053c0.222-0.079,0.127-0.337,0.288-0.45      c0.104-0.074,0.287-0.01,0.406-0.051c0.2-0.069,0.339-0.263,0.376-0.46c0.016-0.082,0.01-0.145,0.039-0.221      c0.039-0.103,0.111-0.16,0.09-0.293c-0.01-0.062-0.052-0.12-0.064-0.187c-0.022-0.114,0.002-0.224,0-0.337      c-0.003-0.2,0.017-0.379-0.078-0.55c-0.38-0.688-1.236-0.929-1.975-0.789c-0.18,0.034-0.287,0.126-0.442,0.207      c-0.17,0.088-0.139,0.166-0.318,0.224c-0.081,0.026-0.216,0.124-0.215,0.224c0.001,0.115,0.005,0.051,0.012,0.169      c-0.021,0.011-0.021-0.005-0.03-0.025"/>
				<path fill="#000000" d="M15.816-33.39c0.018,0.072,0.007,0.127-0.026,0.19c-0.053,0.101-0.112,0.063-0.165,0.128      c-0.05,0.063-0.099,0.276-0.079,0.362c-0.169,0.058-0.009,0.227-0.015,0.35c-0.002,0.05-0.041,0.105-0.045,0.161      c-0.01,0.119,0.017,0.266,0.068,0.37c0.097,0.198,0.268,0.413,0.435,0.544c0.19,0.148,0.365,0.572,0.608,0.631      c0.177,0.042,0.384-0.104,0.543-0.143c0.18-0.043,0.397,0.01,0.571-0.053c0.222-0.079,0.127-0.337,0.288-0.45      c0.104-0.074,0.287-0.01,0.406-0.051c0.2-0.069,0.339-0.263,0.376-0.46c0.016-0.082,0.01-0.145,0.039-0.221      c0.039-0.103,0.111-0.16,0.09-0.293c-0.01-0.062-0.052-0.12-0.064-0.187c-0.022-0.114,0.002-0.224,0-0.337      c-0.003-0.2,0.017-0.379-0.078-0.55c-0.38-0.688-1.236-0.929-1.975-0.789c-0.18,0.034-0.287,0.126-0.442,0.207      c-0.17,0.088-0.139,0.166-0.318,0.224c-0.081,0.026-0.216,0.124-0.215,0.224c0.001,0.115,0.005,0.051,0.012,0.169      c-0.021,0.011-0.021-0.005-0.03-0.025"/>
				<path fill="#000000" d="M8.156-33.39c0.018,0.072,0.007,0.127-0.026,0.19c-0.053,0.101-0.112,0.063-0.165,0.128      c-0.05,0.063-0.099,0.276-0.079,0.362c-0.169,0.058-0.009,0.227-0.015,0.35c-0.002,0.05-0.041,0.105-0.045,0.161      c-0.01,0.119,0.017,0.266,0.068,0.37c0.097,0.198,0.268,0.413,0.435,0.544c0.19,0.148,0.365,0.572,0.608,0.631      c0.177,0.042,0.384-0.104,0.543-0.143c0.18-0.043,0.397,0.01,0.571-0.053c0.222-0.079,0.127-0.337,0.288-0.45      c0.104-0.074,0.287-0.01,0.406-0.051c0.2-0.069,0.339-0.263,0.376-0.46c0.016-0.082,0.01-0.145,0.039-0.221      c0.039-0.103,0.111-0.16,0.09-0.293c-0.01-0.062-0.052-0.12-0.064-0.187c-0.022-0.114,0.002-0.224,0-0.337      c-0.003-0.2,0.017-0.379-0.078-0.55c-0.38-0.688-1.236-0.929-1.975-0.789c-0.18,0.034-0.287,0.126-0.442,0.207      c-0.17,0.088-0.139,0.166-0.318,0.224c-0.081,0.026-0.216,0.124-0.215,0.224c0.001,0.115,0.005,0.051,0.012,0.169      c-0.021,0.011-0.021-0.005-0.03-0.025"/>
				<path fill="#000000" d="M0.495-33.39c0.018,0.072,0.007,0.127-0.026,0.19c-0.053,0.101-0.112,0.063-0.165,0.128      c-0.05,0.063-0.099,0.276-0.079,0.362c-0.169,0.058-0.01,0.227-0.015,0.35c-0.002,0.05-0.041,0.105-0.045,0.161      c-0.01,0.119,0.017,0.266,0.068,0.37c0.097,0.198,0.268,0.413,0.435,0.544c0.19,0.148,0.365,0.572,0.608,0.631      c0.177,0.042,0.384-0.104,0.543-0.143c0.18-0.043,0.397,0.01,0.571-0.053c0.222-0.079,0.127-0.337,0.288-0.45      c0.104-0.074,0.287-0.01,0.406-0.051c0.2-0.069,0.339-0.263,0.376-0.46c0.016-0.082,0.01-0.145,0.039-0.221      c0.039-0.103,0.111-0.16,0.09-0.293c-0.01-0.062-0.052-0.12-0.064-0.187c-0.022-0.114,0.002-0.224,0-0.337      c-0.003-0.2,0.017-0.379-0.078-0.55c-0.38-0.688-1.236-0.929-1.975-0.789c-0.18,0.034-0.287,0.126-0.442,0.207      c-0.17,0.088-0.139,0.166-0.318,0.224c-0.081,0.026-0.216,0.124-0.215,0.224C0.5-33.416,0.503-33.48,0.51-33.362      c-0.021,0.011-0.021-0.005-0.03-0.025"/>
			</g>
			<g>
				<path fill="#000000" d="M69.439-25.736c0.018,0.072,0.007,0.127-0.026,0.19c-0.053,0.101-0.112,0.063-0.165,0.128      c-0.05,0.063-0.099,0.276-0.079,0.362c-0.169,0.058-0.01,0.227-0.015,0.35c-0.002,0.05-0.041,0.105-0.045,0.161      c-0.01,0.119,0.017,0.266,0.068,0.37c0.097,0.198,0.268,0.413,0.435,0.544c0.19,0.148,0.365,0.572,0.608,0.631      c0.177,0.042,0.384-0.104,0.543-0.143c0.18-0.043,0.397,0.01,0.571-0.053c0.222-0.079,0.127-0.337,0.288-0.45      c0.104-0.074,0.287-0.01,0.406-0.051c0.2-0.069,0.339-0.263,0.376-0.46c0.016-0.082,0.01-0.145,0.039-0.221      c0.039-0.103,0.111-0.16,0.09-0.293c-0.01-0.062-0.052-0.12-0.064-0.187c-0.022-0.114,0.002-0.224,0-0.337      c-0.003-0.2,0.017-0.379-0.078-0.55c-0.38-0.688-1.236-0.929-1.975-0.789c-0.18,0.034-0.287,0.126-0.442,0.207      c-0.17,0.088-0.139,0.166-0.318,0.224c-0.081,0.026-0.216,0.124-0.215,0.224c0.001,0.115,0.005,0.051,0.012,0.169      c-0.021,0.011-0.021-0.005-0.03-0.025"/>
				<path fill="#000000" d="M61.778-25.736c0.018,0.072,0.007,0.127-0.026,0.19c-0.053,0.101-0.112,0.063-0.165,0.128      c-0.05,0.063-0.099,0.276-0.079,0.362c-0.169,0.058-0.009,0.227-0.015,0.35c-0.002,0.05-0.041,0.105-0.045,0.161      c-0.01,0.119,0.017,0.266,0.068,0.37c0.097,0.198,0.268,0.413,0.435,0.544c0.19,0.148,0.365,0.572,0.608,0.631      c0.177,0.042,0.384-0.104,0.543-0.143c0.18-0.043,0.397,0.01,0.571-0.053c0.222-0.079,0.127-0.337,0.288-0.45      c0.104-0.074,0.287-0.01,0.406-0.051c0.2-0.069,0.339-0.263,0.376-0.46c0.016-0.082,0.01-0.145,0.039-0.221      c0.039-0.103,0.111-0.16,0.09-0.293c-0.01-0.062-0.052-0.12-0.064-0.187c-0.022-0.114,0.002-0.224,0-0.337      c-0.003-0.2,0.017-0.379-0.078-0.55c-0.38-0.688-1.236-0.929-1.975-0.789c-0.18,0.034-0.287,0.126-0.442,0.207      c-0.17,0.088-0.139,0.166-0.318,0.224c-0.081,0.026-0.216,0.124-0.215,0.224c0.001,0.115,0.005,0.051,0.012,0.169      c-0.021,0.011-0.021-0.005-0.03-0.025"/>
				<path fill="#000000" d="M54.118-25.736c0.018,0.072,0.007,0.127-0.026,0.19c-0.053,0.101-0.112,0.063-0.165,0.128      c-0.05,0.063-0.099,0.276-0.079,0.362c-0.169,0.058-0.009,0.227-0.015,0.35c-0.002,0.05-0.041,0.105-0.045,0.161      c-0.01,0.119,0.017,0.266,0.068,0.37c0.097,0.198,0.268,0.413,0.435,0.544c0.19,0.148,0.365,0.572,0.608,0.631      c0.177,0.042,0.384-0.104,0.543-0.143c0.18-0.043,0.397,0.01,0.571-0.053c0.222-0.079,0.127-0.337,0.288-0.45      c0.104-0.074,0.287-0.01,0.406-0.051c0.2-0.069,0.339-0.263,0.376-0.46c0.016-0.082,0.01-0.145,0.039-0.221      c0.039-0.103,0.111-0.16,0.09-0.293c-0.01-0.062-0.052-0.12-0.064-0.187c-0.022-0.114,0.002-0.224,0-0.337      c-0.003-0.2,0.017-0.379-0.078-0.55c-0.38-0.688-1.236-0.929-1.975-0.789c-0.18,0.034-0.287,0.126-0.442,0.207      c-0.17,0.088-0.139,0.166-0.318,0.224c-0.081,0.026-0.216,0.124-0.215,0.224c0.001,0.115,0.005,0.051,0.012,0.169      c-0.021,0.011-0.021-0.005-0.03-0.025"/>
				<path fill="#000000" d="M46.458-25.736c0.018,0.072,0.007,0.127-0.026,0.19c-0.053,0.101-0.112,0.063-0.165,0.128      c-0.05,0.063-0.099,0.276-0.079,0.362c-0.169,0.058-0.009,0.227-0.015,0.35c-0.002,0.05-0.041,0.105-0.045,0.161      c-0.01,0.119,0.017,0.266,0.068,0.37c0.097,0.198,0.268,0.413,0.435,0.544c0.19,0.148,0.365,0.572,0.608,0.631      c0.177,0.042,0.384-0.104,0.543-0.143c0.18-0.043,0.397,0.01,0.571-0.053c0.222-0.079,0.127-0.337,0.288-0.45      c0.104-0.074,0.287-0.01,0.406-0.051c0.2-0.069,0.339-0.263,0.376-0.46c0.016-0.082,0.01-0.145,0.039-0.221      c0.039-0.103,0.111-0.16,0.09-0.293c-0.01-0.062-0.052-0.12-0.064-0.187c-0.022-0.114,0.002-0.224,0-0.337      c-0.003-0.2,0.017-0.379-0.078-0.55c-0.38-0.688-1.236-0.929-1.975-0.789c-0.18,0.034-0.287,0.126-0.442,0.207      c-0.17,0.088-0.139,0.166-0.318,0.224c-0.081,0.026-0.216,0.124-0.215,0.224c0.001,0.115,0.005,0.051,0.012,0.169      c-0.021,0.011-0.021-0.005-0.03-0.025"/>
				<path fill="#000000" d="M38.797-25.736c0.018,0.072,0.007,0.127-0.026,0.19c-0.053,0.101-0.112,0.063-0.165,0.128      c-0.05,0.063-0.099,0.276-0.079,0.362c-0.169,0.058-0.009,0.227-0.015,0.35c-0.002,0.05-0.041,0.105-0.045,0.161      c-0.01,0.119,0.017,0.266,0.068,0.37c0.097,0.198,0.268,0.413,0.435,0.544c0.19,0.148,0.365,0.572,0.608,0.631      c0.177,0.042,0.384-0.104,0.543-0.143c0.18-0.043,0.397,0.01,0.571-0.053c0.222-0.079,0.127-0.337,0.288-0.45      c0.104-0.074,0.287-0.01,0.406-0.051c0.2-0.069,0.339-0.263,0.376-0.46c0.016-0.082,0.01-0.145,0.039-0.221      c0.039-0.103,0.111-0.16,0.09-0.293c-0.01-0.062-0.052-0.12-0.064-0.187c-0.022-0.114,0.002-0.224,0-0.337      c-0.003-0.2,0.017-0.379-0.078-0.55c-0.38-0.688-1.236-0.929-1.975-0.789c-0.18,0.034-0.287,0.126-0.442,0.207      c-0.17,0.088-0.139,0.166-0.318,0.224c-0.081,0.026-0.216,0.124-0.215,0.224c0.001,0.115,0.005,0.051,0.012,0.169      c-0.021,0.011-0.021-0.005-0.03-0.025"/>
				<path fill="#000000" d="M31.137-25.736c0.018,0.072,0.007,0.127-0.026,0.19c-0.053,0.101-0.112,0.063-0.165,0.128      c-0.05,0.063-0.099,0.276-0.079,0.362c-0.169,0.058-0.009,0.227-0.015,0.35c-0.002,0.05-0.041,0.105-0.045,0.161      c-0.01,0.119,0.017,0.266,0.068,0.37c0.097,0.198,0.268,0.413,0.435,0.544c0.19,0.148,0.365,0.572,0.608,0.631      c0.177,0.042,0.384-0.104,0.543-0.143c0.18-0.043,0.397,0.01,0.571-0.053c0.222-0.079,0.127-0.337,0.288-0.45      c0.104-0.074,0.287-0.01,0.406-0.051c0.2-0.069,0.339-0.263,0.376-0.46c0.016-0.082,0.01-0.145,0.039-0.221      c0.039-0.103,0.111-0.16,0.09-0.293c-0.01-0.062-0.052-0.12-0.064-0.187c-0.022-0.114,0.002-0.224,0-0.337      c-0.003-0.2,0.017-0.379-0.078-0.55c-0.38-0.688-1.236-0.929-1.975-0.789c-0.18,0.034-0.287,0.126-0.442,0.207      c-0.17,0.088-0.139,0.166-0.318,0.224c-0.081,0.026-0.216,0.124-0.215,0.224c0.001,0.115,0.005,0.051,0.012,0.169      c-0.021,0.011-0.021-0.005-0.03-0.025"/>
				<path fill="#000000" d="M23.477-25.736c0.018,0.072,0.007,0.127-0.026,0.19c-0.053,0.101-0.112,0.063-0.165,0.128      c-0.05,0.063-0.099,0.276-0.079,0.362c-0.169,0.058-0.009,0.227-0.015,0.35c-0.002,0.05-0.041,0.105-0.045,0.161      c-0.01,0.119,0.017,0.266,0.068,0.37c0.097,0.198,0.268,0.413,0.435,0.544c0.19,0.148,0.365,0.572,0.608,0.631      c0.177,0.042,0.384-0.104,0.543-0.143c0.18-0.043,0.397,0.01,0.571-0.053c0.222-0.079,0.127-0.337,0.288-0.45      c0.104-0.074,0.287-0.01,0.406-0.051c0.2-0.069,0.339-0.263,0.376-0.46c0.016-0.082,0.01-0.145,0.039-0.221      c0.039-0.103,0.111-0.16,0.09-0.293c-0.01-0.062-0.052-0.12-0.064-0.187c-0.022-0.114,0.002-0.224,0-0.337      c-0.003-0.2,0.017-0.379-0.078-0.55c-0.38-0.688-1.236-0.929-1.975-0.789c-0.18,0.034-0.287,0.126-0.442,0.207      c-0.17,0.088-0.139,0.166-0.318,0.224c-0.081,0.026-0.216,0.124-0.215,0.224c0.001,0.115,0.005,0.051,0.012,0.169      c-0.021,0.011-0.021-0.005-0.03-0.025"/>
				<path fill="#000000" d="M15.816-25.736c0.018,0.072,0.007,0.127-0.026,0.19c-0.053,0.101-0.112,0.063-0.165,0.128      c-0.05,0.063-0.099,0.276-0.079,0.362c-0.169,0.058-0.009,0.227-0.015,0.35c-0.002,0.05-0.041,0.105-0.045,0.161      c-0.01,0.119,0.017,0.266,0.068,0.37c0.097,0.198,0.268,0.413,0.435,0.544c0.19,0.148,0.365,0.572,0.608,0.631      c0.177,0.042,0.384-0.104,0.543-0.143c0.18-0.043,0.397,0.01,0.571-0.053c0.222-0.079,0.127-0.337,0.288-0.45      c0.104-0.074,0.287-0.01,0.406-0.051c0.2-0.069,0.339-0.263,0.376-0.46c0.016-0.082,0.01-0.145,0.039-0.221      c0.039-0.103,0.111-0.16,0.09-0.293c-0.01-0.062-0.052-0.12-0.064-0.187c-0.022-0.114,0.002-0.224,0-0.337      c-0.003-0.2,0.017-0.379-0.078-0.55c-0.38-0.688-1.236-0.929-1.975-0.789c-0.18,0.034-0.287,0.126-0.442,0.207      c-0.17,0.088-0.139,0.166-0.318,0.224c-0.081,0.026-0.216,0.124-0.215,0.224c0.001,0.115,0.005,0.051,0.012,0.169      c-0.021,0.011-0.021-0.005-0.03-0.025"/>
				<path fill="#000000" d="M8.156-25.736c0.018,0.072,0.007,0.127-0.026,0.19c-0.053,0.101-0.112,0.063-0.165,0.128      c-0.05,0.063-0.099,0.276-0.079,0.362c-0.169,0.058-0.009,0.227-0.015,0.35c-0.002,0.05-0.041,0.105-0.045,0.161      c-0.01,0.119,0.017,0.266,0.068,0.37c0.097,0.198,0.268,0.413,0.435,0.544c0.19,0.148,0.365,0.572,0.608,0.631      c0.177,0.042,0.384-0.104,0.543-0.143c0.18-0.043,0.397,0.01,0.571-0.053c0.222-0.079,0.127-0.337,0.288-0.45      c0.104-0.074,0.287-0.01,0.406-0.051c0.2-0.069,0.339-0.263,0.376-0.46c0.016-0.082,0.01-0.145,0.039-0.221      c0.039-0.103,0.111-0.16,0.09-0.293c-0.01-0.062-0.052-0.12-0.064-0.187c-0.022-0.114,0.002-0.224,0-0.337      c-0.003-0.2,0.017-0.379-0.078-0.55c-0.38-0.688-1.236-0.929-1.975-0.789c-0.18,0.034-0.287,0.126-0.442,0.207      c-0.17,0.088-0.139,0.166-0.318,0.224c-0.081,0.026-0.216,0.124-0.215,0.224c0.001,0.115,0.005,0.051,0.012,0.169      c-0.021,0.011-0.021-0.005-0.03-0.025"/>
				<path fill="#000000" d="M0.495-25.736c0.018,0.072,0.007,0.127-0.026,0.19c-0.053,0.101-0.112,0.063-0.165,0.128      c-0.05,0.063-0.099,0.276-0.079,0.362c-0.169,0.058-0.01,0.227-0.015,0.35c-0.002,0.05-0.041,0.105-0.045,0.161      c-0.01,0.119,0.017,0.266,0.068,0.37c0.097,0.198,0.268,0.413,0.435,0.544c0.19,0.148,0.365,0.572,0.608,0.631      c0.177,0.042,0.384-0.104,0.543-0.143c0.18-0.043,0.397,0.01,0.571-0.053c0.222-0.079,0.127-0.337,0.288-0.45      c0.104-0.074,0.287-0.01,0.406-0.051c0.2-0.069,0.339-0.263,0.376-0.46c0.016-0.082,0.01-0.145,0.039-0.221      c0.039-0.103,0.111-0.16,0.09-0.293c-0.01-0.062-0.052-0.12-0.064-0.187c-0.022-0.114,0.002-0.224,0-0.337      c-0.003-0.2,0.017-0.379-0.078-0.55c-0.38-0.688-1.236-0.929-1.975-0.789c-0.18,0.034-0.287,0.126-0.442,0.207      c-0.17,0.088-0.139,0.166-0.318,0.224c-0.081,0.026-0.216,0.124-0.215,0.224c0.001,0.115,0.005,0.051,0.012,0.169      c-0.021,0.011-0.021-0.005-0.03-0.025"/>
			</g>
			<g>
				<path fill="#000000" d="M69.439-18.084c0.018,0.072,0.007,0.127-0.026,0.19c-0.053,0.101-0.112,0.063-0.165,0.128      c-0.05,0.063-0.099,0.276-0.079,0.362c-0.169,0.058-0.01,0.227-0.015,0.35c-0.002,0.05-0.041,0.105-0.045,0.161      c-0.01,0.119,0.017,0.266,0.068,0.37c0.097,0.198,0.268,0.413,0.435,0.544c0.19,0.148,0.365,0.572,0.608,0.631      c0.177,0.042,0.384-0.104,0.543-0.143c0.18-0.043,0.397,0.01,0.571-0.053c0.222-0.079,0.127-0.337,0.288-0.45      c0.104-0.074,0.287-0.01,0.406-0.051c0.2-0.069,0.339-0.263,0.376-0.46c0.016-0.082,0.01-0.145,0.039-0.221      c0.039-0.103,0.111-0.16,0.09-0.293c-0.01-0.062-0.052-0.12-0.064-0.187c-0.022-0.114,0.002-0.224,0-0.337      c-0.003-0.2,0.017-0.379-0.078-0.55c-0.38-0.688-1.236-0.929-1.975-0.789c-0.18,0.034-0.287,0.126-0.442,0.207      c-0.17,0.088-0.139,0.166-0.318,0.224c-0.081,0.026-0.216,0.124-0.215,0.224c0.001,0.115,0.005,0.051,0.012,0.169      c-0.021,0.011-0.021-0.005-0.03-0.025"/>
				<path fill="#000000" d="M61.778-18.084c0.018,0.072,0.007,0.127-0.026,0.19c-0.053,0.101-0.112,0.063-0.165,0.128      c-0.05,0.063-0.099,0.276-0.079,0.362c-0.169,0.058-0.009,0.227-0.015,0.35c-0.002,0.05-0.041,0.105-0.045,0.161      c-0.01,0.119,0.017,0.266,0.068,0.37c0.097,0.198,0.268,0.413,0.435,0.544c0.19,0.148,0.365,0.572,0.608,0.631      c0.177,0.042,0.384-0.104,0.543-0.143c0.18-0.043,0.397,0.01,0.571-0.053c0.222-0.079,0.127-0.337,0.288-0.45      c0.104-0.074,0.287-0.01,0.406-0.051c0.2-0.069,0.339-0.263,0.376-0.46c0.016-0.082,0.01-0.145,0.039-0.221      c0.039-0.103,0.111-0.16,0.09-0.293c-0.01-0.062-0.052-0.12-0.064-0.187c-0.022-0.114,0.002-0.224,0-0.337      c-0.003-0.2,0.017-0.379-0.078-0.55c-0.38-0.688-1.236-0.929-1.975-0.789c-0.18,0.034-0.287,0.126-0.442,0.207      c-0.17,0.088-0.139,0.166-0.318,0.224c-0.081,0.026-0.216,0.124-0.215,0.224c0.001,0.115,0.005,0.051,0.012,0.169      c-0.021,0.011-0.021-0.005-0.03-0.025"/>
				<path fill="#000000" d="M54.118-18.084c0.018,0.072,0.007,0.127-0.026,0.19c-0.053,0.101-0.112,0.063-0.165,0.128      c-0.05,0.063-0.099,0.276-0.079,0.362c-0.169,0.058-0.009,0.227-0.015,0.35c-0.002,0.05-0.041,0.105-0.045,0.161      c-0.01,0.119,0.017,0.266,0.068,0.37c0.097,0.198,0.268,0.413,0.435,0.544c0.19,0.148,0.365,0.572,0.608,0.631      c0.177,0.042,0.384-0.104,0.543-0.143c0.18-0.043,0.397,0.01,0.571-0.053c0.222-0.079,0.127-0.337,0.288-0.45      c0.104-0.074,0.287-0.01,0.406-0.051c0.2-0.069,0.339-0.263,0.376-0.46c0.016-0.082,0.01-0.145,0.039-0.221      c0.039-0.103,0.111-0.16,0.09-0.293c-0.01-0.062-0.052-0.12-0.064-0.187c-0.022-0.114,0.002-0.224,0-0.337      c-0.003-0.2,0.017-0.379-0.078-0.55c-0.38-0.688-1.236-0.929-1.975-0.789c-0.18,0.034-0.287,0.126-0.442,0.207      c-0.17,0.088-0.139,0.166-0.318,0.224c-0.081,0.026-0.216,0.124-0.215,0.224c0.001,0.115,0.005,0.051,0.012,0.169      c-0.021,0.011-0.021-0.005-0.03-0.025"/>
				<path fill="#000000" d="M46.458-18.084c0.018,0.072,0.007,0.127-0.026,0.19c-0.053,0.101-0.112,0.063-0.165,0.128      c-0.05,0.063-0.099,0.276-0.079,0.362c-0.169,0.058-0.009,0.227-0.015,0.35c-0.002,0.05-0.041,0.105-0.045,0.161      c-0.01,0.119,0.017,0.266,0.068,0.37c0.097,0.198,0.268,0.413,0.435,0.544c0.19,0.148,0.365,0.572,0.608,0.631      c0.177,0.042,0.384-0.104,0.543-0.143c0.18-0.043,0.397,0.01,0.571-0.053c0.222-0.079,0.127-0.337,0.288-0.45      c0.104-0.074,0.287-0.01,0.406-0.051c0.2-0.069,0.339-0.263,0.376-0.46c0.016-0.082,0.01-0.145,0.039-0.221      c0.039-0.103,0.111-0.16,0.09-0.293c-0.01-0.062-0.052-0.12-0.064-0.187c-0.022-0.114,0.002-0.224,0-0.337      c-0.003-0.2,0.017-0.379-0.078-0.55c-0.38-0.688-1.236-0.929-1.975-0.789c-0.18,0.034-0.287,0.126-0.442,0.207      c-0.17,0.088-0.139,0.166-0.318,0.224c-0.081,0.026-0.216,0.124-0.215,0.224c0.001,0.115,0.005,0.051,0.012,0.169      c-0.021,0.011-0.021-0.005-0.03-0.025"/>
				<path fill="#000000" d="M38.797-18.084c0.018,0.072,0.007,0.127-0.026,0.19c-0.053,0.101-0.112,0.063-0.165,0.128      c-0.05,0.063-0.099,0.276-0.079,0.362c-0.169,0.058-0.009,0.227-0.015,0.35c-0.002,0.05-0.041,0.105-0.045,0.161      c-0.01,0.119,0.017,0.266,0.068,0.37c0.097,0.198,0.268,0.413,0.435,0.544c0.19,0.148,0.365,0.572,0.608,0.631      c0.177,0.042,0.384-0.104,0.543-0.143c0.18-0.043,0.397,0.01,0.571-0.053c0.222-0.079,0.127-0.337,0.288-0.45      c0.104-0.074,0.287-0.01,0.406-0.051c0.2-0.069,0.339-0.263,0.376-0.46c0.016-0.082,0.01-0.145,0.039-0.221      c0.039-0.103,0.111-0.16,0.09-0.293c-0.01-0.062-0.052-0.12-0.064-0.187c-0.022-0.114,0.002-0.224,0-0.337      c-0.003-0.2,0.017-0.379-0.078-0.55c-0.38-0.688-1.236-0.929-1.975-0.789c-0.18,0.034-0.287,0.126-0.442,0.207      c-0.17,0.088-0.139,0.166-0.318,0.224c-0.081,0.026-0.216,0.124-0.215,0.224c0.001,0.115,0.005,0.051,0.012,0.169      c-0.021,0.011-0.021-0.005-0.03-0.025"/>
				<path fill="#000000" d="M31.137-18.084c0.018,0.072,0.007,0.127-0.026,0.19c-0.053,0.101-0.112,0.063-0.165,0.128      c-0.05,0.063-0.099,0.276-0.079,0.362c-0.169,0.058-0.009,0.227-0.015,0.35c-0.002,0.05-0.041,0.105-0.045,0.161      c-0.01,0.119,0.017,0.266,0.068,0.37c0.097,0.198,0.268,0.413,0.435,0.544c0.19,0.148,0.365,0.572,0.608,0.631      c0.177,0.042,0.384-0.104,0.543-0.143c0.18-0.043,0.397,0.01,0.571-0.053c0.222-0.079,0.127-0.337,0.288-0.45      c0.104-0.074,0.287-0.01,0.406-0.051c0.2-0.069,0.339-0.263,0.376-0.46c0.016-0.082,0.01-0.145,0.039-0.221      c0.039-0.103,0.111-0.16,0.09-0.293c-0.01-0.062-0.052-0.12-0.064-0.187c-0.022-0.114,0.002-0.224,0-0.337      c-0.003-0.2,0.017-0.379-0.078-0.55c-0.38-0.688-1.236-0.929-1.975-0.789c-0.18,0.034-0.287,0.126-0.442,0.207      c-0.17,0.088-0.139,0.166-0.318,0.224c-0.081,0.026-0.216,0.124-0.215,0.224c0.001,0.115,0.005,0.051,0.012,0.169      c-0.021,0.011-0.021-0.005-0.03-0.025"/>
				<path fill="#000000" d="M23.477-18.084c0.018,0.072,0.007,0.127-0.026,0.19c-0.053,0.101-0.112,0.063-0.165,0.128      c-0.05,0.063-0.099,0.276-0.079,0.362c-0.169,0.058-0.009,0.227-0.015,0.35c-0.002,0.05-0.041,0.105-0.045,0.161      c-0.01,0.119,0.017,0.266,0.068,0.37c0.097,0.198,0.268,0.413,0.435,0.544c0.19,0.148,0.365,0.572,0.608,0.631      c0.177,0.042,0.384-0.104,0.543-0.143c0.18-0.043,0.397,0.01,0.571-0.053c0.222-0.079,0.127-0.337,0.288-0.45      c0.104-0.074,0.287-0.01,0.406-0.051c0.2-0.069,0.339-0.263,0.376-0.46c0.016-0.082,0.01-0.145,0.039-0.221      c0.039-0.103,0.111-0.16,0.09-0.293c-0.01-0.062-0.052-0.12-0.064-0.187c-0.022-0.114,0.002-0.224,0-0.337      c-0.003-0.2,0.017-0.379-0.078-0.55c-0.38-0.688-1.236-0.929-1.975-0.789c-0.18,0.034-0.287,0.126-0.442,0.207      c-0.17,0.088-0.139,0.166-0.318,0.224c-0.081,0.026-0.216,0.124-0.215,0.224c0.001,0.115,0.005,0.051,0.012,0.169      c-0.021,0.011-0.021-0.005-0.03-0.025"/>
				<path fill="#000000" d="M15.816-18.084c0.018,0.072,0.007,0.127-0.026,0.19c-0.053,0.101-0.112,0.063-0.165,0.128      c-0.05,0.063-0.099,0.276-0.079,0.362c-0.169,0.058-0.009,0.227-0.015,0.35c-0.002,0.05-0.041,0.105-0.045,0.161      c-0.01,0.119,0.017,0.266,0.068,0.37c0.097,0.198,0.268,0.413,0.435,0.544c0.19,0.148,0.365,0.572,0.608,0.631      c0.177,0.042,0.384-0.104,0.543-0.143c0.18-0.043,0.397,0.01,0.571-0.053c0.222-0.079,0.127-0.337,0.288-0.45      c0.104-0.074,0.287-0.01,0.406-0.051c0.2-0.069,0.339-0.263,0.376-0.46c0.016-0.082,0.01-0.145,0.039-0.221      c0.039-0.103,0.111-0.16,0.09-0.293c-0.01-0.062-0.052-0.12-0.064-0.187c-0.022-0.114,0.002-0.224,0-0.337      c-0.003-0.2,0.017-0.379-0.078-0.55c-0.38-0.688-1.236-0.929-1.975-0.789c-0.18,0.034-0.287,0.126-0.442,0.207      c-0.17,0.088-0.139,0.166-0.318,0.224c-0.081,0.026-0.216,0.124-0.215,0.224c0.001,0.115,0.005,0.051,0.012,0.169      c-0.021,0.011-0.021-0.005-0.03-0.025"/>
				<path fill="#000000" d="M8.156-18.084c0.018,0.072,0.007,0.127-0.026,0.19c-0.053,0.101-0.112,0.063-0.165,0.128      c-0.05,0.063-0.099,0.276-0.079,0.362c-0.169,0.058-0.009,0.227-0.015,0.35c-0.002,0.05-0.041,0.105-0.045,0.161      c-0.01,0.119,0.017,0.266,0.068,0.37c0.097,0.198,0.268,0.413,0.435,0.544c0.19,0.148,0.365,0.572,0.608,0.631      c0.177,0.042,0.384-0.104,0.543-0.143c0.18-0.043,0.397,0.01,0.571-0.053c0.222-0.079,0.127-0.337,0.288-0.45      c0.104-0.074,0.287-0.01,0.406-0.051c0.2-0.069,0.339-0.263,0.376-0.46c0.016-0.082,0.01-0.145,0.039-0.221      c0.039-0.103,0.111-0.16,0.09-0.293c-0.01-0.062-0.052-0.12-0.064-0.187c-0.022-0.114,0.002-0.224,0-0.337      c-0.003-0.2,0.017-0.379-0.078-0.55c-0.38-0.688-1.236-0.929-1.975-0.789c-0.18,0.034-0.287,0.126-0.442,0.207      c-0.17,0.088-0.139,0.166-0.318,0.224c-0.081,0.026-0.216,0.124-0.215,0.224c0.001,0.115,0.005,0.051,0.012,0.169      c-0.021,0.011-0.021-0.005-0.03-0.025"/>
				<path fill="#000000" d="M0.495-18.084c0.018,0.072,0.007,0.127-0.026,0.19c-0.053,0.101-0.112,0.063-0.165,0.128      c-0.05,0.063-0.099,0.276-0.079,0.362c-0.169,0.058-0.01,0.227-0.015,0.35c-0.002,0.05-0.041,0.105-0.045,0.161      c-0.01,0.119,0.017,0.266,0.068,0.37c0.097,0.198,0.268,0.413,0.435,0.544c0.19,0.148,0.365,0.572,0.608,0.631      c0.177,0.042,0.384-0.104,0.543-0.143c0.18-0.043,0.397,0.01,0.571-0.053c0.222-0.079,0.127-0.337,0.288-0.45      c0.104-0.074,0.287-0.01,0.406-0.051c0.2-0.069,0.339-0.263,0.376-0.46c0.016-0.082,0.01-0.145,0.039-0.221      c0.039-0.103,0.111-0.16,0.09-0.293c-0.01-0.062-0.052-0.12-0.064-0.187c-0.022-0.114,0.002-0.224,0-0.337      c-0.003-0.2,0.017-0.379-0.078-0.55c-0.38-0.688-1.236-0.929-1.975-0.789c-0.18,0.034-0.287,0.126-0.442,0.207      c-0.17,0.088-0.139,0.166-0.318,0.224c-0.081,0.026-0.216,0.124-0.215,0.224C0.5-18.11,0.503-18.175,0.51-18.057      c-0.021,0.011-0.021-0.005-0.03-0.025"/>
			</g>
			<g>
				<path fill="#000000" d="M69.439-10.431c0.018,0.072,0.007,0.127-0.026,0.19c-0.053,0.101-0.112,0.063-0.165,0.128      c-0.05,0.063-0.099,0.276-0.079,0.362C69-9.692,69.159-9.523,69.154-9.4c-0.002,0.05-0.041,0.105-0.045,0.161      c-0.01,0.119,0.017,0.266,0.068,0.37c0.097,0.198,0.268,0.413,0.435,0.544c0.19,0.148,0.365,0.572,0.608,0.631      c0.177,0.042,0.384-0.104,0.543-0.143c0.18-0.043,0.397,0.01,0.571-0.053c0.222-0.079,0.127-0.337,0.288-0.45      c0.104-0.074,0.287-0.01,0.406-0.051c0.2-0.069,0.339-0.263,0.376-0.46c0.016-0.082,0.01-0.145,0.039-0.221      c0.039-0.103,0.111-0.16,0.09-0.293c-0.01-0.062-0.052-0.12-0.064-0.187c-0.022-0.114,0.002-0.224,0-0.337      c-0.003-0.2,0.017-0.379-0.078-0.55c-0.38-0.688-1.236-0.929-1.975-0.789c-0.18,0.034-0.287,0.126-0.442,0.207      c-0.17,0.088-0.139,0.166-0.318,0.224c-0.081,0.026-0.216,0.124-0.215,0.224c0.001,0.115,0.005,0.051,0.012,0.169      c-0.021,0.011-0.021-0.005-0.03-0.025"/>
				<path fill="#000000" d="M61.778-10.431c0.018,0.072,0.007,0.127-0.026,0.19c-0.053,0.101-0.112,0.063-0.165,0.128      c-0.05,0.063-0.099,0.276-0.079,0.362c-0.169,0.058-0.009,0.227-0.015,0.35c-0.002,0.05-0.041,0.105-0.045,0.161      c-0.01,0.119,0.017,0.266,0.068,0.37c0.097,0.198,0.268,0.413,0.435,0.544c0.19,0.148,0.365,0.572,0.608,0.631      c0.177,0.042,0.384-0.104,0.543-0.143c0.18-0.043,0.397,0.01,0.571-0.053c0.222-0.079,0.127-0.337,0.288-0.45      c0.104-0.074,0.287-0.01,0.406-0.051c0.2-0.069,0.339-0.263,0.376-0.46c0.016-0.082,0.01-0.145,0.039-0.221      c0.039-0.103,0.111-0.16,0.09-0.293c-0.01-0.062-0.052-0.12-0.064-0.187c-0.022-0.114,0.002-0.224,0-0.337      c-0.003-0.2,0.017-0.379-0.078-0.55c-0.38-0.688-1.236-0.929-1.975-0.789c-0.18,0.034-0.287,0.126-0.442,0.207      c-0.17,0.088-0.139,0.166-0.318,0.224c-0.081,0.026-0.216,0.124-0.215,0.224c0.001,0.115,0.005,0.051,0.012,0.169      c-0.021,0.011-0.021-0.005-0.03-0.025"/>
				<path fill="#000000" d="M54.118-10.431c0.018,0.072,0.007,0.127-0.026,0.19c-0.053,0.101-0.112,0.063-0.165,0.128      c-0.05,0.063-0.099,0.276-0.079,0.362c-0.169,0.058-0.009,0.227-0.015,0.35c-0.002,0.05-0.041,0.105-0.045,0.161      c-0.01,0.119,0.017,0.266,0.068,0.37c0.097,0.198,0.268,0.413,0.435,0.544c0.19,0.148,0.365,0.572,0.608,0.631      c0.177,0.042,0.384-0.104,0.543-0.143c0.18-0.043,0.397,0.01,0.571-0.053c0.222-0.079,0.127-0.337,0.288-0.45      c0.104-0.074,0.287-0.01,0.406-0.051c0.2-0.069,0.339-0.263,0.376-0.46c0.016-0.082,0.01-0.145,0.039-0.221      c0.039-0.103,0.111-0.16,0.09-0.293c-0.01-0.062-0.052-0.12-0.064-0.187c-0.022-0.114,0.002-0.224,0-0.337      c-0.003-0.2,0.017-0.379-0.078-0.55c-0.38-0.688-1.236-0.929-1.975-0.789c-0.18,0.034-0.287,0.126-0.442,0.207      c-0.17,0.088-0.139,0.166-0.318,0.224c-0.081,0.026-0.216,0.124-0.215,0.224c0.001,0.115,0.005,0.051,0.012,0.169      c-0.021,0.011-0.021-0.005-0.03-0.025"/>
				<path fill="#000000" d="M46.458-10.431c0.018,0.072,0.007,0.127-0.026,0.19c-0.053,0.101-0.112,0.063-0.165,0.128      c-0.05,0.063-0.099,0.276-0.079,0.362c-0.169,0.058-0.009,0.227-0.015,0.35c-0.002,0.05-0.041,0.105-0.045,0.161      c-0.01,0.119,0.017,0.266,0.068,0.37c0.097,0.198,0.268,0.413,0.435,0.544c0.19,0.148,0.365,0.572,0.608,0.631      c0.177,0.042,0.384-0.104,0.543-0.143c0.18-0.043,0.397,0.01,0.571-0.053c0.222-0.079,0.127-0.337,0.288-0.45      c0.104-0.074,0.287-0.01,0.406-0.051c0.2-0.069,0.339-0.263,0.376-0.46c0.016-0.082,0.01-0.145,0.039-0.221      c0.039-0.103,0.111-0.16,0.09-0.293c-0.01-0.062-0.052-0.12-0.064-0.187c-0.022-0.114,0.002-0.224,0-0.337      c-0.003-0.2,0.017-0.379-0.078-0.55c-0.38-0.688-1.236-0.929-1.975-0.789c-0.18,0.034-0.287,0.126-0.442,0.207      c-0.17,0.088-0.139,0.166-0.318,0.224c-0.081,0.026-0.216,0.124-0.215,0.224c0.001,0.115,0.005,0.051,0.012,0.169      c-0.021,0.011-0.021-0.005-0.03-0.025"/>
				<path fill="#000000" d="M38.797-10.431c0.018,0.072,0.007,0.127-0.026,0.19c-0.053,0.101-0.112,0.063-0.165,0.128      c-0.05,0.063-0.099,0.276-0.079,0.362c-0.169,0.058-0.009,0.227-0.015,0.35c-0.002,0.05-0.041,0.105-0.045,0.161      c-0.01,0.119,0.017,0.266,0.068,0.37c0.097,0.198,0.268,0.413,0.435,0.544c0.19,0.148,0.365,0.572,0.608,0.631      c0.177,0.042,0.384-0.104,0.543-0.143c0.18-0.043,0.397,0.01,0.571-0.053c0.222-0.079,0.127-0.337,0.288-0.45      c0.104-0.074,0.287-0.01,0.406-0.051c0.2-0.069,0.339-0.263,0.376-0.46c0.016-0.082,0.01-0.145,0.039-0.221      c0.039-0.103,0.111-0.16,0.09-0.293c-0.01-0.062-0.052-0.12-0.064-0.187c-0.022-0.114,0.002-0.224,0-0.337      c-0.003-0.2,0.017-0.379-0.078-0.55c-0.38-0.688-1.236-0.929-1.975-0.789c-0.18,0.034-0.287,0.126-0.442,0.207      c-0.17,0.088-0.139,0.166-0.318,0.224c-0.081,0.026-0.216,0.124-0.215,0.224c0.001,0.115,0.005,0.051,0.012,0.169      c-0.021,0.011-0.021-0.005-0.03-0.025"/>
				<path fill="#000000" d="M31.137-10.431c0.018,0.072,0.007,0.127-0.026,0.19c-0.053,0.101-0.112,0.063-0.165,0.128      c-0.05,0.063-0.099,0.276-0.079,0.362c-0.169,0.058-0.009,0.227-0.015,0.35c-0.002,0.05-0.041,0.105-0.045,0.161      c-0.01,0.119,0.017,0.266,0.068,0.37c0.097,0.198,0.268,0.413,0.435,0.544c0.19,0.148,0.365,0.572,0.608,0.631      c0.177,0.042,0.384-0.104,0.543-0.143c0.18-0.043,0.397,0.01,0.571-0.053c0.222-0.079,0.127-0.337,0.288-0.45      c0.104-0.074,0.287-0.01,0.406-0.051c0.2-0.069,0.339-0.263,0.376-0.46c0.016-0.082,0.01-0.145,0.039-0.221      c0.039-0.103,0.111-0.16,0.09-0.293c-0.01-0.062-0.052-0.12-0.064-0.187c-0.022-0.114,0.002-0.224,0-0.337      c-0.003-0.2,0.017-0.379-0.078-0.55c-0.38-0.688-1.236-0.929-1.975-0.789c-0.18,0.034-0.287,0.126-0.442,0.207      c-0.17,0.088-0.139,0.166-0.318,0.224c-0.081,0.026-0.216,0.124-0.215,0.224c0.001,0.115,0.005,0.051,0.012,0.169      c-0.021,0.011-0.021-0.005-0.03-0.025"/>
				<path fill="#000000" d="M23.477-10.431c0.018,0.072,0.007,0.127-0.026,0.19c-0.053,0.101-0.112,0.063-0.165,0.128      c-0.05,0.063-0.099,0.276-0.079,0.362c-0.169,0.058-0.009,0.227-0.015,0.35c-0.002,0.05-0.041,0.105-0.045,0.161      c-0.01,0.119,0.017,0.266,0.068,0.37c0.097,0.198,0.268,0.413,0.435,0.544c0.19,0.148,0.365,0.572,0.608,0.631      c0.177,0.042,0.384-0.104,0.543-0.143c0.18-0.043,0.397,0.01,0.571-0.053c0.222-0.079,0.127-0.337,0.288-0.45      c0.104-0.074,0.287-0.01,0.406-0.051c0.2-0.069,0.339-0.263,0.376-0.46c0.016-0.082,0.01-0.145,0.039-0.221      c0.039-0.103,0.111-0.16,0.09-0.293c-0.01-0.062-0.052-0.12-0.064-0.187c-0.022-0.114,0.002-0.224,0-0.337      c-0.003-0.2,0.017-0.379-0.078-0.55c-0.38-0.688-1.236-0.929-1.975-0.789c-0.18,0.034-0.287,0.126-0.442,0.207      c-0.17,0.088-0.139,0.166-0.318,0.224c-0.081,0.026-0.216,0.124-0.215,0.224c0.001,0.115,0.005,0.051,0.012,0.169      c-0.021,0.011-0.021-0.005-0.03-0.025"/>
				<path fill="#000000" d="M15.816-10.431c0.018,0.072,0.007,0.127-0.026,0.19c-0.053,0.101-0.112,0.063-0.165,0.128      c-0.05,0.063-0.099,0.276-0.079,0.362c-0.169,0.058-0.009,0.227-0.015,0.35c-0.002,0.05-0.041,0.105-0.045,0.161      c-0.01,0.119,0.017,0.266,0.068,0.37c0.097,0.198,0.268,0.413,0.435,0.544c0.19,0.148,0.365,0.572,0.608,0.631      c0.177,0.042,0.384-0.104,0.543-0.143c0.18-0.043,0.397,0.01,0.571-0.053C17.933-7.969,17.839-8.227,18-8.34      c0.104-0.074,0.287-0.01,0.406-0.051c0.2-0.069,0.339-0.263,0.376-0.46c0.016-0.082,0.01-0.145,0.039-0.221      c0.039-0.103,0.111-0.16,0.09-0.293c-0.01-0.062-0.052-0.12-0.064-0.187c-0.022-0.114,0.002-0.224,0-0.337      c-0.003-0.2,0.017-0.379-0.078-0.55c-0.38-0.688-1.236-0.929-1.975-0.789c-0.18,0.034-0.287,0.126-0.442,0.207      c-0.17,0.088-0.139,0.166-0.318,0.224c-0.081,0.026-0.216,0.124-0.215,0.224c0.001,0.115,0.005,0.051,0.012,0.169      c-0.021,0.011-0.021-0.005-0.03-0.025"/>
				<path fill="#000000" d="M8.156-10.431c0.018,0.072,0.007,0.127-0.026,0.19c-0.053,0.101-0.112,0.063-0.165,0.128      C7.915-10.05,7.866-9.836,7.886-9.75C7.717-9.692,7.876-9.523,7.871-9.4C7.868-9.351,7.83-9.295,7.826-9.239      c-0.01,0.119,0.017,0.266,0.068,0.37c0.097,0.198,0.268,0.413,0.435,0.544c0.19,0.148,0.365,0.572,0.608,0.631      C9.114-7.652,9.321-7.799,9.48-7.837c0.18-0.043,0.397,0.01,0.571-0.053c0.222-0.079,0.127-0.337,0.288-0.45      c0.104-0.074,0.287-0.01,0.406-0.051c0.2-0.069,0.339-0.263,0.376-0.46c0.016-0.082,0.01-0.145,0.039-0.221      c0.039-0.103,0.111-0.16,0.09-0.293c-0.01-0.062-0.052-0.12-0.064-0.187c-0.022-0.114,0.002-0.224,0-0.337      c-0.003-0.2,0.017-0.379-0.078-0.55c-0.38-0.688-1.236-0.929-1.975-0.789c-0.18,0.034-0.287,0.126-0.442,0.207      c-0.17,0.088-0.139,0.166-0.318,0.224c-0.081,0.026-0.216,0.124-0.215,0.224c0.001,0.115,0.005,0.051,0.012,0.169      c-0.021,0.011-0.021-0.005-0.03-0.025"/>
				<path fill="#000000" d="M0.495-10.431c0.018,0.072,0.007,0.127-0.026,0.19c-0.053,0.101-0.112,0.063-0.165,0.128      C0.254-10.05,0.205-9.836,0.225-9.75C0.056-9.692,0.215-9.523,0.21-9.4c-0.002,0.05-0.041,0.105-0.045,0.161      c-0.01,0.119,0.017,0.266,0.068,0.37C0.33-8.671,0.501-8.456,0.668-8.325c0.19,0.148,0.365,0.572,0.608,0.631      C1.454-7.652,1.66-7.799,1.819-7.837C2-7.88,2.217-7.827,2.391-7.89c0.222-0.079,0.127-0.337,0.288-0.45      c0.104-0.074,0.287-0.01,0.406-0.051c0.2-0.069,0.339-0.263,0.376-0.46C3.477-8.933,3.471-8.995,3.5-9.071      c0.039-0.103,0.111-0.16,0.09-0.293c-0.01-0.062-0.052-0.12-0.064-0.187c-0.022-0.114,0.002-0.224,0-0.337      c-0.003-0.2,0.017-0.379-0.078-0.55c-0.38-0.688-1.236-0.929-1.975-0.789c-0.18,0.034-0.287,0.126-0.442,0.207      c-0.17,0.088-0.139,0.166-0.318,0.224c-0.081,0.026-0.216,0.124-0.215,0.224c0.001,0.115,0.005,0.051,0.012,0.169      c-0.021,0.011-0.021-0.005-0.03-0.025"/>
			</g>
		</g>
		<g>
			<path fill="#000000" d="M69.439-2.778c0.018,0.072,0.008,0.127-0.026,0.19C69.361-2.487,69.3-2.525,69.248-2.46     c-0.051,0.063-0.099,0.276-0.079,0.362C69-2.04,69.159-1.871,69.154-1.748c-0.002,0.05-0.041,0.105-0.045,0.161     c-0.01,0.119,0.017,0.266,0.068,0.37c0.097,0.198,0.268,0.413,0.435,0.544c0.19,0.148,0.365,0.572,0.608,0.631     C70.397,0,70.604-0.146,70.763-0.185c0.18-0.043,0.397,0.01,0.571-0.053c0.222-0.079,0.127-0.337,0.288-0.45     c0.104-0.074,0.287-0.01,0.406-0.051c0.2-0.07,0.339-0.263,0.376-0.46c0.016-0.082,0.01-0.145,0.039-0.221     c0.038-0.103,0.111-0.16,0.09-0.293c-0.01-0.062-0.051-0.12-0.064-0.187c-0.021-0.114,0.002-0.224,0-0.337     c-0.003-0.2,0.017-0.379-0.078-0.55c-0.38-0.688-1.236-0.929-1.975-0.789c-0.18,0.034-0.287,0.126-0.442,0.207     c-0.17,0.088-0.139,0.166-0.318,0.224c-0.081,0.026-0.215,0.124-0.215,0.224c0.002,0.115,0.005,0.051,0.012,0.169     c-0.021,0.011-0.021-0.005-0.03-0.025"/>
			<path fill="#000000" d="M61.778-2.778c0.018,0.072,0.007,0.127-0.026,0.19C61.7-2.487,61.64-2.525,61.587-2.46     c-0.05,0.063-0.099,0.276-0.079,0.362c-0.169,0.058-0.01,0.227-0.015,0.35c-0.002,0.05-0.041,0.105-0.045,0.161     c-0.01,0.119,0.017,0.266,0.068,0.37c0.097,0.198,0.268,0.413,0.435,0.544c0.19,0.148,0.365,0.572,0.608,0.631     C62.737,0,62.943-0.146,63.103-0.185c0.18-0.043,0.397,0.01,0.571-0.053c0.222-0.079,0.127-0.337,0.288-0.45     c0.104-0.074,0.287-0.01,0.406-0.051c0.2-0.069,0.339-0.263,0.376-0.46c0.016-0.082,0.01-0.145,0.039-0.221     c0.039-0.103,0.111-0.16,0.09-0.293c-0.01-0.062-0.052-0.12-0.064-0.187c-0.022-0.114,0.002-0.224,0-0.337     c-0.003-0.2,0.017-0.379-0.078-0.55c-0.38-0.688-1.236-0.929-1.975-0.789c-0.18,0.034-0.287,0.126-0.442,0.207     c-0.17,0.088-0.139,0.166-0.318,0.224C61.915-3.117,61.78-3.02,61.781-2.92c0.001,0.115,0.005,0.051,0.012,0.169     c-0.021,0.011-0.021-0.005-0.03-0.025"/>
			<path fill="#000000" d="M54.118-2.778c0.018,0.072,0.007,0.127-0.026,0.19C54.04-2.487,53.98-2.525,53.927-2.46     c-0.05,0.063-0.099,0.276-0.079,0.362c-0.169,0.058-0.01,0.227-0.015,0.35c-0.002,0.05-0.041,0.105-0.045,0.161     c-0.01,0.119,0.017,0.266,0.068,0.37c0.097,0.198,0.268,0.413,0.435,0.544c0.19,0.148,0.365,0.572,0.608,0.631     C55.077,0,55.283-0.146,55.442-0.185c0.18-0.043,0.397,0.01,0.571-0.053c0.222-0.079,0.127-0.337,0.288-0.45     c0.104-0.074,0.287-0.01,0.406-0.051c0.2-0.069,0.339-0.263,0.376-0.46c0.016-0.082,0.01-0.145,0.039-0.221     c0.039-0.103,0.111-0.16,0.09-0.293c-0.01-0.062-0.052-0.12-0.064-0.187c-0.022-0.114,0.002-0.224,0-0.337     c-0.003-0.2,0.017-0.379-0.078-0.55c-0.38-0.688-1.236-0.929-1.975-0.789c-0.18,0.034-0.287,0.126-0.442,0.207     c-0.17,0.088-0.139,0.166-0.318,0.224C54.255-3.117,54.12-3.02,54.121-2.92c0.001,0.115,0.005,0.051,0.012,0.169     c-0.021,0.011-0.021-0.005-0.03-0.025"/>
			<path fill="#000000" d="M46.458-2.778c0.018,0.072,0.007,0.127-0.026,0.19c-0.053,0.101-0.112,0.063-0.165,0.128     c-0.05,0.063-0.099,0.276-0.079,0.362c-0.169,0.058-0.01,0.227-0.015,0.35c-0.002,0.05-0.041,0.105-0.045,0.161     c-0.01,0.119,0.017,0.266,0.068,0.37c0.097,0.198,0.268,0.413,0.435,0.544c0.19,0.148,0.365,0.572,0.608,0.631     C47.416,0,47.623-0.146,47.782-0.185c0.18-0.043,0.397,0.01,0.571-0.053c0.222-0.079,0.127-0.337,0.288-0.45     c0.104-0.074,0.287-0.01,0.406-0.051c0.2-0.069,0.339-0.263,0.376-0.46c0.016-0.082,0.01-0.145,0.039-0.221     c0.039-0.103,0.111-0.16,0.09-0.293c-0.01-0.062-0.052-0.12-0.064-0.187c-0.022-0.114,0.002-0.224,0-0.337     c-0.003-0.2,0.017-0.379-0.078-0.55c-0.38-0.688-1.236-0.929-1.975-0.789c-0.18,0.034-0.287,0.126-0.442,0.207     c-0.17,0.088-0.139,0.166-0.318,0.224C46.594-3.117,46.459-3.02,46.46-2.92c0.001,0.115,0.005,0.051,0.012,0.169     c-0.021,0.011-0.021-0.005-0.03-0.025"/>
			<path fill="#000000" d="M38.797-2.778c0.018,0.072,0.007,0.127-0.026,0.19c-0.053,0.101-0.112,0.063-0.165,0.128     c-0.05,0.063-0.099,0.276-0.079,0.362c-0.169,0.058-0.01,0.227-0.015,0.35c-0.002,0.05-0.041,0.105-0.045,0.161     c-0.01,0.119,0.017,0.266,0.068,0.37c0.097,0.198,0.268,0.413,0.435,0.544c0.19,0.148,0.365,0.572,0.608,0.631     C39.756,0,39.962-0.146,40.122-0.185c0.18-0.043,0.397,0.01,0.571-0.053c0.222-0.079,0.127-0.337,0.288-0.45     c0.104-0.074,0.287-0.01,0.406-0.051c0.2-0.069,0.339-0.263,0.376-0.46c0.016-0.082,0.01-0.145,0.039-0.221     c0.039-0.103,0.111-0.16,0.09-0.293c-0.01-0.062-0.052-0.12-0.064-0.187c-0.022-0.114,0.002-0.224,0-0.337     c-0.003-0.2,0.017-0.379-0.078-0.55c-0.38-0.688-1.236-0.929-1.975-0.789c-0.18,0.034-0.287,0.126-0.442,0.207     c-0.17,0.088-0.139,0.166-0.318,0.224C38.934-3.117,38.799-3.02,38.8-2.92c0.001,0.115,0.005,0.051,0.012,0.169     c-0.021,0.011-0.021-0.005-0.03-0.025"/>
			<path fill="#000000" d="M31.137-2.778c0.018,0.072,0.007,0.127-0.026,0.19c-0.053,0.101-0.112,0.063-0.165,0.128     c-0.05,0.063-0.099,0.276-0.079,0.362c-0.169,0.058-0.01,0.227-0.015,0.35c-0.002,0.05-0.041,0.105-0.045,0.161     c-0.01,0.119,0.017,0.266,0.068,0.37c0.097,0.198,0.268,0.413,0.435,0.544c0.19,0.148,0.365,0.572,0.608,0.631     C32.095,0,32.302-0.146,32.461-0.185c0.18-0.043,0.397,0.01,0.571-0.053c0.222-0.079,0.127-0.337,0.288-0.45     c0.104-0.074,0.287-0.01,0.406-0.051c0.2-0.069,0.339-0.263,0.376-0.46c0.016-0.082,0.01-0.145,0.039-0.221     c0.039-0.103,0.111-0.16,0.09-0.293c-0.01-0.062-0.052-0.12-0.064-0.187c-0.022-0.114,0.002-0.224,0-0.337     c-0.003-0.2,0.017-0.379-0.078-0.55c-0.38-0.688-1.236-0.929-1.975-0.789c-0.18,0.034-0.287,0.126-0.442,0.207     c-0.17,0.088-0.139,0.166-0.318,0.224C31.273-3.117,31.139-3.02,31.14-2.92c0.001,0.115,0.005,0.051,0.012,0.169     c-0.021,0.011-0.021-0.005-0.03-0.025"/>
			<path fill="#000000" d="M23.477-2.778c0.018,0.072,0.007,0.127-0.026,0.19c-0.053,0.101-0.112,0.063-0.165,0.128     c-0.05,0.063-0.099,0.276-0.079,0.362c-0.169,0.058-0.01,0.227-0.015,0.35c-0.002,0.05-0.041,0.105-0.045,0.161     c-0.01,0.119,0.017,0.266,0.068,0.37c0.097,0.198,0.268,0.413,0.435,0.544c0.19,0.148,0.365,0.572,0.608,0.631     C24.435,0,24.642-0.146,24.801-0.185c0.18-0.043,0.397,0.01,0.571-0.053c0.222-0.079,0.127-0.337,0.288-0.45     c0.104-0.074,0.287-0.01,0.406-0.051c0.2-0.069,0.339-0.263,0.376-0.46c0.016-0.082,0.01-0.145,0.039-0.221     c0.039-0.103,0.111-0.16,0.09-0.293c-0.01-0.062-0.052-0.12-0.064-0.187c-0.022-0.114,0.002-0.224,0-0.337     c-0.003-0.2,0.017-0.379-0.078-0.55c-0.38-0.688-1.236-0.929-1.975-0.789c-0.18,0.034-0.287,0.126-0.442,0.207     c-0.17,0.088-0.139,0.166-0.318,0.224c-0.081,0.026-0.216,0.124-0.215,0.224c0.001,0.115,0.005,0.051,0.012,0.169     c-0.021,0.011-0.021-0.005-0.03-0.025"/>
			<path fill="#000000" d="M15.816-2.778c0.018,0.072,0.007,0.127-0.026,0.19c-0.053,0.101-0.112,0.063-0.165,0.128     c-0.05,0.063-0.099,0.276-0.079,0.362c-0.169,0.058-0.01,0.227-0.015,0.35c-0.002,0.05-0.041,0.105-0.045,0.161     c-0.01,0.119,0.017,0.266,0.068,0.37c0.097,0.198,0.268,0.413,0.435,0.544c0.19,0.148,0.365,0.572,0.608,0.631     C16.774,0,16.981-0.146,17.14-0.185c0.18-0.043,0.397,0.01,0.571-0.053c0.222-0.079,0.127-0.337,0.288-0.45     c0.104-0.074,0.287-0.01,0.406-0.051c0.2-0.069,0.339-0.263,0.376-0.46c0.016-0.082,0.01-0.145,0.039-0.221     c0.039-0.103,0.111-0.16,0.09-0.293c-0.01-0.062-0.052-0.12-0.064-0.187c-0.022-0.114,0.002-0.224,0-0.337     c-0.003-0.2,0.017-0.379-0.078-0.55c-0.38-0.688-1.236-0.929-1.975-0.789c-0.18,0.034-0.287,0.126-0.442,0.207     c-0.17,0.088-0.139,0.166-0.318,0.224c-0.081,0.026-0.216,0.124-0.215,0.224c0.001,0.115,0.005,0.051,0.012,0.169     C15.81-2.74,15.809-2.756,15.8-2.776"/>
			<path fill="#000000" d="M8.156-2.778c0.018,0.072,0.007,0.127-0.026,0.19C8.077-2.487,8.018-2.525,7.965-2.46     c-0.05,0.063-0.099,0.276-0.079,0.362c-0.169,0.058-0.01,0.227-0.015,0.35C7.868-1.698,7.83-1.643,7.826-1.587     c-0.01,0.119,0.017,0.266,0.068,0.37c0.097,0.198,0.268,0.413,0.435,0.544c0.19,0.148,0.365,0.572,0.608,0.631     C9.114,0,9.321-0.146,9.48-0.185c0.18-0.043,0.397,0.01,0.571-0.053c0.222-0.079,0.127-0.337,0.288-0.45     c0.104-0.074,0.287-0.01,0.406-0.051c0.2-0.069,0.339-0.263,0.376-0.46c0.016-0.082,0.01-0.145,0.039-0.221     c0.039-0.103,0.111-0.16,0.09-0.293c-0.01-0.062-0.052-0.12-0.064-0.187c-0.022-0.114,0.002-0.224,0-0.337     c-0.003-0.2,0.017-0.379-0.078-0.55c-0.38-0.688-1.236-0.929-1.975-0.789C8.954-3.54,8.847-3.448,8.692-3.367     c-0.17,0.088-0.139,0.166-0.318,0.224C8.292-3.117,8.158-3.02,8.159-2.92C8.16-2.805,8.164-2.869,8.17-2.751     C8.15-2.74,8.149-2.756,8.14-2.776"/>
			<path fill="#000000" d="M0.495-2.778c0.018,0.072,0.008,0.127-0.026,0.19C0.417-2.487,0.356-2.525,0.304-2.46     C0.253-2.397,0.205-2.184,0.225-2.098C0.056-2.04,0.215-1.871,0.21-1.748c-0.002,0.05-0.041,0.105-0.045,0.161     c-0.01,0.119,0.017,0.266,0.068,0.37C0.33-1.019,0.501-0.804,0.668-0.673c0.19,0.148,0.365,0.572,0.608,0.631     C1.454,0,1.66-0.146,1.819-0.185C2-0.228,2.217-0.175,2.391-0.237c0.222-0.079,0.127-0.337,0.288-0.45     c0.104-0.074,0.287-0.01,0.406-0.051c0.2-0.07,0.339-0.263,0.376-0.46C3.477-1.28,3.471-1.343,3.5-1.419     c0.038-0.103,0.111-0.16,0.09-0.293c-0.01-0.062-0.051-0.12-0.064-0.187c-0.021-0.114,0.002-0.224,0-0.337     c-0.003-0.2,0.017-0.379-0.078-0.55c-0.38-0.688-1.236-0.929-1.975-0.789C1.293-3.54,1.187-3.448,1.031-3.367     c-0.17,0.088-0.139,0.166-0.318,0.224C0.632-3.117,0.498-3.02,0.498-2.92C0.5-2.805,0.503-2.869,0.51-2.751     C0.489-2.74,0.488-2.756,0.479-2.776"/>
		</g>
	</g>
</pattern>
<path d="M50,18.691c14.383,0,28.053-1.326,36.816-3.516c-1.081-2.383-3.665-4.182-6.828-4.649c-0.413-1.314-1.886-2.288-3.645-2.288  c-0.184,0-0.362,0.014-0.539,0.035c0-0.012,0.002-0.023,0.002-0.035c0-1.437-1.444-2.602-3.226-2.602  c-0.534,0-1.037,0.106-1.48,0.292c-0.645-2.638-3.527-4.627-6.987-4.627c-1.777,0-3.4,0.525-4.648,1.394  c-0.666-0.433-1.5-0.7-2.411-0.735c-1.347-0.949-3.108-1.525-5.037-1.525c-1.281,0-2.487,0.254-3.547,0.702  C47.332,0.425,45.905,0,44.355,0c-2.889,0-5.352,1.471-6.301,3.534c-0.429-0.112-0.886-0.173-1.36-0.173  c-1.516,0-2.852,0.614-3.652,1.55c-1.058-0.502-2.29-0.791-3.605-0.791c-3.337,0-6.138,1.85-6.911,4.349  c-2.223,0.134-3.977,1.628-3.977,3.456c0,0.014,0.002,0.027,0.002,0.041c-0.221-0.024-0.445-0.041-0.674-0.041  c-2.405,0-4.411,1.377-4.873,3.207C21.759,17.347,35.518,18.691,50,18.691z"/>
<path d="M99.65,38.186l-6.173-20.146c-0.207-0.677-0.833-1.14-1.542-1.14h-0.877c-0.167,0-0.333,0.026-0.492,0.077  C81.803,19.78,66.638,21.455,50,21.455c-16.637,0-31.802-1.674-40.567-4.479c-0.159-0.051-0.325-0.077-0.492-0.077H8.064  c-0.709,0-1.334,0.463-1.542,1.14L0.35,38.186C0.118,38.693,0,39.219,0,39.749c0,3.587,5.06,6.342,15.469,8.424  c9.24,1.848,21.503,2.866,34.531,2.866c13.027,0,25.291-1.019,34.531-2.866C94.94,46.091,100,43.336,100,39.749  C100,39.219,99.883,38.693,99.65,38.186z"/>
</svg>
