<svg xmlns="http://www.w3.org/2000/svg" xmlns:xlink="http://www.w3.org/1999/xlink" version="1.1" id="Your_Icon" x="0px" y="0px" width="100px" height="100px" viewBox="0 0 100 100" enable-background="new 0 0 100 100" xml:space="preserve">
<path d="M1134.113-3146.286l38.325,260.837c0.324,0.238,1.758,1.215,1.758,1.215c0.595,0.369,1.227,0.743,2.087,1.247l0.955,0.57  c0.67,0.369,3.409,1.84,3.409,1.84c0.802,0.406,4.205,2.013,4.205,2.013c0.86,0.39,1.763,0.781,2.852,1.27l2.028,0.856  c0.939,0.396,1.896,0.766,2.814,1.118l2.447,0.955c0.998,0.374,2.028,0.743,3.16,1.155l2.564,0.879  c1.066,0.374,2.16,0.728,3.249,1.096l3.042,0.961c1.131,0.33,2.278,0.684,3.484,1.053l3.137,0.9l3.691,1.015l3.578,0.938  c1.168,0.293,2.353,0.608,3.791,0.938l3.234,0.781l4.359,0.997l3.408,0.744l4.535,0.917l4.131,0.804l4.264,0.803l8.591,1.465  c1.534,0.233,8.899,1.367,8.899,1.367l9.318,1.231l9.525,1.134l9.701,0.982l10.083,0.835l10.142,0.706l10.349,0.548  c1.8,0.082,10.604,0.411,10.604,0.411c2.411,0.061,4.88,0.115,7.29,0.158l3.483,0.076c3.632,0.061,7.269,0.098,10.943,0.098  c3.669,0,7.306-0.037,10.923-0.098l3.461-0.076c2.453-0.043,4.901-0.098,7.232-0.158c0,0,8.898-0.329,10.678-0.411  c0,0,8.724-0.45,10.407-0.548l10.259-0.706l9.907-0.835l9.817-0.999l9.431-1.095l9.186-1.231c0,0,7.503-1.156,9.128-1.407  c1.359-0.216,8.687-1.485,8.687-1.485l8.171-1.547l8.014-1.697l3.791-0.862l3.961-0.918c1.205-0.313,2.41-0.607,3.689-0.938  l3.542-0.922c1.205-0.331,2.39-0.663,3.483-0.978l3.271-0.938l3.462-1.037l2.984-0.954c1.109-0.353,2.203-0.728,3.35-1.097  l2.581-0.923c1.052-0.368,2.108-0.737,3.255-1.187l2.277-0.863c0.973-0.391,1.934-0.76,3-1.232l1.992-0.818  c0.896-0.392,1.8-0.782,2.852-1.27l1.646-0.787c0.802-0.368,1.608-0.743,2.411-1.172c0,0,2.925-1.54,3.461-1.855l0.897-0.526  c0,0,1.593-0.938,2.108-1.291c0,0,1.529-0.998,1.816-1.215l38.304-260.837c-55.715-13.434-135.19-21.838-223.434-21.838  C1269.31-3168.124,1189.828-3159.72,1134.113-3146.286z"/>
<path d="M-12.223-3329.768c126.181-36.563,214.323-162.531,214.323-306.34c0-33.154-4.69-65.947-13.93-97.444  c-0.25-0.86-0.596-1.646-1.036-2.353c-20.873-43.699-241.02-45.802-266.831-45.897c-25.599,0.096-241.556,2.178-266.083,44.751  c-0.764,1.014-1.38,2.198-1.763,3.499c-9.239,31.551-13.948,64.327-13.948,97.444c0,143.809,88.131,269.776,214.312,306.34  c8.569,2.49,30.802,14.007,30.802,37.142l0.021,281.713c-2.161,120.939-37.651,152.703-94.248,164.734  c-16.189,3.446-29.427,6.165-40.222,8.4c-45.419,9.355-51.276,10.566-54.048,21.414c-0.175,0.743-0.329,1.985-0.329,2.756  c0,47.66,166.864,54.275,200.421,55.078c8.23,0.212,16.609,0.53,25.067,0.53h0.054c8.495,0,16.858-0.318,25.179-0.53  c33.467-0.803,200.325-7.314,200.325-54.975c0-0.919-0.212-2.505-0.44-3.402c-2.697-10.253-8.512-11.516-53.856-20.85  c-10.832-2.241-24.082-4.976-40.309-8.422C-5.739-2858.306-41-2890.563-43-3013.669v-278.957  C-43-3315.761-20.798-3327.277-12.223-3329.768z M-79.696-3760.26c144.933,0.529,237.06,19.439,246.684,31.865  c-24.234,14.286-113.71,30.154-246.657,30.641c-132.323-0.483-221.581-16.195-246.303-30.514  C-313.815-3741.397-222.31-3759.738-79.696-3760.26z M46.537-2825.131c16.284,3.462,29.689,6.218,40.537,8.458  c14.31,2.947,26.035,5.348,33.177,7.126c-15.271,10.715-72.27,26.793-175.321,29.283c-8.076,0.17-16.248,0.264-24.589,0.264h-0.054  c-8.304,0-16.497-0.094-24.663-0.264c-103.455-2.49-160.566-18.722-175.471-29.246c7.115-1.778,18.902-4.199,33.366-7.189  c10.832-2.234,24.026-4.973,40.268-8.435C-129.221-2841.509-97-2895.214-95-3010.722v-281.904c0-35.113-30.239-53.172-46.258-57.802  c-117.037-33.924-198.727-151.381-198.727-285.68c0-28.584,3.752-56.899,11.098-84.289c39.425,22.119,161.945,30.938,249.207,31.255  c87.248-0.316,209.776-9.14,249.173-31.268c7.34,27.354,11.06,55.686,11.06,84.302c0,134.277-81.954,251.756-199.013,285.68  c-16.014,4.646-46.539,22.71-46.539,57.802v279.096C-63-2896.19-30.97-2841.602,46.537-2825.131z"/>
<path d="M-525.745-3998.735c-64.519-14.905-172.34-23.82-288.729-23.82c-116.044,0-223.852,8.915-288.349,23.82  c-49.27,11.347-59.763,23.304-63.682,32.107c-0.616,1.699-0.922,3.595-0.922,5.66l0.014,4.614  c1.933,295.412,29.924,429.096,59.579,570.643c22.906,109.349,46.592,222.44,57.132,418.444  c2.374,44.617,4.035,92.432,4.917,141.887c0,30.345,19.04,38.251,27.684,41.794c55.487,22.863,127.832,35.586,203.751,35.586h0.095  c75.881,0,148.221-12.723,204.244-35.799c8.113-3.33,27.133-11.193,27.112-41.332c0.939-50.564,2.602-98.392,4.975-142.106  c10.545-196.02,34.348-309.132,57.248-418.496C-491.036-3527.26-463-3660.957-461-3956.433v-4.535c0-2.065-0.418-3.961-1.357-6.467  C-465.952-3975.432-476.498-3987.389-525.745-3998.735z M-1098-3977.763c63.005-14.564,168.987-23.251,283.842-23.251  c114.509,0,220.487,8.687,283.513,23.251c31.127,7.175,42.503,13.777,46.489,17.032c-7.145,4.326-20.406,9.824-45.055,15.512  c-63.366,14.634-169.901,23.399-285.292,23.416c-115.046-0.017-221.581-8.782-284.947-23.416  c-24.62-5.682-37.879-11.173-45.012-15.546C-1140.432-3964.039-1129.034-3970.623-1098-3977.763z M-541.854-3390.15  c-23.076,110.15-46.938,224.071-57.573,421.731c-2.374,43.948-4.057,92.012-4.997,143.039c0,15.881-6.982,18.657-14.31,21.663  c-52.959,21.813-122.395,33.717-195.52,33.717h-0.154c-73.126,0-142.54-11.904-196.057-33.945  c-6.775-2.777-13.773-5.588-13.795-21.682c-0.881-49.917-2.543-97.953-4.938-142.82c-10.635-197.66-34.498-311.545-57.568-421.695  c-29.259-139.658-56.896-271.595-59.067-561.441c9.937,5.296,24.677,10.18,44.428,14.74c63.982,14.793,171.239,23.63,287.246,23.651  c115.657-0.021,222.918-8.855,286.901-23.648c19.75-4.562,34.489-9.44,44.45-14.792  C-484.979-3661.785-512.612-3529.822-541.854-3390.15z"/>
<path d="M-1365.789-2817.554c-61.439-9.908-101.39-37.693-118.763-82.599c-12.605-32.602-13.222-194.564-11.347-253.513  c3.696-114.451,21.796-156.414,51.775-225.939c16.858-39.112,37.848-87.786,61.402-162.404  c69.738-220.757,35.107-592.99,22.614-703.406c0.191-7.906-4.763-21.021-23.766-26.017c-3.043-1.316-32.697-12.568-138.712-14.568  h-25.2c-106.322,2-136.083,13.252-137.633,14.054c-20.395,5.474-25.455,18.544-25.274,26.45  c-12.476,110.416-47.087,482.747,22.614,703.446c23.564,74.618,44.543,123.313,61.407,162.403  c29.984,69.547,48.075,111.52,51.765,225.971c1.917,58.912,1.338,220.821-11.326,253.519  c-17.363,44.905-57.324,72.692-118.885,82.622c-11.058,1.912-66.438,13.011-70.848,42.994c-0.144,2.124-0.221,13.662,12.119,26.862  c20.684,22.099,76.245,48.679,223.521,48.679h9.876c147.266,0,202.826-26.58,223.513-48.678  c12.34-13.201,12.26-24.738,12.032-27.722C-1299.227-2804.523-1354.596-2815.621-1365.789-2817.554z M-1678.463-4251.396  c0.276-0.117,29.034-11.604,130.832-12.604h24.893c101.479,1,130.141,12.486,131.787,13.059c3.627,0.977,5.917,2.116,7.328,3.033  c-1.715,0.813-3.771,1.315-6.255,1.989c-0.271,0.117-29.007,11.919-133.285,12.919h-25.003c-103.864-1-132.51-12.818-133.359-13.126  c-2.162-0.58-3.987-1.086-5.538-1.792C-1685.495-4249.024-1682.845-4250.174-1678.463-4251.396z M-1322.664-2762.619  c-14.543,15.559-60.881,41.619-207.786,41.619h-9.876c-203.958,0-213.953-51.281-214.24-51.281c-0.011,0-0.011,0.007-0.011,0.027  c1.283-8.687,29.122-19.876,53.021-24.064c86.597-13.949,121.429-59.94,135.393-96.067c15.988-41.289,13.842-229.114,12.77-261.971  c-3.823-118.529-23.591-164.39-53.512-233.782c-16.667-38.67-37.417-86.771-60.643-160.337  c-67.444-213.575-35.075-574.657-22.259-691.126c1.625,0.67,3.431,1.229,5.438,1.764c1.168,0.521,29.676,12.838,136.142,13.838  h25.12c106.88-1,135.483-13.317,136.036-13.626c2.221-0.597,4.191-1.257,5.958-2.004c12.676,113.369,45.625,476.597-22.122,691.142  c-23.246,73.566-43.986,121.673-60.653,160.344c-29.926,69.393-49.688,115.256-53.517,233.785  c-1.051,32.873-3.154,220.802,12.765,261.974c13.986,36.127,48.828,82.121,135.271,96.049c24.032,4.21,51.871,15.396,53.076,23.202  C-1316.292-2773.093-1317.078-2768.564-1322.664-2762.619z"/>
<path d="M2454.117-3865.068c58.742,25.083,169.519,41.994,296.527,41.994c127.041,0,237.845-16.911,296.581-41.994  c-58.736-25.089-169.54-42-296.56-42C2623.636-3907.068,2512.859-3890.157,2454.117-3865.068z"/>
<path d="M2716.403-3482.274l0.615,0.823c0,0,22.806,30.154,33.786,30.154c10.986,0,33.521-30.117,33.521-30.117l230.994-309.977  c-65.665,18.77-159.896,30.521-264.647,30.521c-104.734,0-198.966-11.767-264.647-30.521L2716.403-3482.274z"/>
<path d="M2750.672-3973.095c-167.989,0.016-346.863,32.219-363.663,93.695c-0.882,3.175-1.339,6.388-1.339,9.563  c0,6.085,1.588,12.111,5.321,18.924l236.729,345.159c0.786,1.036,77.894,103.206,77.894,195.601  c0,29.447,2.814,75.918,5.777,125.129c4.917,81.717,10.503,174.324,6.313,229.848c-0.42,15.939-2.852,41.75-7.29,49.917  c-26.076,57.589-105.978,77.087-132.244,83.495c-3.425,0.845-6.069,1.498-7.79,2.013c-2.39,0.706-5.623,1.471-9.377,2.353  c-23.07,5.453-61.683,14.559-65.931,43.757c-0.154,2.294-0.229,14.464,13.163,28.758c22.519,24.069,82.868,52.789,242.437,52.885  h0.059c159.552-0.096,219.897-28.795,242.416-52.885c13.375-14.294,13.295-26.464,13.067-29.602  c-4.152-28.354-42.765-37.46-65.836-42.913c-3.754-0.882-6.987-1.646-9.397-2.353c-1.699-0.515-4.344-1.168-7.784-2.013  c-26.252-6.408-106.174-25.906-132.595-84.223c-4.057-7.423-6.483-33.233-6.945-49.726c-4.168-54.987,1.418-147.61,6.351-229.327  c2.968-49.195,5.782-95.666,5.782-125.113c0-92.395,77.087-194.564,78.175-196.035l231.568-337.604l5.532-8.193  c3.037-5.798,4.609-11.804,4.609-17.852c0-3.249-0.44-6.483-1.279-9.51C3097.594-3940.854,2918.735-3973.079,2750.672-3973.095z   M2856.537-3518.8c-3.371,4.402-82.295,108.908-82.295,208.646c0,28.794-2.771,74.946-5.719,123.813  c-4.976,82.406-10.619,175.811-6.351,231.737c0.191,7.27,1.545,44.331,9.181,58.222c30.382,67.142,117.977,88.508,146.75,95.532  c2.969,0.728,5.283,1.28,6.738,1.721c2.697,0.807,6.351,1.683,10.599,2.682c15.403,3.632,47.432,10.981,49.364,23.497  c-0.021,0.595-4.726,58.95-234.074,58.95h-0.059c-226.839,0-233.955-57.084-234.204-57.606c2.05-13.864,34.075-21.323,49.474-24.954  c4.247-0.999,7.9-1.818,10.582-2.625c1.471-0.44,3.786-0.965,6.754-1.692c28.773-7.024,116.347-28.376,146.368-94.771  c8.033-14.617,9.372-51.692,9.547-58.446c4.264-56.442-1.359-149.827-6.313-232.233c-2.946-48.865-5.724-95.033-5.724-123.827  c0-99.738-78.961-204.265-82.004-208.204l-222.804-324.875c55.722,34.207,182.592,56.856,328.306,56.856  c145.756,0,272.669-22.661,328.553-57.107L2856.537-3518.8z M3093.754-3866.439l-0.293,0.431  c-34.668,41.156-178.838,71.023-342.808,71.023s-308.118-29.867-342.521-70.699l-0.478-0.687c-0.293-1.166-0.443-2.316-0.443-3.466  c0-1.242,0.175-2.469,0.558-3.844c10.274-37.599,150.521-77.852,342.961-77.873c192.398,0.021,332.628,40.274,342.902,77.932  c0.346,1.221,0.499,2.469,0.499,3.785C3094.132-3868.676,3093.984-3867.516,3093.754-3866.439z"/>
<path d="M2094.771-3794.009l-3.521,0.037l-4.532-0.037c-8.855,0-216.719,0.611-216.719,54.643v920.894l-0.003,3.829  c-0.111,2.793-0.708,27.876,13.528,44.521c4.783,5.607,21.703,15.786,34.69,21.754c25.237,11.634,80.784,31.439,170.784,33.388  v-0.308c1,0.233,2.155,0.288,3,0.288h0.074c0.138,0,0.271,0.068,0.403,0.068c0.515,0,1.015-0.014,1.513-0.094  c89.236-2.103,144.628-21.779,169.748-33.354c11.288-5.203,29.691-15.642,34.9-21.727c14.272-16.667,13.699-41.747,13.657-44.907  l-0.054-923.242c0.074-0.499,0.207-2.028,0.207-2.544C2312.449-3793.397,2104.377-3794.009,2094.771-3794.009z M2087.369-3772h8.15  c120.168,0,189.073,19.817,195.203,30.335c-13.597,15.201-87.038,33.069-199.576,33.069c-111.735,0-184.937-17.556-199.277-32.688  C1900.532-3752.975,1969.076-3772,2087.369-3772z M2291-2818.473l-0.086,2.682c-0.037,0.382-0.219,1.588-0.197,1.97  c0.17,5.32-0.977,21.027-8.288,29.56c-2.257,2.278-14.788,10.407-27.686,16.338c-23.739,10.949-76.396,29.77-162.478,31.645  c-0.383,0-0.744,0.279-1.11,0.279c-0.058,0-0.111,0-0.17,0c-0.366,0-0.728-0.279-1.11-0.279  c-86.097-1.875-138.732-20.593-162.461-31.542c-12.893-5.931-25.444-14.11-27.568-16.235c-7.423-8.686-8.592-24.419-8.459-30.929  l-0.226-916.392c29.579,20.427,117.026,31.277,200.108,31.277c82.73,0,169.73-10.771,199.73-31.031V-2818.473z"/>
<path d="M-1387.843-4136.168c-0.133-0.058-0.229-0.178-0.361-0.22c0,0-27.647-11.612-134.432-13.612h-25.025  c-107.251,2-135.005,13.612-135.005,13.612c-0.111,0.021-0.218,0.111-0.335,0.168c-10.906,172.943-23.617,607.958,123.897,728.405  c4.248,3.44,15.669,11.111,23.915,11.111c8.23,0,18.026-6.769,21.738-9.732C-1364.119-3524.87-1376.899-3962.571-1387.843-4136.168z  "/>
<path d="M-814.344-3818.003c-115.487-0.479-216.701-9.627-276.414-23.326c-7.901-1.815-14.889-3.689-21.261-5.681  c-1.763-0.536-4.981-0.897-4.981,3.313c0,1.067,0,2.124,0,3.234c-2,327.844,123.223,551.644,124.657,916.571  c0.728,41.325-2.964,58.449,25.108,65.968c7.901,2.065,87.161,23.459,152.938,23.459c65.761,0,145.064-21.394,152.987-23.459  c28.046-7.519,24.44-24.643,25.167-65.968c1.434-364.928,126.291-588.728,124.857-916.571c0-1.11-0.003-2.167-0.024-3.234  c0-4.21-3.389-3.849-5.146-3.313c-6.394,1.991-13.545,3.865-21.468,5.681C-597.621-3827.63-698.852-3818.481-814.344-3818.003z"/>
<path d="M163.102-3632.449c-36.451-15.939-130.471-27.382-241.423-27.765c-113.937,0.403-209.947,12.457-244.174,29.045  c10.29,143.479,115.009,256.269,242.761,256.269C48.396-3374.9,153.342-3488.38,163.102-3632.449z"/>
<path d="M499.297-2839.646c0,0.017,0.17,0.853,0.17,0.853c0.043,0.188,0.271,0.945,0.271,0.945c0.074,0.189,0.477,1.213,0.477,1.213  c0.096,0.19,0.633,1.267,0.633,1.267c0.133,0.211,0.934,1.513,0.934,1.513c0.271,0.421,1.205,1.708,1.205,1.708  c0.234,0.3,0.574,0.698,0.904,1.098l0.822,0.962c0.244,0.305,1.492,1.592,1.492,1.592l0.42,0.414  c0.418,0.437,0.896,0.873,1.375,1.309l1.152,1.041c0.34,0.32,2.734,2.274,2.734,2.274c0.498,0.379,3.117,2.306,3.117,2.306  c0.668,0.474,1.338,0.93,2.027,1.382l1.551,1.025c0.748,0.494,1.492,0.925,2.197,1.361c0.537,0.326,1.111,0.661,1.689,1.024  c0.801,0.451,1.625,0.888,2.426,1.345c0.537,0.283,1.189,0.641,1.859,0.983c0.896,0.492,1.699,0.893,2.521,1.307l2.166,1.062  c0.824,0.396,1.684,0.794,2.545,1.171c0.838,0.4,1.623,0.736,2.389,1.078c0.844,0.362,1.705,0.719,2.564,1.098  c0.859,0.342,1.721,0.704,2.586,1.045c1.066,0.416,1.912,0.757,2.75,1.057c1.072,0.42,3.615,1.309,3.615,1.309l2.168,0.777  c1.029,0.356,1.984,0.662,2.945,0.982l2.984,0.967l4.111,1.208l1.975,0.573l3.498,0.925c0.957,0.247,1.934,0.529,2.947,0.777  c1.242,0.305,4.785,1.134,4.785,1.134l2.043,0.457l6.813,1.419c1.168,0.226,6.967,1.267,6.967,1.267l7.365,1.156  c1.094,0.151,7.348,0.945,7.348,0.945l7.652,0.813c1.338,0.133,2.639,0.248,3.924,0.343l3.807,0.304  c1.455,0.095,2.814,0.169,4.211,0.247l3.844,0.205c1.705,0.095,3.541,0.152,5.357,0.211l2.58,0.105  c1.072,0.037,2.184,0.091,3.256,0.091c0.021,0,0.021,0,0.021,0c0.016,0,0.037,0,0.037,0c1.088,0,2.16-0.054,3.248-0.091l2.604-0.088  c1.82-0.059,3.658-0.125,5.357-0.219l3.85-0.209c1.396-0.078,2.771-0.154,4.205-0.249l3.791-0.305  c1.301-0.095,2.58-0.21,3.939-0.343l7.635-0.814c0,0,6.256-0.794,7.35-0.945l7.344-1.156c0,0,5.834-1.041,7.002-1.267l6.813-1.419  l2.051-0.457c0,0,3.535-0.829,4.777-1.134c1-0.248,1.977-0.53,2.932-0.777l3.521-0.925l1.969-0.573l4.072-1.208l3.006-0.967  c0.977-0.32,1.934-0.626,2.947-0.982l2.182-0.777c0,0,2.527-0.889,3.617-1.309c0.859-0.3,1.682-0.641,2.734-1.057  c0.881-0.341,1.74-0.703,2.586-1.045c0.875-0.379,1.719-0.735,2.543-1.098c0.785-0.342,1.566-0.678,2.432-1.078  c0.859-0.377,1.699-0.775,2.543-1.171l2.162-1.062c0.801-0.414,1.623-0.814,2.527-1.307c0.668-0.343,1.316-0.7,1.852-0.983  c0.809-0.457,1.609-0.894,2.395-1.345c0.611-0.363,1.186-0.698,1.684-1.024c0.744-0.437,1.471-0.867,2.236-1.361l1.533-1.025  c0.686-0.452,1.377-0.908,2.045-1.382c0,0,2.602-1.927,3.08-2.306c0,0,2.395-1.954,2.777-2.274l1.125-1.041  c0.482-0.436,0.961-0.872,1.396-1.309l0.424-0.414c0,0,1.207-1.287,1.492-1.592l0.803-0.962c0.346-0.399,0.668-0.798,0.902-1.098  c0,0,0.955-1.287,1.242-1.708c0,0,0.766-1.302,0.898-1.513c0,0,0.535-1.076,0.631-1.267c0,0,0.404-1.023,0.479-1.213  c0,0,0.229-0.757,0.287-0.945c0,0,0.174-0.836,0.174-0.853l62.91-563.762c-42.229,22.528-116.809,37.596-202.141,38.169  c-85.297-0.573-159.861-15.641-202.127-38.169L499.297-2839.646z"/>
<path d="M447.713-3456.065c27.017,18.866,102.266,32.453,190.949,32.453c88.338,0,163.338-13.471,190.624-32.203  c-44.66-18.902-113.633-31.052-191.065-31.052C561.098-3486.867,492.41-3474.813,447.713-3456.065z"/>
<path d="M2091.139-3624c-0.021,0-0.021,0-0.037,0c-75.096,0-140.803,7.956-176.793,20.121l0.117,1.374l10.429,687.397  c0,0-0.653,25.375,15.499,41.809c37.614,34.04,91.227,55.3,150.748,55.3c0.017,0,0.017,0,0.037,0c0.021,0,0.037,0,0.059,0  c59.522,0,113.113-21.29,150.728-55.33c16.152-16.434,15.521-41.869,15.521-41.869l10.407-687.441l0.133-1.248  c-36.006-12.165-101.692-20.113-176.788-20.113C2091.176-3624,2091.16-3624,2091.139-3624z"/>
<path d="M638.488-3559.189c-113.457,0-236.771,27.876-252.902,81.222c-1.146,3.824-1.72,7.673-1.72,11.438  c0,0.711,0.037,1.396,0.095,2.107c-0.021,0.479,0,0.934,0.038,1.432l61.113,622.858l1.194,13.109  c2.433,23.638,18.286,56.219,79.99,76.309C572.397-2735.705,622.274-2734,638-2734h1c15.725,0,65.602-1.705,111.703-16.715  c61.704-20.09,77.557-52.576,79.99-76.214l1.31-14.18l60.992-621.859c0.042-0.498,0.059-0.998,0.042-1.492  c0.059-0.69,0.096-1.383,0.096-2.073c0-3.823-0.594-7.684-1.741-11.491C875.281-3531.313,751.969-3559.189,638.488-3559.189z   M808.951-2826.567c-3.824,23.866-25.637,42.437-64.904,55.222c-43.598,14.194-91.209,15.444-105.547,15.471  c-14.338-0.026-61.949-1.276-105.547-15.471c-39.165-12.751-60.963-31.259-64.87-55.034l-60.904-620.897  c36.099,32.216,126.46,54.504,231.311,54.504c104.884,0,195.256-22.295,231.334-54.507L808.951-2826.567z M871.475-3464.995  c-0.043,0.44-0.059,0.871-0.043,1.312l-0.272,2.785c-26.079,34.134-122.389,59.519-232.67,59.519  c-110.256,0-206.563-25.382-232.646-59.501l-0.377-3.853c0.021-0.615,0-1.215-0.059-1.809c0-1.721,0.27-3.459,0.785-5.259  c9.584-31.684,101.119-65.845,232.295-65.845c131.178,0,222.713,34.167,232.297,65.85  C871.32-3469.975,871.586-3468.25,871.475-3464.995z"/>
<path d="M1670.847-3344.476c-21.165-42.897-177.233-62.432-313.285-62.432c-136.057,0-292.126,19.534-313.29,62.447  c-1.779,3.616-2.676,7.365-2.676,11.177c0,0.229,0.059,0.839,0.116,1.509c-0.042,0.689,0.017,0.169,0.112,0.881l73.56,458.543  l4.047,25.227l3.702,22.604c0.575,3.445,2.753,6.412,5.867,7.994c3.648,1.854,90.953,45.401,229,45.401  c138.074,0,224.438-43.569,228.046-45.425c3.091-1.588,5.249-4.544,5.821-7.971l3.775-22.604l1.256-7.515l2.838-17.692  l73.559-458.563c0.132-0.732,0.17-0.844,0.132-1.571c0.038-0.632,0.096-0.895,0.096-1.123  C1673.522-3337.453,1672.604-3340.939,1670.847-3344.476z M1578.684-2875.848l-7.566,42.016  c-19.826,8.903-98.68,40.708-213.117,40.708c-114.512,0-194.128-31.843-214.123-40.735l-7.25-42.04l-71.135-443.435  c41.881,26.108,155.49,43.832,292.06,43.832c136.634,0,250.292-17.742,292.106-43.861L1578.684-2875.848z M1651.806-3332.783  l-0.254,1.588c-27.968,24.191-137.958,47.081-294,47.081c-155.95,0-265.9-22.861-293.953-47.02l-0.286-1.788  c-0.021-0.446-0.059-0.255-0.117-0.69l-0.111,0.231l0.515-1.724c10.429-21.145,118.376-50.336,293.963-50.336  c175.583,0,283.529,29.307,293.958,50.45c0.021,0.021,0.382,2.011,0.382,2.027  C1651.848-3332.485,1651.806-3333.239,1651.806-3332.783z"/>
<path d="M15.526,89.949c0.56,0.155,6.174,1.751,10.83,1.751c4.659,0,10.273-1.596,10.833-1.751c1.987-0.561,1.731-1.841,1.783-4.923  c0.104-27.246,8.942-43.956,8.841-68.433c0-0.083,0-0.161-0.003-0.24c0-0.314-0.237-0.287-0.362-0.247  c-0.454,0.149-0.959,0.287-1.52,0.423c-4.226,1.024-11.391,1.707-19.568,1.743c-8.174-0.037-15.336-0.719-19.565-1.743  c-0.557-0.136-1.06-0.273-1.511-0.423c-0.125-0.04-0.354-0.067-0.354,0.247c0,0.079,0,0.158,0,0.24  c-0.14,24.477,8.726,41.187,8.826,68.433C13.807,88.108,13.539,89.389,15.526,89.949z"/>
<path d="M4.451,50.544C6.16,58.71,7.927,67.151,8.717,81.787c0.176,3.33,0.301,6.901,0.365,10.593c0,2.263,1.423,2.854,2.068,3.12  c4.141,1.706,9.542,2.657,15.211,2.657h0.006c5.664,0,11.065-0.951,15.248-2.673c0.606-0.25,2.026-0.838,2.026-3.087  c0.067-3.773,0.192-7.348,0.372-10.61c0.786-14.633,2.562-23.077,4.271-31.243c2.215-10.564,4.307-20.549,4.457-42.608V7.597  c0-0.152-0.031-0.295-0.104-0.481c-0.266-0.597-1.055-1.49-4.732-2.337C43.09,3.664,35.042,3,26.353,3  C17.688,3,9.639,3.664,4.823,4.779C1.146,5.626,0.362,6.519,0.07,7.174C0.024,7.302,0,7.445,0,7.597l0.003,0.344  C0.146,29.999,2.236,39.979,4.451,50.544z M5.185,6.345c4.704-1.088,12.616-1.737,21.189-1.737c8.549,0,16.461,0.649,21.167,1.737  c2.325,0.533,3.174,1.027,3.47,1.27c-0.533,0.323-1.524,0.734-3.364,1.158c-4.731,1.094-12.683,1.746-21.298,1.749  C17.762,10.519,9.807,9.867,5.075,8.773C3.239,8.35,2.248,7.938,1.715,7.612C2.017,7.369,2.867,6.878,5.185,6.345z M4.929,9.398  c4.777,1.105,12.787,1.764,21.445,1.767c8.637-0.003,16.644-0.661,21.421-1.767c1.474-0.339,2.574-0.704,3.32-1.103  c-0.165,21.64-2.227,31.492-4.412,41.921c-1.721,8.223-3.503,16.729-4.295,31.483c-0.18,3.28-0.305,6.869-0.375,10.681  c0,1.185-0.521,1.393-1.069,1.617c-3.952,1.627-9.137,2.517-14.596,2.517h-0.013c-5.459,0-10.642-0.89-14.635-2.533  c-0.506-0.208-1.03-0.419-1.03-1.619c-0.067-3.726-0.192-7.314-0.369-10.662C9.526,66.941,7.744,58.438,6.023,50.216  C3.839,39.787,1.776,29.938,1.615,8.298C2.355,8.694,3.455,9.059,4.929,9.398z"/>
<path d="M78.959,51.547c8.881,0,16.152-7.866,16.83-17.85c-2.525-1.105-9.043-1.897-16.734-1.925  c-7.896,0.027-14.547,0.865-16.922,2.014C62.848,43.73,70.105,51.547,78.959,51.547z"/>
<path d="M73.922,54.834c0.643,0.186,2.303,1.046,2.303,2.775v21.03c-0.162,9.031-2.811,11.4-7.037,12.3  c-1.209,0.256-2.197,0.46-3.002,0.628c-3.393,0.697-3.828,0.788-4.035,1.599c-0.014,0.055-0.025,0.146-0.025,0.204  c0,3.56,12.459,4.053,14.965,4.113c0.613,0.015,1.24,0.039,1.871,0.039h0.004c0.633,0,1.258-0.024,1.879-0.039  c2.498-0.061,14.957-0.545,14.957-4.104c0-0.07-0.016-0.189-0.033-0.256c-0.201-0.765-0.637-0.859-4.021-1.557  c-0.809-0.165-1.797-0.372-3.01-0.628c-4.254-0.904-6.887-3.315-7.035-12.504V57.609c0-1.729,1.658-2.59,2.297-2.775  C93.42,52.104,100,42.7,100,31.964c0-2.474-0.35-4.923-1.041-7.275c-0.02-0.064-0.043-0.122-0.076-0.174  c-1.559-3.263-17.994-3.421-19.922-3.427c-1.91,0.006-18.033,0.162-19.865,3.339c-0.057,0.076-0.102,0.164-0.131,0.262  c-0.691,2.355-1.041,4.805-1.041,7.275C57.924,42.7,64.504,52.104,73.922,54.834z M78.961,22.696  c10.822,0.04,17.699,1.45,18.418,2.379c-1.809,1.066-8.49,2.248-18.414,2.285c-9.881-0.033-16.545-1.207-18.389-2.276  C61.484,24.104,68.314,22.733,78.961,22.696z M60.357,25.67c2.943,1.654,12.09,2.312,18.605,2.336  c6.516-0.024,15.66-0.686,18.604-2.336c0.547,2.041,0.826,4.158,0.826,6.294c0,10.026-6.119,18.797-14.859,21.33  c-1.195,0.346-3.475,1.696-3.475,4.315v20.836c0.15,8.759,2.541,12.835,8.326,14.065c1.217,0.26,2.217,0.464,3.027,0.631  c1.07,0.221,1.943,0.398,2.477,0.533c-1.141,0.798-5.396,1.999-13.09,2.185c-0.604,0.013-1.213,0.021-1.834,0.021h-0.004  c-0.621,0-1.232-0.008-1.842-0.021c-7.725-0.186-11.988-1.398-13.1-2.182c0.531-0.134,1.41-0.313,2.49-0.539  c0.809-0.164,1.795-0.368,3.006-0.628c5.748-1.224,8.152-5.233,8.303-13.855V57.609c0-2.623-2.256-3.974-3.453-4.315  c-8.738-2.533-14.836-11.304-14.836-21.33C59.529,29.831,59.809,27.717,60.357,25.67z"/>
</svg>
