<svg xmlns="http://www.w3.org/2000/svg" xmlns:xlink="http://www.w3.org/1999/xlink" version="1.1" id="Your_Icon" x="0px" y="0px" width="100px" height="100px" viewBox="0 0 100 100" enable-background="new 0 0 100 100" xml:space="preserve">
<path fill-rule="evenodd" clip-rule="evenodd" d="M92.883,75.07L92.883,75.07v1.362l-0.24,0.023  c-1.166,4.718-4.939,11.924-13.334,12.702c-9.212,0.858-16.679-5.72-16.679-10.98s7.467-10.223,16.679-11.08  c1.961-0.182,3.812-0.127,5.559,0.067V23.03l-48.615,9.211V86.68l-0.242,0.022c-1.166,4.721-4.936,11.924-13.334,12.705  C13.467,100.265,6,93.686,6,88.423c0-5.261,7.467-10.222,16.676-11.079c1.96-0.182,3.812-0.124,5.561,0.067V33.276V11.5  L92.883,0.219v21.776V75.07L92.883,75.07z"/>
</svg>
