<?xml version="1.0" encoding="UTF-8" standalone="no"?>
<!-- Generator: Adobe Illustrator 12.0.1, SVG Export Plug-In . SVG Version: 6.00 Build 51448)  -->

<svg
   xmlns:dc="http://purl.org/dc/elements/1.1/"
   xmlns:cc="http://creativecommons.org/ns#"
   xmlns:rdf="http://www.w3.org/1999/02/22-rdf-syntax-ns#"
   xmlns:svg="http://www.w3.org/2000/svg"
   xmlns="http://www.w3.org/2000/svg"
   xmlns:sodipodi="http://sodipodi.sourceforge.net/DTD/sodipodi-0.dtd"
   xmlns:inkscape="http://www.inkscape.org/namespaces/inkscape"
   version="1.1"
   id="Layer_1"
   width="850.394"
   height="850.394"
   viewBox="0 0 850.394 850.394"
   style="overflow:visible;enable-background:new 0 0 850.394 850.394;"
   xml:space="preserve"
   inkscape:version="0.48.5 r10040"
   sodipodi:docname="saturday.svg"><metadata
     id="metadata3553"><rdf:RDF><cc:Work
         rdf:about=""><dc:format>image/svg+xml</dc:format><dc:type
           rdf:resource="http://purl.org/dc/dcmitype/StillImage" /><dc:title /></cc:Work></rdf:RDF></metadata><defs
     id="defs3551" /><sodipodi:namedview
     pagecolor="#ffffff"
     bordercolor="#666666"
     borderopacity="1"
     objecttolerance="10"
     gridtolerance="10"
     guidetolerance="10"
     inkscape:pageopacity="0"
     inkscape:pageshadow="2"
     inkscape:window-width="1270"
     inkscape:window-height="902"
     id="namedview3549"
     showgrid="false"
     inkscape:zoom="0.63859578"
     inkscape:cx="466.79603"
     inkscape:cy="165.47422"
     inkscape:window-x="0"
     inkscape:window-y="0"
     inkscape:window-maximized="0"
     inkscape:current-layer="Layer_1" /><g
     id="g3293"><path
       style="fill:#fff5b4"
       d="m 126.7,448.26 c 10.56,0 19.12,-8.569 19.12,-19.13 0,-10.57 -8.56,-19.13 -19.12,-19.13 -10.57,0 -19.13,8.56 -19.13,19.13 0,10.56 8.56,19.13 19.13,19.13 z m 50.46,-70.13 V 532.31 H 76.84 V 378.13 h 100.32 z m -26.67,141.81 v -49.18 h -14.91 l -8.75,33.55 -8.83,-33.55 h -14.89 v 49.181 h 9.19 l 0.03,-38.721 9.64,38.721 h 9.61 l 9.69,-38.721 0.03,38.721 h 9.19 z"
       id="path3295"
       inkscape:connector-curvature="0" /><path
       style="fill:#fff5b4"
       d="m 333.15,470.76 h -11.82 l -8.97,33.78 -7.38,-33.78 h -10.21 l 11.7,49.181 h 10.82 l 9.76,-36.771 9.78,36.771 h 10.65 l 11.79,-49.181 h -10 l -7.47,34.351 -8.65,-34.351 z m -5.42,-22.5 c 10.56,0 19.12,-8.569 19.12,-19.13 0,-10.57 -8.56,-19.13 -19.12,-19.13 -10.57,0 -19.13,8.56 -19.13,19.13 0,10.56 8.56,19.13 19.13,19.13 z m 50.19,-70.13 V 532.31 H 277.48 V 378.13 h 100.44 z"
       id="path3297"
       inkscape:connector-curvature="0" /><path
       style="fill:#fff5b4"
       d="m 426.4,479.07 v -8.311 h -39 v 8.311 h 14.57 v 40.87 h 9.93 v -40.87 h 14.5 z m 5.81,-3.28 v 44.15 h 8.47 v -16.01 c 0,-2.689 0.25,-4.72 0.761,-6.1 0.449,-1.2 1.119,-2.14 2.02,-2.811 0.13,-0.09 0.26,-0.18 0.4,-0.27 1.1,-0.68 2.35,-1.03 3.75,-1.03 1.22,0 2.239,0.271 3.05,0.8 0.81,0.53 1.37,1.25 1.689,2.15 0.32,0.91 0.48,3.04 0.48,6.39 v 16.881 h 8.47 v -18.75 c 0,-2.87 -0.14,-4.98 -0.43,-6.351 -0.29,-1.359 -0.83,-2.609 -1.63,-3.729 -0.79,-1.12 -1.96,-2.051 -3.53,-2.771 -1.56,-0.72 -3.32,-1.08 -5.26,-1.08 -3.79,0 -7.05,1.58 -9.771,4.76 V 475.79 h -8.469 z m -4.46,-27.52 c 10.56,0 19.12,-8.569 19.12,-19.13 0,-10.57 -8.561,-19.14 -19.12,-19.14 -10.57,0 -19.13,8.57 -19.13,19.14 0,10.56 8.56,19.13 19.13,19.13 z m 50.49,-70.14 V 532.31 H 377.92 V 378.13 h 100.32 z"
       id="path3299"
       inkscape:connector-curvature="0" /><path
       style="fill:#fff5b4"
       d="m 578.55,378.21 v 154.1 h -7.1 -93.21 V 378.13 h 100.31 v 0.08 z m -32.59,92.55 h -33.69 v 49.181 h 9.94 v -20.87 h 20.5 v -8.311 h -20.5 v -11.69 h 23.75 v -8.31 z m 1.46,-41.52 c 0,-10.58 -8.56,-19.14 -19.13,-19.14 -10.56,0 -19.12,8.56 -19.12,19.14 0,10.55 8.561,19.12 19.12,19.12 10.57,0 19.13,-8.57 19.13,-19.12 z"
       id="path3301"
       inkscape:connector-curvature="0" /><path
       style="fill:#cb82b7"
       d="m 637.5,484.57 0.23,5.97 c -1.9,-0.67 -4.211,-1.32 -6.9,-1.97 -4.8,-1.141 -7.811,-2.24 -9.061,-3.29 -0.97,-0.83 -1.46,-1.83 -1.46,-3 0,-1.28 0.521,-2.29 1.551,-3.061 1.609,-1.18 3.84,-1.779 6.68,-1.779 2.75,0 4.82,0.56 6.2,1.659 1.38,1.11 2.27,2.931 2.689,5.471 h 0.071 z"
       id="path3303"
       inkscape:connector-curvature="0" /><path
       style="fill:#cb82b7"
       d="m 642.49,473.32 c -3.101,-2.71 -7.721,-4.07 -13.851,-4.07 -3.76,0 -6.96,0.57 -9.62,1.72 -2.649,1.141 -4.689,2.8 -6.1,4.98 -1.41,2.18 -2.11,4.53 -2.11,7.04 0,3.89 1.5,7.189 4.49,9.899 2.13,1.931 5.84,3.551 11.12,4.87 4.11,1.04 6.74,1.76 7.89,2.16 1.69,0.61 2.87,1.32 3.551,2.13 0.67,0.82 1.01,1.811 1.01,2.98 0,1.81 -0.8,3.399 -2.41,4.75 -1.61,1.359 -4.01,2.04 -7.18,2.04 -3,0 -5.38,-0.771 -7.15,-2.29 -1.76,-1.521 -2.93,-3.91 -3.51,-7.15 l -9.69,0.94 c 0.65,5.5 2.63,9.689 5.96,12.56 3.32,2.87 8.08,4.311 14.28,4.311 4.26,0 7.82,-0.601 10.67,-1.801 2.86,-1.189 5.07,-3.029 6.63,-5.489 1.561,-2.46 2.34,-5.11 2.34,-7.931 0,-3.109 -0.649,-5.729 -1.949,-7.84 -1.301,-2.12 -3.101,-3.79 -5.391,-5.01 -1.01,-0.53 -2.25,-1.061 -3.739,-1.58 l -0.23,-5.97 9.87,-0.38 C 647.21,479.66 645.59,476.04 642.49,473.32 z m -13.46,-25.21 c 10.56,0 19.13,-8.57 19.13,-19.12 0,-10.58 -8.57,-19.14 -19.13,-19.14 -10.57,0 -19.13,8.56 -19.13,19.14 0,10.55 8.56,19.12 19.13,19.12 z m 49.84,-69.9 V 532.38 H 571.45 v -0.07 h 7.1 v -154.1 h 100.32 z"
       id="path3305"
       inkscape:connector-curvature="0" /><path
       style="fill:#cb82b7"
       d="m 716.97,484.27 0.221,5.98 c -1.9,-0.67 -4.21,-1.33 -6.9,-1.97 -4.79,-1.15 -7.81,-2.25 -9.06,-3.3 -0.971,-0.83 -1.461,-1.83 -1.461,-2.99 0,-1.28 0.521,-2.3 1.551,-3.061 1.609,-1.189 3.84,-1.779 6.68,-1.779 2.76,0 4.82,0.55 6.2,1.659 1.38,1.11 2.28,2.931 2.689,5.46 h 0.08 z"
       id="path3307"
       inkscape:connector-curvature="0" /><path
       style="fill:#cb82b7"
       d="m 757.18,518.96 h 7.851 v -32 h -8.471 v 13.48 c 0,4.579 -0.21,7.449 -0.63,8.63 -0.42,1.17 -1.199,2.16 -2.34,2.949 -1.14,0.79 -2.43,1.19 -3.88,1.19 -1.26,0 -2.3,-0.3 -3.12,-0.89 -0.82,-0.59 -1.38,-1.391 -1.689,-2.41 -0.311,-1.01 -0.471,-3.771 -0.471,-8.26 v -14.69 h -8.47 v 20.24 c 0,3.02 0.38,5.38 1.15,7.08 0.76,1.71 1.989,3.04 3.699,3.979 1.7,0.95 3.631,1.42 5.78,1.42 2.11,0 4.11,-0.489 6,-1.479 1.9,-0.98 3.43,-2.32 4.59,-4.03 v 4.791 z M 729.52,410.1 c -10.569,0 -19.13,8.56 -19.13,19.14 0,10.55 8.561,19.12 19.13,19.12 10.561,0 19.12,-8.57 19.12,-19.12 0,-10.58 -8.56,-19.14 -19.12,-19.14 z m 49.67,-31.89 V 532.38 H 678.87 V 378.21 h 100.32 z m -62.22,106.06 9.86,-0.369 c -0.15,-4.53 -1.78,-8.16 -4.88,-10.87 -3.101,-2.71 -7.72,-4.07 -13.851,-4.07 -3.76,0 -6.96,0.57 -9.619,1.71 -2.65,1.14 -4.681,2.8 -6.091,4.99 -1.42,2.18 -2.12,4.52 -2.12,7.03 0,3.899 1.5,7.199 4.49,9.909 2.13,1.92 5.84,3.551 11.12,4.87 4.11,1.03 6.74,1.75 7.89,2.15 1.69,0.61 2.87,1.32 3.551,2.14 0.67,0.82 1.01,1.811 1.01,2.971 0,1.819 -0.8,3.399 -2.41,4.76 -1.61,1.35 -4,2.029 -7.18,2.029 -3,0 -5.38,-0.76 -7.141,-2.279 -1.77,-1.53 -2.939,-3.91 -3.52,-7.16 l -9.69,0.939 c 0.65,5.5 2.641,9.69 5.96,12.561 3.32,2.88 8.08,4.32 14.28,4.32 4.26,0 7.82,-0.601 10.67,-1.801 2.86,-1.199 5.07,-3.029 6.63,-5.489 1.561,-2.471 2.34,-5.11 2.34,-7.931 0,-3.12 -0.649,-5.729 -1.949,-7.85 -1.301,-2.11 -3.101,-3.78 -5.391,-5 -1.01,-0.53 -2.25,-1.061 -3.739,-1.58 l -0.22,-5.98 z"
       id="path3309"
       inkscape:connector-curvature="0" /><path
       style="fill:#fbed24"
       d="m 748.64,429.24 c 0,10.55 -8.56,19.12 -19.12,19.12 -10.569,0 -19.13,-8.57 -19.13,-19.12 0,-10.58 8.561,-19.14 19.13,-19.14 10.56,0 19.12,8.56 19.12,19.14 z"
       id="path3311"
       inkscape:connector-curvature="0" /><path
       style="fill:#fbed24"
       d="m 648.16,428.99 c 0,10.55 -8.57,19.12 -19.13,19.12 -10.57,0 -19.13,-8.57 -19.13,-19.12 0,-10.58 8.56,-19.14 19.13,-19.14 10.56,0 19.13,8.56 19.13,19.14 z"
       id="path3313"
       inkscape:connector-curvature="0" /><path
       style="fill:#fbed24"
       d="m 547.42,429.24 c 0,10.55 -8.56,19.12 -19.13,19.12 -10.56,0 -19.12,-8.57 -19.12,-19.12 0,-10.58 8.561,-19.14 19.12,-19.14 10.57,0 19.13,8.56 19.13,19.14 z"
       id="path3315"
       inkscape:connector-curvature="0" /><path
       style="fill:#fbed24"
       d="m 446.87,429.14 c 0,10.561 -8.561,19.13 -19.12,19.13 -10.57,0 -19.13,-8.569 -19.13,-19.13 0,-10.57 8.56,-19.14 19.13,-19.14 10.56,0 19.12,8.57 19.12,19.14 z"
       id="path3317"
       inkscape:connector-curvature="0" /><path
       style="fill:#fbed24"
       d="m 346.85,429.13 c 0,10.561 -8.56,19.13 -19.12,19.13 -10.57,0 -19.13,-8.569 -19.13,-19.13 0,-10.57 8.56,-19.13 19.13,-19.13 10.56,0 19.12,8.56 19.12,19.13 z"
       id="path3319"
       inkscape:connector-curvature="0" /><path
       style="fill:#fbed24"
       d="m 246.54,429.13 c 0,10.561 -8.56,19.13 -19.13,19.13 -10.56,0 -19.12,-8.569 -19.12,-19.13 0,-10.57 8.56,-19.13 19.12,-19.13 10.57,0 19.13,8.56 19.13,19.13 z"
       id="path3321"
       inkscape:connector-curvature="0" /><path
       style="fill:#fbed24"
       d="m 145.82,429.13 c 0,10.561 -8.56,19.13 -19.12,19.13 -10.57,0 -19.13,-8.569 -19.13,-19.13 0,-10.57 8.56,-19.13 19.13,-19.13 10.56,0 19.12,8.56 19.12,19.13 z"
       id="path3323"
       inkscape:connector-curvature="0" /><path
       style="fill:#fff5b4"
       d="m 247.12,470.76 h -39 v 8.311 h 14.57 v 40.87 h 9.93 v -40.87 h 14.5 v -8.311 z m -19.71,-22.5 c 10.57,0 19.13,-8.569 19.13,-19.13 0,-10.57 -8.56,-19.13 -19.13,-19.13 -10.56,0 -19.12,8.56 -19.12,19.13 0,10.56 8.56,19.13 19.12,19.13 z m 50.07,-70.13 V 532.31 H 177.16 V 378.13 h 100.32 z"
       id="path3325"
       inkscape:connector-curvature="0" /><path
       style="fill:#231f20"
       d="m 765.03,486.96 v 32 h -7.851 v -4.79 c -1.16,1.71 -2.689,3.05 -4.59,4.03 l -2.88,-4.99 c 1.45,0 2.74,-0.4 3.88,-1.19 1.141,-0.789 1.92,-1.779 2.34,-2.949 0.42,-1.181 0.63,-4.051 0.63,-8.63 v -13.48 h 8.471 z"
       id="path3327"
       inkscape:connector-curvature="0" /><path
       style="fill:#231f20"
       d="m 749.71,513.21 2.88,4.99 c -1.89,0.99 -3.89,1.479 -6,1.479 -2.149,0 -4.08,-0.47 -5.78,-1.42 -1.71,-0.939 -2.939,-2.27 -3.699,-3.979 -0.771,-1.7 -1.15,-4.061 -1.15,-7.08 v -20.24 h 8.47 v 14.69 c 0,4.489 0.16,7.25 0.471,8.26 0.31,1.02 0.869,1.82 1.689,2.41 0.82,0.59 1.859,0.89 3.119,0.89 z"
       id="path3329"
       inkscape:connector-curvature="0" /><path
       style="fill:#231f20"
       d="m 726.83,483.9 -9.86,0.369 h -0.08 c -0.409,-2.529 -1.31,-4.35 -2.689,-5.46 -1.38,-1.109 -3.44,-1.659 -6.2,-1.659 -2.84,0 -5.07,0.59 -6.68,1.779 -1.03,0.761 -1.551,1.78 -1.551,3.061 0,1.16 0.49,2.16 1.461,2.99 1.25,1.05 4.27,2.149 9.06,3.3 2.69,0.64 5,1.3 6.9,1.97 1.489,0.52 2.729,1.05 3.739,1.58 2.29,1.22 4.09,2.89 5.391,5 1.3,2.12 1.949,4.729 1.949,7.85 0,2.82 -0.779,5.46 -2.34,7.931 -1.56,2.46 -3.77,4.29 -6.63,5.489 -2.85,1.2 -6.41,1.801 -10.67,1.801 -6.2,0 -10.96,-1.44 -14.28,-4.32 -3.319,-2.87 -5.31,-7.061 -5.96,-12.561 l 9.69,-0.939 c 0.58,3.25 1.75,5.63 3.52,7.16 1.761,1.52 4.141,2.279 7.141,2.279 3.18,0 5.569,-0.68 7.18,-2.029 1.61,-1.36 2.41,-2.94 2.41,-4.76 0,-1.16 -0.34,-2.15 -1.01,-2.971 -0.681,-0.819 -1.86,-1.529 -3.551,-2.14 -1.149,-0.4 -3.779,-1.12 -7.89,-2.15 -5.28,-1.319 -8.99,-2.95 -11.12,-4.87 -2.99,-2.71 -4.49,-6.01 -4.49,-9.909 0,-2.511 0.7,-4.851 2.12,-7.03 1.41,-2.19 3.44,-3.851 6.091,-4.99 2.659,-1.14 5.859,-1.71 9.619,-1.71 6.131,0 10.75,1.36 13.851,4.07 3.099,2.709 4.729,6.339 4.879,10.869 z"
       id="path3331"
       inkscape:connector-curvature="0" /><path
       style="fill:#231f20"
       d="m 647.37,484.19 -9.87,0.38 h -0.07 c -0.42,-2.54 -1.31,-4.36 -2.689,-5.471 -1.38,-1.1 -3.45,-1.659 -6.2,-1.659 -2.84,0 -5.07,0.6 -6.68,1.779 -1.03,0.771 -1.551,1.78 -1.551,3.061 0,1.17 0.49,2.17 1.46,3 1.25,1.05 4.261,2.149 9.061,3.29 2.689,0.649 5,1.3 6.9,1.97 1.489,0.52 2.729,1.05 3.739,1.58 2.29,1.22 4.09,2.89 5.391,5.01 1.3,2.11 1.949,4.73 1.949,7.84 0,2.82 -0.779,5.471 -2.34,7.931 -1.56,2.46 -3.77,4.3 -6.63,5.489 -2.85,1.2 -6.41,1.801 -10.67,1.801 -6.2,0 -10.96,-1.44 -14.28,-4.311 -3.33,-2.87 -5.31,-7.06 -5.96,-12.56 l 9.69,-0.94 c 0.58,3.24 1.75,5.63 3.51,7.15 1.771,1.52 4.15,2.29 7.15,2.29 3.17,0 5.569,-0.681 7.18,-2.04 1.61,-1.351 2.41,-2.94 2.41,-4.75 0,-1.17 -0.34,-2.16 -1.01,-2.98 -0.681,-0.81 -1.86,-1.52 -3.551,-2.13 -1.149,-0.4 -3.779,-1.12 -7.89,-2.16 -5.28,-1.319 -8.99,-2.939 -11.12,-4.87 -2.99,-2.71 -4.49,-6.01 -4.49,-9.899 0,-2.51 0.7,-4.86 2.11,-7.04 1.41,-2.181 3.45,-3.84 6.1,-4.98 2.66,-1.149 5.86,-1.72 9.62,-1.72 6.13,0 10.75,1.36 13.851,4.07 3.1,2.719 4.72,6.339 4.88,10.869 z"
       id="path3333"
       inkscape:connector-curvature="0" /><polygon
       style="fill:#231f20"
       points="542.71,490.76 542.71,499.07 522.21,499.07 522.21,519.94 512.27,519.94 512.27,470.76 545.96,470.76 545.96,479.07 522.21,479.07 522.21,490.76 "
       id="polygon3335" /><path
       style="fill:#231f20"
       d="m 443.86,494.75 c -0.141,0.09 -0.271,0.18 -0.4,0.27 l -2.78,-3 c 2.721,-3.18 5.98,-4.76 9.771,-4.76 1.939,0 3.7,0.36 5.26,1.08 1.57,0.72 2.74,1.65 3.53,2.771 0.8,1.12 1.34,2.37 1.63,3.729 0.29,1.37 0.43,3.48 0.43,6.351 v 18.75 h -8.47 V 503.06 c 0,-3.35 -0.16,-5.479 -0.48,-6.39 -0.319,-0.9 -0.88,-1.62 -1.689,-2.15 -0.811,-0.529 -1.83,-0.8 -3.05,-0.8 -1.402,0 -2.652,0.35 -3.752,1.03 z"
       id="path3337"
       inkscape:connector-curvature="0" /><path
       style="fill:#231f20"
       d="m 441.44,497.83 c -0.511,1.38 -0.761,3.41 -0.761,6.1 v 16.011 h -8.47 v -44.15 h 8.47 v 16.229 l 2.78,3 c -0.899,0.67 -1.569,1.61 -2.019,2.81 z"
       id="path3339"
       inkscape:connector-curvature="0" /><polygon
       style="fill:#231f20"
       points="401.97,519.94 401.97,479.07 387.4,479.07 387.4,470.76 426.4,470.76 426.4,479.07 411.9,479.07 411.9,519.94 "
       id="polygon3341" /><polygon
       style="fill:#231f20"
       points="317.29,519.94 306.47,519.94 294.77,470.76 304.98,470.76 312.36,504.54 321.33,470.76 333.15,470.76 341.8,505.11 349.27,470.76 359.27,470.76 347.48,519.94 336.83,519.94 327.05,483.17 "
       id="polygon3343" /><polygon
       style="fill:#231f20"
       points="222.69,519.94 222.69,479.07 208.12,479.07 208.12,470.76 247.12,470.76 247.12,479.07 232.62,479.07 232.62,519.94 "
       id="polygon3345" /><polygon
       style="fill:#231f20"
       points="131.58,519.94 121.97,519.94 112.33,481.22 112.3,519.94 103.11,519.94 103.11,470.76 118,470.76 126.83,504.31 135.58,470.76 150.49,470.76 150.49,519.94 141.3,519.94 141.27,481.22 "
       id="polygon3347" /></g><g
     id="g3349"><path
       style="fill:none;stroke:#231f20;stroke-width:4.74389982"
       d="m 145.82,429.13 c 0,10.561 -8.56,19.13 -19.12,19.13 -10.57,0 -19.13,-8.569 -19.13,-19.13 0,-10.57 8.56,-19.13 19.13,-19.13 10.56,0 19.12,8.56 19.12,19.13 z"
       id="path3351"
       inkscape:connector-curvature="0" /><line
       style="fill:none;stroke:#231f20;stroke-width:4.74389982"
       x1="126.55"
       y1="406.51001"
       x2="126.55"
       y2="391.95999"
       id="line3353" /><line
       style="fill:none;stroke:#231f20;stroke-width:4.74389982"
       x1="114.94"
       y1="409.34"
       x2="106.9"
       y2="397.22"
       id="line3355" /><line
       style="fill:none;stroke:#231f20;stroke-width:4.74389982"
       x1="106.6"
       y1="418.29001"
       x2="93.419998"
       y2="412.13"
       id="line3357" /><line
       style="fill:none;stroke:#231f20;stroke-width:4.74389982"
       x1="138.57001"
       y1="409.12"
       x2="146.61"
       y2="396.98999"
       id="line3359" /><line
       style="fill:none;stroke:#231f20;stroke-width:4.74389982"
       x1="146.89999"
       y1="418.06"
       x2="160.08"
       y2="411.89999"
       id="line3361" /><line
       style="fill:none;stroke:#231f20;stroke-width:4.74389982"
       x1="138.09"
       y1="449.06"
       x2="146.13"
       y2="461.19"
       id="line3363" /><line
       style="fill:none;stroke:#231f20;stroke-width:4.74389982"
       x1="146.42"
       y1="440.12"
       x2="159.61"
       y2="446.28"
       id="line3365" /><line
       style="fill:none;stroke:#231f20;stroke-width:4.74389982"
       x1="114.46"
       y1="449.29999"
       x2="106.42"
       y2="461.42999"
       id="line3367" /><line
       style="fill:none;stroke:#231f20;stroke-width:4.74389982"
       x1="106.13"
       y1="440.35999"
       x2="92.940002"
       y2="446.51999"
       id="line3369" /><line
       style="fill:none;stroke:#231f20;stroke-width:4.74389982"
       x1="103.9"
       y1="429.35001"
       x2="89.349998"
       y2="429.35001"
       id="line3371" /><line
       style="fill:none;stroke:#231f20;stroke-width:4.74389982"
       x1="163.83"
       y1="429.35001"
       x2="149.27"
       y2="429.35001"
       id="line3373" /><line
       style="fill:none;stroke:#231f20;stroke-width:4.74389982"
       x1="126.55"
       y1="465.98999"
       x2="126.55"
       y2="451.44"
       id="line3375" /><path
       style="fill:none;stroke:#231f20;stroke-width:4.74389982"
       d="m 246.54,429.13 c 0,10.561 -8.56,19.13 -19.13,19.13 -10.56,0 -19.12,-8.569 -19.12,-19.13 0,-10.57 8.56,-19.13 19.12,-19.13 10.57,0 19.13,8.56 19.13,19.13 z"
       id="path3377"
       inkscape:connector-curvature="0" /><line
       style="fill:none;stroke:#231f20;stroke-width:4.74389982"
       x1="227.27"
       y1="406.51001"
       x2="227.27"
       y2="391.95999"
       id="line3379" /><line
       style="fill:none;stroke:#231f20;stroke-width:4.74389982"
       x1="215.66"
       y1="409.34"
       x2="207.62"
       y2="397.22"
       id="line3381" /><line
       style="fill:none;stroke:#231f20;stroke-width:4.74389982"
       x1="207.32001"
       y1="418.29001"
       x2="194.14"
       y2="412.13"
       id="line3383" /><line
       style="fill:none;stroke:#231f20;stroke-width:4.74389982"
       x1="239.28999"
       y1="409.12"
       x2="247.32001"
       y2="396.98999"
       id="line3385" /><line
       style="fill:none;stroke:#231f20;stroke-width:4.74389982"
       x1="247.62"
       y1="418.06"
       x2="260.79999"
       y2="411.89999"
       id="line3387" /><line
       style="fill:none;stroke:#231f20;stroke-width:4.74389982"
       x1="238.8"
       y1="449.06"
       x2="246.85001"
       y2="461.19"
       id="line3389" /><line
       style="fill:none;stroke:#231f20;stroke-width:4.74389982"
       x1="247.14"
       y1="440.12"
       x2="260.32999"
       y2="446.28"
       id="line3391" /><line
       style="fill:none;stroke:#231f20;stroke-width:4.74389982"
       x1="215.17999"
       y1="449.29999"
       x2="207.14"
       y2="461.42999"
       id="line3393" /><line
       style="fill:none;stroke:#231f20;stroke-width:4.74389982"
       x1="206.84"
       y1="440.35999"
       x2="193.66"
       y2="446.51999"
       id="line3395" /><line
       style="fill:none;stroke:#231f20;stroke-width:4.74389982"
       x1="204.61"
       y1="429.35001"
       x2="190.06"
       y2="429.35001"
       id="line3397" /><line
       style="fill:none;stroke:#231f20;stroke-width:4.74389982"
       x1="264.54001"
       y1="429.35001"
       x2="249.99001"
       y2="429.35001"
       id="line3399" /><line
       style="fill:none;stroke:#231f20;stroke-width:4.74389982"
       x1="227.27"
       y1="465.98999"
       x2="227.27"
       y2="451.44"
       id="line3401" /><path
       style="fill:none;stroke:#231f20;stroke-width:4.74389982"
       d="m 346.85,429.13 c 0,10.561 -8.56,19.13 -19.12,19.13 -10.57,0 -19.13,-8.569 -19.13,-19.13 0,-10.57 8.56,-19.13 19.13,-19.13 10.56,0 19.12,8.56 19.12,19.13 z"
       id="path3403"
       inkscape:connector-curvature="0" /><line
       style="fill:none;stroke:#231f20;stroke-width:4.74389982"
       x1="327.57999"
       y1="406.51001"
       x2="327.57999"
       y2="391.95999"
       id="line3405" /><line
       style="fill:none;stroke:#231f20;stroke-width:4.74389982"
       x1="315.97"
       y1="409.34"
       x2="307.92999"
       y2="397.22"
       id="line3407" /><line
       style="fill:none;stroke:#231f20;stroke-width:4.74389982"
       x1="307.64001"
       y1="418.29001"
       x2="294.45001"
       y2="412.13"
       id="line3409" /><line
       style="fill:none;stroke:#231f20;stroke-width:4.74389982"
       x1="339.60001"
       y1="409.12"
       x2="347.64001"
       y2="396.98999"
       id="line3411" /><line
       style="fill:none;stroke:#231f20;stroke-width:4.74389982"
       x1="347.92999"
       y1="418.06"
       x2="361.12"
       y2="411.89999"
       id="line3413" /><line
       style="fill:none;stroke:#231f20;stroke-width:4.74389982"
       x1="339.12"
       y1="449.06"
       x2="347.16"
       y2="461.19"
       id="line3415" /><line
       style="fill:none;stroke:#231f20;stroke-width:4.74389982"
       x1="347.45999"
       y1="440.12"
       x2="360.64001"
       y2="446.28"
       id="line3417" /><line
       style="fill:none;stroke:#231f20;stroke-width:4.74389982"
       x1="315.48999"
       y1="449.29999"
       x2="307.45001"
       y2="461.42999"
       id="line3419" /><line
       style="fill:none;stroke:#231f20;stroke-width:4.74389982"
       x1="307.16"
       y1="440.35999"
       x2="293.98001"
       y2="446.51999"
       id="line3421" /><line
       style="fill:none;stroke:#231f20;stroke-width:4.74389982"
       x1="304.92999"
       y1="429.35001"
       x2="290.38"
       y2="429.35001"
       id="line3423" /><line
       style="fill:none;stroke:#231f20;stroke-width:4.74389982"
       x1="364.85999"
       y1="429.35001"
       x2="350.29999"
       y2="429.35001"
       id="line3425" /><line
       style="fill:none;stroke:#231f20;stroke-width:4.74389982"
       x1="327.57999"
       y1="465.98999"
       x2="327.57999"
       y2="451.44"
       id="line3427" /><path
       style="fill:none;stroke:#231f20;stroke-width:4.74389982"
       d="m 446.87,429.14 c 0,10.561 -8.561,19.13 -19.12,19.13 -10.57,0 -19.13,-8.569 -19.13,-19.13 0,-10.57 8.56,-19.14 19.13,-19.14 10.56,0 19.12,8.57 19.12,19.14 z"
       id="path3429"
       inkscape:connector-curvature="0" /><line
       style="fill:none;stroke:#231f20;stroke-width:4.74389982"
       x1="427.60001"
       y1="406.51999"
       x2="427.60001"
       y2="391.97"
       id="line3431" /><line
       style="fill:none;stroke:#231f20;stroke-width:4.74389982"
       x1="415.98999"
       y1="409.35001"
       x2="407.95001"
       y2="397.23001"
       id="line3433" /><line
       style="fill:none;stroke:#231f20;stroke-width:4.74389982"
       x1="407.64999"
       y1="418.29999"
       x2="394.47"
       y2="412.14001"
       id="line3435" /><line
       style="fill:none;stroke:#231f20;stroke-width:4.74389982"
       x1="439.60999"
       y1="409.12"
       x2="447.66"
       y2="397"
       id="line3437" /><line
       style="fill:none;stroke:#231f20;stroke-width:4.74389982"
       x1="447.95001"
       y1="418.07001"
       x2="461.13"
       y2="411.89999"
       id="line3439" /><line
       style="fill:none;stroke:#231f20;stroke-width:4.74389982"
       x1="439.13"
       y1="449.07001"
       x2="447.17001"
       y2="461.20001"
       id="line3441" /><line
       style="fill:none;stroke:#231f20;stroke-width:4.74389982"
       x1="447.47"
       y1="440.13"
       x2="460.66"
       y2="446.29001"
       id="line3443" /><line
       style="fill:none;stroke:#231f20;stroke-width:4.74389982"
       x1="415.51001"
       y1="449.31"
       x2="407.47"
       y2="461.44"
       id="line3445" /><line
       style="fill:none;stroke:#231f20;stroke-width:4.74389982"
       x1="407.17999"
       y1="440.37"
       x2="393.98999"
       y2="446.53"
       id="line3447" /><line
       style="fill:none;stroke:#231f20;stroke-width:4.74389982"
       x1="404.95001"
       y1="429.35999"
       x2="390.39001"
       y2="429.35999"
       id="line3449" /><line
       style="fill:none;stroke:#231f20;stroke-width:4.74389982"
       x1="464.87"
       y1="429.35999"
       x2="450.32001"
       y2="429.35999"
       id="line3451" /><line
       style="fill:none;stroke:#231f20;stroke-width:4.74389982"
       x1="427.60001"
       y1="466"
       x2="427.60001"
       y2="451.44"
       id="line3453" /><path
       style="fill:none;stroke:#231f20;stroke-width:4.74389982"
       d="m 547.42,429.24 c 0,10.55 -8.56,19.12 -19.13,19.12 -10.56,0 -19.12,-8.57 -19.12,-19.12 0,-10.58 8.561,-19.14 19.12,-19.14 10.57,0 19.13,8.56 19.13,19.14 z"
       id="path3455"
       inkscape:connector-curvature="0" /><line
       style="fill:none;stroke:#231f20;stroke-width:4.74389982"
       x1="528.15002"
       y1="406.60999"
       x2="528.15002"
       y2="392.06"
       id="line3457" /><line
       style="fill:none;stroke:#231f20;stroke-width:4.74389982"
       x1="516.53998"
       y1="409.44"
       x2="508.5"
       y2="397.32001"
       id="line3459" /><line
       style="fill:none;stroke:#231f20;stroke-width:4.74389982"
       x1="508.20001"
       y1="418.39999"
       x2="495.01999"
       y2="412.23001"
       id="line3461" /><line
       style="fill:none;stroke:#231f20;stroke-width:4.74389982"
       x1="540.15997"
       y1="409.22"
       x2="548.21002"
       y2="397.09"
       id="line3463" /><line
       style="fill:none;stroke:#231f20;stroke-width:4.74389982"
       x1="548.5"
       y1="418.16"
       x2="561.67999"
       y2="412"
       id="line3465" /><line
       style="fill:none;stroke:#231f20;stroke-width:4.74389982"
       x1="539.67999"
       y1="449.17001"
       x2="547.71997"
       y2="461.29001"
       id="line3467" /><line
       style="fill:none;stroke:#231f20;stroke-width:4.74389982"
       x1="548.02002"
       y1="440.22"
       x2="561.21002"
       y2="446.39001"
       id="line3469" /><line
       style="fill:none;stroke:#231f20;stroke-width:4.74389982"
       x1="516.06"
       y1="449.41"
       x2="508.01999"
       y2="461.54001"
       id="line3471" /><line
       style="fill:none;stroke:#231f20;stroke-width:4.74389982"
       x1="507.72"
       y1="440.45999"
       x2="494.54001"
       y2="446.62"
       id="line3473" /><line
       style="fill:none;stroke:#231f20;stroke-width:4.74389982"
       x1="505.5"
       y1="429.45001"
       x2="490.94"
       y2="429.45001"
       id="line3475" /><line
       style="fill:none;stroke:#231f20;stroke-width:4.74389982"
       x1="565.41998"
       y1="429.45001"
       x2="550.85999"
       y2="429.45001"
       id="line3477" /><line
       style="fill:none;stroke:#231f20;stroke-width:4.74389982"
       x1="528.15002"
       y1="466.09"
       x2="528.15002"
       y2="451.54001"
       id="line3479" /><path
       style="fill:none;stroke:#231f20;stroke-width:4.74389982"
       d="m 648.16,428.99 c 0,10.55 -8.57,19.12 -19.13,19.12 -10.57,0 -19.13,-8.57 -19.13,-19.12 0,-10.58 8.56,-19.14 19.13,-19.14 10.56,0 19.13,8.56 19.13,19.14 z"
       id="path3481"
       inkscape:connector-curvature="0" /><line
       style="fill:none;stroke:#231f20;stroke-width:4.74389982"
       x1="628.88"
       y1="406.35999"
       x2="628.88"
       y2="391.81"
       id="line3483" /><line
       style="fill:none;stroke:#231f20;stroke-width:4.74389982"
       x1="617.27002"
       y1="409.19"
       x2="609.23999"
       y2="397.07001"
       id="line3485" /><line
       style="fill:none;stroke:#231f20;stroke-width:4.74389982"
       x1="608.94"
       y1="418.14001"
       x2="595.76001"
       y2="411.98001"
       id="line3487" /><line
       style="fill:none;stroke:#231f20;stroke-width:4.74389982"
       x1="640.90002"
       y1="408.97"
       x2="648.94"
       y2="396.84"
       id="line3489" /><line
       style="fill:none;stroke:#231f20;stroke-width:4.74389982"
       x1="649.23999"
       y1="417.91"
       x2="662.41998"
       y2="411.75"
       id="line3491" /><line
       style="fill:none;stroke:#231f20;stroke-width:4.74389982"
       x1="640.41998"
       y1="448.92001"
       x2="648.46002"
       y2="461.04001"
       id="line3493" /><line
       style="fill:none;stroke:#231f20;stroke-width:4.74389982"
       x1="648.76001"
       y1="439.97"
       x2="661.94"
       y2="446.14001"
       id="line3495" /><line
       style="fill:none;stroke:#231f20;stroke-width:4.74389982"
       x1="616.79999"
       y1="449.16"
       x2="608.75"
       y2="461.28"
       id="line3497" /><line
       style="fill:none;stroke:#231f20;stroke-width:4.74389982"
       x1="608.46002"
       y1="440.20999"
       x2="595.28003"
       y2="446.37"
       id="line3499" /><line
       style="fill:none;stroke:#231f20;stroke-width:4.74389982"
       x1="606.22998"
       y1="429.20001"
       x2="591.67999"
       y2="429.20001"
       id="line3501" /><line
       style="fill:none;stroke:#231f20;stroke-width:4.74389982"
       x1="666.15997"
       y1="429.20001"
       x2="651.59998"
       y2="429.20001"
       id="line3503" /><line
       style="fill:none;stroke:#231f20;stroke-width:4.74389982"
       x1="628.88"
       y1="465.84"
       x2="628.88"
       y2="451.29001"
       id="line3505" /><path
       style="fill:none;stroke:#231f20;stroke-width:4.74389982"
       d="m 748.64,429.24 c 0,10.55 -8.56,19.12 -19.12,19.12 -10.569,0 -19.13,-8.57 -19.13,-19.12 0,-10.58 8.561,-19.14 19.13,-19.14 10.56,0 19.12,8.56 19.12,19.14 z"
       id="path3507"
       inkscape:connector-curvature="0" /><line
       style="fill:none;stroke:#231f20;stroke-width:4.74389982"
       x1="729.37"
       y1="406.60999"
       x2="729.37"
       y2="392.06"
       id="line3509" /><line
       style="fill:none;stroke:#231f20;stroke-width:4.74389982"
       x1="717.76001"
       y1="409.44"
       x2="709.72998"
       y2="397.32001"
       id="line3511" /><line
       style="fill:none;stroke:#231f20;stroke-width:4.74389982"
       x1="709.42999"
       y1="418.39999"
       x2="696.23999"
       y2="412.23001"
       id="line3513" /><line
       style="fill:none;stroke:#231f20;stroke-width:4.74389982"
       x1="741.39001"
       y1="409.22"
       x2="749.42999"
       y2="397.09"
       id="line3515" /><line
       style="fill:none;stroke:#231f20;stroke-width:4.74389982"
       x1="749.71997"
       y1="418.16"
       x2="762.90997"
       y2="412"
       id="line3517" /><line
       style="fill:none;stroke:#231f20;stroke-width:4.74389982"
       x1="740.90997"
       y1="449.17001"
       x2="748.95001"
       y2="461.29001"
       id="line3519" /><line
       style="fill:none;stroke:#231f20;stroke-width:4.74389982"
       x1="749.25"
       y1="440.22"
       x2="762.42999"
       y2="446.39001"
       id="line3521" /><line
       style="fill:none;stroke:#231f20;stroke-width:4.74389982"
       x1="717.28998"
       y1="449.41"
       x2="709.23999"
       y2="461.54001"
       id="line3523" /><line
       style="fill:none;stroke:#231f20;stroke-width:4.74389982"
       x1="708.95001"
       y1="440.45999"
       x2="695.77002"
       y2="446.62"
       id="line3525" /><line
       style="fill:none;stroke:#231f20;stroke-width:4.74389982"
       x1="706.71997"
       y1="429.45001"
       x2="692.16998"
       y2="429.45001"
       id="line3527" /><line
       style="fill:none;stroke:#231f20;stroke-width:4.74389982"
       x1="766.65002"
       y1="429.45001"
       x2="752.09003"
       y2="429.45001"
       id="line3529" /><line
       style="fill:none;stroke:#231f20;stroke-width:4.74389982"
       x1="729.37"
       y1="466.09"
       x2="729.37"
       y2="451.54001"
       id="line3531" /><polygon
       style="fill:none;stroke:#231f20;stroke-width:14.23169994"
       points="277.48,378.13 377.92,378.13 478.24,378.13 578.55,378.13 578.55,378.21 578.55,532.31 571.45,532.31 478.24,532.31 377.92,532.31 277.48,532.31 177.16,532.31 76.84,532.31 76.84,378.13 177.16,378.13 "
       id="polygon3533" /><line
       style="fill:none;stroke:#231f20;stroke-width:14.23169994"
       x1="478.23999"
       y1="378.13"
       x2="478.23999"
       y2="532.31"
       id="line3535" /><line
       style="fill:none;stroke:#231f20;stroke-width:14.23169994"
       x1="377.92001"
       y1="378.13"
       x2="377.92001"
       y2="532.31"
       id="line3537" /><line
       style="fill:none;stroke:#231f20;stroke-width:14.23169994"
       x1="277.48001"
       y1="378.13"
       x2="277.48001"
       y2="532.31"
       id="line3539" /><line
       style="fill:none;stroke:#231f20;stroke-width:14.23169994"
       x1="177.16"
       y1="378.13"
       x2="177.16"
       y2="532.31"
       id="line3541" /><polyline
       style="fill:none;stroke:#231f20;stroke-width:14.23169994"
       points="571.45,532.38 678.87,532.38 779.19,532.38      779.19,378.21 678.87,378.21 578.55,378.21 571.45,378.21    "
       id="polyline3543" /><line
       style="fill:none;stroke:#231f20;stroke-width:14.23169994"
       x1="678.87"
       y1="378.20999"
       x2="678.87"
       y2="532.38"
       id="line3545" /></g><rect
     style="fill:none;"
     width="850.394"
     height="850.394"
     id="rect3547" /><rect
     style="fill:#92ff83;fill-opacity:1;stroke:#000000;stroke-width:10;stroke-linecap:round;stroke-linejoin:round;stroke-miterlimit:4;stroke-opacity:1;stroke-dasharray:none"
     id="rect3577"
     width="238.06602"
     height="290.10837"
     x="509.96558"
     y="307.82492"
     ry="0" /><g
     id="g6127"
     transform="matrix(1.9808349,0,0,1.9808349,-616.03043,-1514.4176)"><path
       inkscape:connector-curvature="0"
       style="fill:#fbed24"
       d="m 648.16001,966.57631 c 0,10.55 -8.57,19.12 -19.13,19.12 -10.57,0 -19.13,-8.57 -19.13,-19.12 0,-10.58 8.56,-19.14 19.13,-19.14 10.56,0 19.13,8.56 19.13,19.14 z"
       id="path5074" /><path
       inkscape:connector-curvature="0"
       style="fill:#231f20"
       d="m 647.37001,1021.7763 -9.87,0.38 h -0.07 c -0.42,-2.54 -1.31,-4.36 -2.689,-5.471 -1.38,-1.1 -3.45,-1.659 -6.2,-1.659 -2.84,0 -5.07,0.6 -6.68,1.779 -1.03,0.771 -1.551,1.78 -1.551,3.061 0,1.17 0.49,2.17 1.46,3 1.25,1.05 4.261,2.149 9.061,3.29 2.689,0.649 5,1.3 6.9,1.97 1.489,0.52 2.729,1.05 3.739,1.58 2.29,1.22 4.09,2.89 5.391,5.01 1.3,2.11 1.949,4.73 1.949,7.84 0,2.82 -0.779,5.471 -2.34,7.931 -1.56,2.46 -3.77,4.3 -6.63,5.489 -2.85,1.2 -6.41,1.801 -10.67,1.801 -6.2,0 -10.96,-1.44 -14.28,-4.311 -3.33,-2.87 -5.31,-7.06 -5.96,-12.56 l 9.69,-0.94 c 0.58,3.24 1.75,5.63 3.51,7.15 1.771,1.52 4.15,2.29 7.15,2.29 3.17,0 5.569,-0.681 7.18,-2.04 1.61,-1.351 2.41,-2.94 2.41,-4.75 0,-1.17 -0.34,-2.16 -1.01,-2.98 -0.681,-0.81 -1.86,-1.52 -3.551,-2.13 -1.149,-0.4 -3.779,-1.12 -7.89,-2.16 -5.28,-1.319 -8.99,-2.939 -11.12,-4.87 -2.99,-2.71 -4.49,-6.01 -4.49,-9.899 0,-2.51 0.7,-4.86 2.11,-7.04 1.41,-2.181 3.45,-3.84 6.1,-4.98 2.66,-1.149 5.86,-1.72 9.62,-1.72 6.13,0 10.75,1.36 13.851,4.07 3.1,2.719 4.72,6.339 4.88,10.869 z"
       id="path5094" /><path
       inkscape:connector-curvature="0"
       style="fill:none;stroke:#231f20;stroke-width:4.74389982"
       d="m 648.16001,966.57631 c 0,10.55 -8.57,19.12 -19.13,19.12 -10.57,0 -19.13,-8.57 -19.13,-19.12 0,-10.58 8.56,-19.14 19.13,-19.14 10.56,0 19.13,8.56 19.13,19.14 z"
       id="path5242" /><line
       style="fill:none;stroke:#231f20;stroke-width:4.74389982"
       x1="628.88"
       y1="943.94629"
       x2="628.88"
       y2="929.3963"
       id="line5244" /><line
       style="fill:none;stroke:#231f20;stroke-width:4.74389982"
       x1="617.27002"
       y1="946.77631"
       x2="609.23999"
       y2="934.65631"
       id="line5246" /><line
       style="fill:none;stroke:#231f20;stroke-width:4.74389982"
       x1="608.94"
       y1="955.72632"
       x2="595.76001"
       y2="949.56635"
       id="line5248" /><line
       style="fill:none;stroke:#231f20;stroke-width:4.74389982"
       x1="640.90002"
       y1="946.55634"
       x2="648.94"
       y2="934.42633"
       id="line5250" /><line
       style="fill:none;stroke:#231f20;stroke-width:4.74389982"
       x1="649.23999"
       y1="955.49634"
       x2="662.41998"
       y2="949.3363"
       id="line5252" /><line
       style="fill:none;stroke:#231f20;stroke-width:4.74389982"
       x1="640.41998"
       y1="986.50635"
       x2="648.46002"
       y2="998.62634"
       id="line5254" /><line
       style="fill:none;stroke:#231f20;stroke-width:4.74389982"
       x1="648.76001"
       y1="977.55634"
       x2="661.94"
       y2="983.72632"
       id="line5256" /><line
       style="fill:none;stroke:#231f20;stroke-width:4.74389982"
       x1="616.79999"
       y1="986.74634"
       x2="608.75"
       y2="998.86633"
       id="line5258" /><line
       style="fill:none;stroke:#231f20;stroke-width:4.74389982"
       x1="608.46002"
       y1="977.79633"
       x2="595.28003"
       y2="983.9563"
       id="line5260" /><line
       style="fill:none;stroke:#231f20;stroke-width:4.74389982"
       x1="606.22998"
       y1="966.78632"
       x2="591.67999"
       y2="966.78632"
       id="line5262" /><line
       style="fill:none;stroke:#231f20;stroke-width:4.74389982"
       x1="666.15997"
       y1="966.78632"
       x2="651.59998"
       y2="966.78632"
       id="line5264" /><line
       style="fill:none;stroke:#231f20;stroke-width:4.74389982"
       x1="628.88"
       y1="1003.4263"
       x2="628.88"
       y2="988.87634"
       id="line5266" /></g><rect
     y="-236.40511"
     x="-4.4291205"
     style="fill:none"
     width="850.39398"
     height="850.39398"
     id="rect5308" /></svg>