<svg xmlns="http://www.w3.org/2000/svg" xmlns:xlink="http://www.w3.org/1999/xlink" version="1.1" id="Your_Icon" x="0px" y="0px" width="100px" height="100px" viewBox="0 0 100 100" enable-background="new 0 0 100 100" xml:space="preserve">
<g>
	<path d="M82.285,68.877c-0.955-0.117-1.818,0.563-1.934,1.515c-0.012,0.099-1.303,9.88-10.506,11.121   c-11.741,1.581-14.354-4.923-16.082-9.227l-0.099-0.244c-1.579-3.924-2.729-7.469-3.568-10.057   c-0.906-2.791-1.453-4.476-2.07-5.379c-0.49-0.717-11.847-17.713,2.538-31.885c5.021-4.948,11.818-6.405,18.181-3.894   c6.174,2.436,10.171,7.882,10.43,14.21c0.04,0.958,0.844,1.701,1.808,1.664c0.958-0.039,1.703-0.848,1.665-1.806   c-0.313-7.605-5.27-14.395-12.627-17.299c-7.679-3.031-15.864-1.292-21.896,4.651c-6.225,6.134-9.029,13.771-8.109,22.087   c0.844,7.628,4.432,13.196,5.144,14.234c0.336,0.491,0.965,2.433,1.633,4.488c0.855,2.637,2.026,6.248,3.65,10.282l0.098,0.242   c1.685,4.196,4.678,11.653,15.827,11.653c1.214,0,2.526-0.089,3.943-0.279c9.469-1.276,12.965-9.81,13.49-14.145   C83.916,69.857,83.238,68.992,82.285,68.877z"/>
	<path d="M75.018,50.219c0.574-0.155,1.27,0.149,1.473,0.269c0.813,0.509,1.885,0.261,2.393-0.552   c0.51-0.814,0.263-1.886-0.552-2.394c-0.204-0.127-2.057-1.231-4.162-0.692c-0.915,0.234-2.208,0.876-3.177,2.607   c-1.78,3.178,0.314,6.938,1.7,9.426c0.344,0.619,0.772,1.388,0.843,1.661c0.454,1.769-0.124,3.744-1.375,4.699   c-1.39,1.062-3.065,0.496-4.227-0.166c-5.135-2.93-6.847-8.11-5.091-15.397c1.882-7.807,7.79-9.344,9.182-9.601   c0.538,1.686,0.688,3.02,0.69,3.047c0.096,0.954,0.949,1.65,1.902,1.554c0.955-0.097,1.65-0.949,1.554-1.903   c-0.03-0.312-0.828-7.687-5.876-11.273c-2.62-1.861-5.831-2.355-9.545-1.467c-5.644,1.35-8.98,5.837-9.647,12.979   c-0.472,5.058,0.573,9.678,0.618,9.873c0.186,0.804,0.899,1.347,1.69,1.347c0.129,0,0.259-0.014,0.391-0.044   c0.934-0.214,1.519-1.146,1.305-2.081c-0.01-0.043-0.973-4.333-0.537-8.843c0.536-5.555,2.888-8.87,6.988-9.85   c2.729-0.652,4.925-0.354,6.714,0.912c0.951,0.674,1.704,1.564,2.299,2.521c-2.788,0.727-9.004,3.301-11.104,12.016   c-2.694,11.175,2.182,16.624,6.747,19.229c1.417,0.809,2.846,1.212,4.198,1.212c1.402,0,2.722-0.434,3.857-1.302   c2.386-1.821,3.443-5.168,2.631-8.327c-0.182-0.706-0.618-1.491-1.172-2.484c-1.01-1.813-2.535-4.554-1.704-6.039   C74.464,50.369,74.88,50.256,75.018,50.219z"/>
	<path d="M35.286,65.932l-11.734,9.109c-0.905,0.703-1.068,2.006-0.366,2.911c0.408,0.526,1.02,0.803,1.639,0.803   c0.445,0,0.893-0.143,1.271-0.437l11.734-9.11c0.905-0.703,1.068-2.006,0.366-2.911C37.494,65.393,36.191,65.229,35.286,65.932z"/>
	<path d="M32.687,47.924c-0.09-1.118-1.065-1.952-2.187-1.863L9.96,47.702c-1.119,0.09-1.953,1.068-1.863,2.186   c0.085,1.063,0.974,1.87,2.022,1.87c0.054,0,0.109-0.002,0.164-0.007l20.541-1.64C31.941,50.021,32.775,49.043,32.687,47.924z"/>
	<path d="M18.019,23.57l15.028,4.336c0.205,0.06,0.411,0.088,0.613,0.088c0.959,0,1.842-0.63,2.122-1.597   c0.338-1.173-0.338-2.397-1.51-2.735l-15.027-4.337c-1.173-0.338-2.397,0.338-2.735,1.509C16.17,22.007,16.847,23.231,18.019,23.57   z"/>
</g>
</svg>
