<svg xmlns="http://www.w3.org/2000/svg" xmlns:xlink="http://www.w3.org/1999/xlink" version="1.1" id="Layer_1" x="0px" y="0px" width="100px" height="100px" viewBox="0 0 100 100" enable-background="new 0 0 100 100" xml:space="preserve">
<path d="M66.667,33.333v33.333H100V33.333H66.667z M83.333,39.612c1.918,0,3.473,1.554,3.473,3.472s-1.555,3.472-3.473,3.472  s-3.472-1.554-3.472-3.472S81.415,39.612,83.333,39.612z M85.417,48.34v3.049c0,0.383-0.312,0.694-0.694,0.694h-2.778  c-0.383,0-0.694-0.312-0.694-0.694V48.34c0.616-0.094,1.3-0.16,2.083-0.178C84.117,48.18,84.801,48.246,85.417,48.34z   M90.276,61.111h-6.943h-6.942l-0.002-9.259c0,0,0.027-2.211,3.473-3.211v2.748c0,1.149,0.935,2.084,2.083,2.084h0.694v2.296  c-0.406,0.241-0.694,0.667-0.694,1.176c0,0.768,0.621,1.389,1.389,1.389s1.39-0.621,1.39-1.389c0-0.509-0.288-0.935-0.695-1.176  v-2.296h0.695c1.148,0,2.083-0.935,2.083-2.084v-2.748c3.445,1,3.472,3.211,3.472,3.211L90.276,61.111z"/>
<path d="M55.556,11.575c-1.022,0-1.853,0.827-1.853,1.85c0,1.025,0.83,1.853,1.853,1.853s1.85-0.828,1.85-1.853  C57.405,12.402,56.578,11.575,55.556,11.575z"/>
<path d="M46.294,13.425c0-1.022-0.828-1.85-1.85-1.85s-1.853,0.827-1.853,1.85c0,1.025,0.831,1.853,1.853,1.853  S46.294,14.45,46.294,13.425z"/>
<path d="M66.667,0H33.333v33.333h33.333V0z M50,26.389c-6.137,0-11.111-4.972-11.111-11.111S43.863,4.167,50,4.167  c6.138,0,11.111,4.973,11.111,11.111S56.138,26.389,50,26.389z"/>
<path d="M50,22.686c3.703,0,5.556-3.706,5.556-3.706H44.444C44.444,18.98,46.294,22.686,50,22.686z"/>
<path d="M33.333,100h33.333V66.667H33.333V100z M44.228,75c2.995,0,4.018,1.389,5.772,3.397C51.758,76.389,52.777,75,55.775,75  c3.22,0,5.336,2.117,5.336,5.297c0,1.864-0.844,3.949-2.778,5.848L50,94.443l-8.333-8.299c-1.934-1.899-2.778-3.983-2.778-5.848  C38.889,77.117,41.013,75,44.228,75z"/>
<path d="M0,33.333v33.333h33.333V33.333H0z M10.417,39.583c1.536,0,2.778,1.242,2.778,2.778c0,1.535-1.242,2.777-2.778,2.777  c-1.535,0-2.778-1.242-2.778-2.777C7.639,40.826,8.881,39.583,10.417,39.583z M28.012,60.06c-0.265,0.239-0.597,0.357-0.928,0.357  c-0.38,0-0.759-0.155-1.033-0.46l-4.586-5.096h-4.917l3.185,3.185c0.542,0.542,0.542,1.421,0,1.964  c-0.271,0.271-0.626,0.407-0.982,0.407s-0.711-0.136-0.982-0.407l-5.556-5.556c-0.397-0.397-0.516-0.994-0.301-1.514  c0.215-0.52,0.722-0.857,1.283-0.857h3.592l-3.592-3.591l-1.796,1.796c-0.271,0.271-0.626,0.407-0.982,0.407  c-0.355,0-0.71-0.136-0.982-0.407l-4.167-4.167c-0.542-0.543-0.542-1.422,0-1.964s1.421-0.542,1.964,0l3.185,3.185l1.796-1.796  l1.389-1.389l2.777-2.778c0.543-0.542,1.422-0.542,1.964,0l5.555,5.556c0.543,0.542,0.543,1.421,0,1.964  c-0.271,0.271-0.626,0.407-0.982,0.407c-0.355,0-0.71-0.136-0.982-0.407l-4.573-4.573l-0.864,0.864l11.619,12.91  C28.629,58.668,28.583,59.547,28.012,60.06z"/>
<circle cx="50" cy="43.084" r="3.472"/>
<path d="M50,48.162c-6.924,0.157-6.944,3.69-6.944,3.69l0.001,9.259H50h6.943l0.001-9.259C56.944,51.853,56.924,48.319,50,48.162z"/>
</svg>
