<svg xmlns="http://www.w3.org/2000/svg" xmlns:xlink="http://www.w3.org/1999/xlink" version="1.1" id="Layer_1" x="0px" y="0px" width="100px" height="100px" viewBox="0 0 100 100" enable-background="new 0 0 100 100" xml:space="preserve">
<g>
	<path fill="#000000" d="M66.521,23.332v-2.25c0-8.449-6.835-15.306-15.293-15.306c-8.457,0-15.305,6.856-15.305,15.306v30.732   c0,0.657,0.11,1.29,0.194,1.925L66.521,23.332z"/>
	<path fill="#000000" d="M66.521,51.814V44.39l-21.43,21.434c1.881,0.826,3.95,1.299,6.137,1.299   C59.687,67.123,66.521,60.265,66.521,51.814z"/>
	<path fill="#000000" d="M75.53,42.475c-1.763,0-3.193,1.429-3.193,3.191v6.023c0,11.649-9.468,21.127-21.108,21.127   c-3.774,0-7.311-1.008-10.381-2.748l-4.636,4.639c3.474,2.278,7.49,3.787,11.819,4.291v11.903H32.897   c-1.762,0-3.192,1.428-3.192,3.192c0,1.759,1.43,3.187,3.192,3.187h36.655c1.762,0,3.192-1.428,3.192-3.187   c0-1.765-1.431-3.192-3.192-3.192H54.415V79c13.662-1.59,24.308-13.221,24.308-27.312v-6.023   C78.723,43.903,77.289,42.475,75.53,42.475z"/>
	<path fill="#000000" d="M31.282,58.575c-0.748-2.162-1.17-4.47-1.17-6.886v-6.023c0-1.762-1.431-3.191-3.192-3.191   c-1.762,0-3.193,1.429-3.193,3.191v6.023c0,4.213,0.98,8.191,2.679,11.763L31.282,58.575z"/>
	<path fill="#000000" d="M91.02,9.364c-0.622-0.623-1.442-0.933-2.256-0.933c-0.814,0-1.635,0.31-2.257,0.933L66.521,29.348   L37.467,58.406l-4.254,4.251l-4.62,4.623L9.081,86.794c-1.246,1.246-1.246,3.262,0,4.507c0.623,0.626,1.44,0.939,2.257,0.939   s1.634-0.313,2.257-0.939l19.23-19.227l4.51-4.511l4.085-4.088l25.102-25.104L91.02,13.876C92.266,12.63,92.266,10.61,91.02,9.364z   "/>
</g>
</svg>
